{"glyphs":{"0":{"ha":600,"x_min":53,"x_max":547,"o":"m 300 -9 q 116 84 179 -9 q 53 353 53 177 q 81 551.5 53 471 q 164.5 673 109 632 q 300 714 220 714 q 484.5 622.5 422 714 q 547 354 547 531 q 519 155 547 236 q 436 32.5 491 74 q 300 -9 381 -9 m 300 62 q 424.5 133.5 384 62 q 465 354 465 205 q 424.5 573.5 465 504 q 300 643 384 643 q 176 573 217 643 q 135 354 135 503 q 176 133.5 135 205 q 300 62 217 62"},"1":{"ha":600,"x_min":117,"x_max":525,"o":"m 487 0 l 155 0 q 127 9.5 137 0 q 117 36 117 19 q 127 61.5 117 53 q 155 70 137 70 l 285 70 l 285 609 l 183 541 q 158.5 535 170 534 q 139.5 543.5 147 536 q 129 561.5 132 551 q 130 583.5 126 572 q 147 603 134 595 l 285 694 q 310 707 298 702 q 334 712 322 712 q 357.5 703.5 348 712 q 367 677 367 695 l 367 70 l 487 70 q 515 61.5 505 70 q 525 36 525 53 q 515 9 525 18 q 487 0 505 0"},"2":{"ha":600,"x_min":67.62,"x_max":546,"o":"m 508 0 l 129 0 q 96.5 10.5 107 0 q 86 39 86 21 q 91.5 60.5 86 50 q 107 82 97 71 l 331 322 q 404.5 423.5 382 377 q 427 518 427 470 q 390.5 609.5 427 578 q 284 641 354 641 q 199 627 239 641 q 122 584 159 613 q 98.5 575 109 574 q 80 583 88 576 q 69 601 72 590 q 69.5 623 66 612 q 85 643 73 634 q 179 694.5 124 675 q 291 714 234 714 q 411 692 362 714 q 485 627.5 460 670 q 510 524 510 585 q 496.5 441.5 510 482 q 455.5 359 483 401 q 384 272 428 317 l 193 70 l 508 70 q 536.5 61.5 527 70 q 546 36 546 53 q 536.5 9 546 18 q 508 0 527 0"},"3":{"ha":600,"x_min":54.54,"x_max":529,"o":"m 292 -9 q 175.5 8 234 -9 q 74 58 117 25 q 57 78.5 61 67 q 55.5 100.5 53 90 q 66 118.5 58 111 q 85.5 127 74 126 q 111 119 97 128 q 199 77 155 90 q 290 64 243 64 q 376 79 341 64 q 429 123.5 411 94 q 447 196 447 153 q 406 290 447 258 q 287 322 365 322 l 216 322 q 187 331.5 197 322 q 177 358 177 341 q 187 383.5 177 374 q 216 393 197 393 l 280 393 q 358.5 409 326 393 q 409 454.5 391 425 q 427 526 427 484 q 391 611.5 427 582 q 287 641 355 641 q 202 628 242 641 q 123 584 162 615 q 99.5 575.5 111 575 q 80.5 582.5 88 576 q 69.5 600 73 589 q 70 622.5 66 611 q 87 644 74 634 q 181 696 127 678 q 292 714 235 714 q 408.5 692.5 360 714 q 483 630.5 457 671 q 509 533 509 590 q 492.5 454.5 509 490 q 447 394 476 419 q 396 365 425 375 q 489 310 454 350 q 529 190 529 262 q 500.5 84.5 529 129 q 419 15.5 472 40 q 292 -9 366 -9"},"4":{"ha":600,"x_min":47,"x_max":572,"o":"m 418 -7 q 388 4 399 -7 q 377 35 377 15 l 377 151 l 90 151 q 58.5 160.5 70 151 q 47 188 47 170 q 52 210.5 47 199 q 70 240 57 222 l 375 684 q 395 705 384 698 q 421 712 406 712 q 448.5 702 437 712 q 460 670 460 692 l 460 221 l 533 221 q 562 212 552 221 q 572 186 572 203 q 562 160 572 169 q 533 151 552 151 l 460 151 l 460 35 q 449 4 460 15 q 418 -7 438 -7 m 136 221 l 377 221 l 377 574 l 136 221"},"5":{"ha":600,"x_min":80.71,"x_max":553,"o":"m 315 -9 q 201.5 8 258 -9 q 99 61 145 25 q 83 80 87 69 q 82 102 79 91 q 93 120.5 85 113 q 112.5 129 101 128 q 137 121 124 130 q 222 78 178 92 q 314 64 266 64 q 398.5 82.5 363 64 q 452.5 134.5 434 101 q 471 213 471 168 q 431 326 471 282 q 321 370 391 370 q 242 354 278 370 q 176 303 206 338 q 159.5 289.5 169 295 q 138 284 150 284 q 111.5 293.5 121 284 q 102 319 102 303 l 102 667 q 112 695.5 102 686 q 140 705 122 705 l 480 705 q 508.5 696 499 705 q 518 670 518 687 q 508.5 644 518 653 q 480 635 499 635 l 183 635 l 183 382 q 233 419 204 404 q 336 441 279 441 q 451.5 413 403 441 q 526.5 334.5 500 385 q 553 217 553 284 q 524 100 553 151 q 442 20 495 49 q 315 -9 389 -9"},"6":{"ha":600,"x_min":64,"x_max":548,"o":"m 324 -9 q 182.5 31.5 241 -9 q 94 149 124 72 q 64 335 64 226 q 83 497 64 427 q 139 615.5 102 567 q 229 689 176 664 q 349 714 282 714 q 443.5 696 395 714 q 529 645 492 678 q 542.5 625.5 540 637 q 542 603.5 545 614 q 531.5 586 539 593 q 513 578.5 524 579 q 490 587 502 578 q 420 628.5 456 616 q 347 641 384 641 q 236.5 609 282 641 q 167.5 512.5 191 577 q 144 351 144 448 l 144 304 q 169 357 153 333 q 239 420 196 398 q 336 442 282 442 q 446 414 398 442 q 521 335.5 494 386 q 548 220 548 285 q 520 102 548 154 q 441 20.5 492 50 q 324 -9 390 -9 m 319 61 q 397 80.5 363 61 q 450 135.5 431 100 q 469 217 469 171 q 450 298 469 263 q 397 353 431 333 q 319 373 363 373 q 241 353 275 373 q 188 298 207 333 q 169 217 169 263 q 188 135.5 169 171 q 241 80.5 207 100 q 319 61 275 61"},"7":{"ha":600,"x_min":60,"x_max":535,"o":"m 168 -7 q 144 0 154 -7 q 131.5 19.5 134 7 q 137 47 129 32 l 439 634 l 98 634 q 70 643.5 80 634 q 60 670 60 653 q 70 696 60 687 q 98 705 80 705 l 495 705 q 524 696 513 705 q 535 670 535 687 q 531.5 645.5 535 656 q 522 622 528 635 l 214 21 q 196 0 207 7 q 168 -7 185 -7"},"8":{"ha":600,"x_min":49,"x_max":551,"o":"m 300 -9 q 164.5 14 221 -9 q 78.5 81 108 37 q 49 187 49 125 q 69 274.5 49 236 q 125 337 89 313 q 178 361 149 353 q 105 414 134 378 q 66 526 66 461 q 94.5 627.5 66 586 q 176 691.5 123 669 q 300 714 229 714 q 424.5 691.5 372 714 q 506 627.5 477 669 q 535 526 535 586 q 517.5 446.5 535 483 q 468 386 500 410 q 422 361 447 370 q 508 309 473 347 q 551 187 551 260 q 521.5 81 551 125 q 435.5 14 492 37 q 300 -9 379 -9 m 300 59 q 428.5 92 385 59 q 472 192 472 125 q 428.5 290.5 472 258 q 300 323 385 323 q 172 290.5 216 323 q 128 192 128 258 q 172 92 128 125 q 300 59 216 59 m 300 391 q 383.5 406.5 349 391 q 437 451 418 422 q 456 519 456 480 q 414.5 612.5 456 579 q 300 646 373 646 q 186 612.5 227 646 q 145 519 145 579 q 186 425 145 459 q 300 391 227 391"},"9":{"ha":600,"x_min":52,"x_max":536,"o":"m 251 -9 q 157 9 206 -9 q 71 61 108 27 q 57.5 80 60 69 q 58 101.5 55 91 q 68.5 119.5 61 112 q 87 127.5 76 127 q 110 119 98 128 q 180 77 144 90 q 253 64 216 64 q 363.5 96 318 64 q 432.5 193 409 128 q 456 354 456 258 l 456 402 q 432 349 447 373 q 361 285 404 307 q 264 263 318 263 q 154 291 202 263 q 79 370 106 319 q 52 485 52 421 q 80.5 603.5 52 552 q 159.5 684.5 109 655 q 276 714 210 714 q 417.5 673.5 359 714 q 506 556 476 633 q 536 370 536 479 q 517 208 536 278 q 461 89.5 498 138 q 371 16 424 41 q 251 -9 318 -9 m 281 332 q 360 352 326 332 q 413 407.5 394 372 q 432 489 432 443 q 413 570 432 535 q 360 625 394 605 q 281 645 326 645 q 203.5 625 237 645 q 150.5 570 170 605 q 131 489 131 535 q 150.5 407.5 131 443 q 203.5 352 170 372 q 281 332 237 332"},"A":{"ha":729,"x_min":35.24,"x_max":695.74,"o":"m 72 -7 q 46.5 0.5 56 -7 q 35.5 20.5 37 8 q 41 49 34 33 l 316 675 q 337.5 703.5 325 695 q 365 712 350 712 q 392.5 703.5 380 712 q 413 675 405 695 l 689 49 q 695.5 20 697 33 q 685 0 694 7 q 660 -7 676 -7 q 631 2.5 642 -7 q 613 30 620 12 l 548 180 l 181 180 l 117 30 q 98 2 108 11 q 72 -7 88 -7 m 366 609 l 364 609 l 211 249 l 519 249 l 366 609"},"Á":{"ha":729,"x_min":35.24,"x_max":695.74,"o":"m 72 -7 q 46.5 0.5 56 -7 q 35.5 20.5 37 8 q 41 49 34 33 l 316 675 q 337.5 703.5 325 695 q 365 712 350 712 q 392.5 703.5 380 712 q 413 675 405 695 l 689 49 q 695.5 20 697 33 q 685 0 694 7 q 660 -7 676 -7 q 631 2.5 642 -7 q 613 30 620 12 l 548 180 l 181 180 l 117 30 q 98 2 108 11 q 72 -7 88 -7 m 366 609 l 364 609 l 211 249 l 519 249 l 366 609 m 505 892 l 401 769 q 382.5 759.5 393 760 q 364 764.5 372 759 q 353.5 779 356 770 q 358 799 351 788 l 447 928 q 467 944 456 941 q 489 943.5 478 947 q 506.5 932 500 940 q 513.5 913.5 513 924 q 505 892 514 903"},"Ă":{"ha":729,"x_min":35.24,"x_max":695.74,"o":"m 72 -7 q 46.5 0.5 56 -7 q 35.5 20.5 37 8 q 41 49 34 33 l 316 675 q 337.5 703.5 325 695 q 365 712 350 712 q 392.5 703.5 380 712 q 413 675 405 695 l 689 49 q 695.5 20 697 33 q 685 0 694 7 q 660 -7 676 -7 q 631 2.5 642 -7 q 613 30 620 12 l 548 180 l 181 180 l 117 30 q 98 2 108 11 q 72 -7 88 -7 m 366 609 l 364 609 l 211 249 l 519 249 l 366 609 m 366 760 q 261.5 795.5 307 760 q 200 904 216 831 q 204 927 197 918 q 222 936 211 936 q 236.5 934 230 937 q 246.5 926 243 931 q 251 914 250 921 q 295 836.5 262 859 q 366 814 328 814 q 438 836.5 405 814 q 481 914 471 859 q 485.5 926 482 921 q 495.5 934 489 931 q 510 936 502 937 q 528 927 521 936 q 532 904 535 918 q 471 795.5 517 831 q 366 760 425 760"},"Ắ":{"ha":729,"x_min":35.24,"x_max":695.74,"o":"m 72 -7 q 46.5 0.5 56 -7 q 35.5 20.5 37 8 q 41 49 34 33 l 316 675 q 337.5 703.5 325 695 q 365 712 350 712 q 392.5 703.5 380 712 q 413 675 405 695 l 689 49 q 695.5 20 697 33 q 685 0 694 7 q 660 -7 676 -7 q 631 2.5 642 -7 q 613 30 620 12 l 548 180 l 181 180 l 117 30 q 98 2 108 11 q 72 -7 88 -7 m 366 609 l 364 609 l 211 249 l 519 249 l 366 609 m 366 760 q 264.5 794 305 760 q 213 886 224 828 q 216.5 909.5 211 901 q 232 919 222 918 q 249.5 915 243 920 q 259 896 256 910 q 295 834.5 268 857 q 366 812 322 812 q 437 834.5 410 812 q 473 896 464 857 q 483 915 476 910 q 501 919 490 920 q 516.5 909 511 918 q 519 885 522 900 q 491.5 819 512 847 q 439 775.5 471 791 q 366 760 407 760 m 471 977 l 387 873 q 370.5 863 380 864 q 353 867 361 862 q 342.5 880.5 345 872 q 347 900 340 889 l 415 1010 q 433 1027.5 422 1024 q 454.5 1028 444 1031 q 472 1017 465 1025 q 479.5 998.5 479 1009 q 471 977 480 988"},"Ặ":{"ha":729,"x_min":35.24,"x_max":695.74,"o":"m 72 -7 q 46.5 0.5 56 -7 q 35.5 20.5 37 8 q 41 49 34 33 l 316 675 q 337.5 703.5 325 695 q 365 712 350 712 q 392.5 703.5 380 712 q 413 675 405 695 l 689 49 q 695.5 20 697 33 q 685 0 694 7 q 660 -7 676 -7 q 631 2.5 642 -7 q 613 30 620 12 l 548 180 l 181 180 l 117 30 q 98 2 108 11 q 72 -7 88 -7 m 366 609 l 364 609 l 211 249 l 519 249 l 366 609 m 366 -191 q 330 -178 343 -191 q 317 -143 317 -165 q 330 -108 317 -120 q 366 -96 343 -96 q 403 -108 390 -96 q 416 -143 416 -120 q 403 -178 416 -165 q 366 -191 390 -191 m 366 760 q 261.5 795.5 307 760 q 200 904 216 831 q 204 927 197 918 q 222 936 211 936 q 236.5 934 230 937 q 246.5 926 243 931 q 251 914 250 921 q 295 836.5 262 859 q 366 814 328 814 q 438 836.5 405 814 q 481 914 471 859 q 485.5 926 482 921 q 495.5 934 489 931 q 510 936 502 937 q 528 927 521 936 q 532 904 535 918 q 471 795.5 517 831 q 366 760 425 760"},"Ằ":{"ha":729,"x_min":35.24,"x_max":695.74,"o":"m 72 -7 q 46.5 0.5 56 -7 q 35.5 20.5 37 8 q 41 49 34 33 l 316 675 q 337.5 703.5 325 695 q 365 712 350 712 q 392.5 703.5 380 712 q 413 675 405 695 l 689 49 q 695.5 20 697 33 q 685 0 694 7 q 660 -7 676 -7 q 631 2.5 642 -7 q 613 30 620 12 l 548 180 l 181 180 l 117 30 q 98 2 108 11 q 72 -7 88 -7 m 366 609 l 364 609 l 211 249 l 519 249 l 366 609 m 366 760 q 264.5 794 305 760 q 213 885 224 828 q 216 909 211 900 q 231 919 221 918 q 249 915 242 920 q 259 896 256 910 q 295 834.5 268 857 q 366 812 322 812 q 437 834.5 410 812 q 473 896 464 857 q 483 915 476 910 q 500 919 490 920 q 516.5 909.5 511 918 q 519 886 522 901 q 491.5 819.5 512 848 q 439 775.5 471 791 q 366 760 407 760 m 345 873 l 261 977 q 252.5 998.5 252 988 q 260 1017 253 1009 q 277.5 1028 267 1025 q 299 1027.5 288 1031 q 317 1010 310 1024 l 385 900 q 389.5 880.5 392 889 q 379 867 387 872 q 361.5 863 371 862 q 345 873 352 864"},"Ẳ":{"ha":729,"x_min":35.24,"x_max":695.74,"o":"m 72 -7 q 46.5 0.5 56 -7 q 35.5 20.5 37 8 q 41 49 34 33 l 316 675 q 337.5 703.5 325 695 q 365 712 350 712 q 392.5 703.5 380 712 q 413 675 405 695 l 689 49 q 695.5 20 697 33 q 685 0 694 7 q 660 -7 676 -7 q 631 2.5 642 -7 q 613 30 620 12 l 548 180 l 181 180 l 117 30 q 98 2 108 11 q 72 -7 88 -7 m 366 609 l 364 609 l 211 249 l 519 249 l 366 609 m 366 760 q 264.5 794 305 760 q 213 885 224 828 q 216 909 211 900 q 231 919 221 918 q 249 915 242 920 q 259 896 256 910 q 295 834.5 268 857 q 366 812 322 812 q 437 834.5 410 812 q 473 896 464 857 q 483 915 476 910 q 500 919 490 920 q 516.5 909.5 511 918 q 519 886 522 901 q 491.5 819.5 512 848 q 439 775.5 471 791 q 366 760 407 760 m 383 870 q 365 867 374 866 q 351 872.5 356 868 q 346.5 883.5 346 877 q 356 896 347 890 q 389.5 924 379 911 q 400 953 400 937 q 389.5 974.5 400 968 q 356 981 379 981 q 337 980 347 981 q 316 976 327 979 q 296.5 976 304 973 q 286 987 289 979 q 287 1003.5 283 997 q 303 1015 291 1010 q 336 1022 319 1020 q 370 1024 353 1024 q 436.5 1010 413 1024 q 460 966 460 996 q 449 927 460 945 q 420.5 895 438 909 q 383 870 403 881"},"Ẵ":{"ha":729,"x_min":35.24,"x_max":695.74,"o":"m 72 -7 q 46.5 0.5 56 -7 q 35.5 20.5 37 8 q 41 49 34 33 l 316 675 q 337.5 703.5 325 695 q 365 712 350 712 q 392.5 703.5 380 712 q 413 675 405 695 l 689 49 q 695.5 20 697 33 q 685 0 694 7 q 660 -7 676 -7 q 631 2.5 642 -7 q 613 30 620 12 l 548 180 l 181 180 l 117 30 q 98 2 108 11 q 72 -7 88 -7 m 366 609 l 364 609 l 211 249 l 519 249 l 366 609 m 366 760 q 274.5 784 313 760 q 219 845 236 808 q 217 867.5 213 859 q 231 879 221 876 q 250 877.5 243 881 q 263 864 257 874 q 302.5 826 276 840 q 366 812 329 812 q 430 826 404 812 q 469 864 456 840 q 482 877.5 475 874 q 501 879 489 881 q 515.5 867.5 511 876 q 513 845 520 859 q 458 784 496 808 q 366 760 420 760 m 231 919 q 215.5 928 221 920 q 213 950 210 936 q 245 1005.5 222 987 q 302 1024 268 1024 q 350 1010.5 329 1024 q 390 984 371 997 q 429 971 409 971 q 458 978.5 446 971 q 474 1004 470 986 q 484 1020.5 477 1015 q 502 1025 491 1026 q 517.5 1016.5 512 1024 q 520 995 523 1009 q 487.5 939.5 511 958 q 431 921 464 921 q 382.5 934 404 921 q 342.5 960 361 947 q 303 973 324 973 q 274.5 965.5 286 973 q 258 940 263 958 q 248.5 924 255 930 q 231 919 242 918"},"Ǎ":{"ha":729,"x_min":35.24,"x_max":695.74,"o":"m 72 -7 q 46.5 0.5 56 -7 q 35.5 20.5 37 8 q 41 49 34 33 l 316 675 q 337.5 703.5 325 695 q 365 712 350 712 q 392.5 703.5 380 712 q 413 675 405 695 l 689 49 q 695.5 20 697 33 q 685 0 694 7 q 660 -7 676 -7 q 631 2.5 642 -7 q 613 30 620 12 l 548 180 l 181 180 l 117 30 q 98 2 108 11 q 72 -7 88 -7 m 366 609 l 364 609 l 211 249 l 519 249 l 366 609 m 366 756 q 338 762.5 351 756 q 315 783 325 769 l 227 907 q 222 926.5 220 917 q 232 941 224 936 q 250.5 944.5 240 946 q 270 933 261 943 l 366 818 l 463 933 q 481.5 944.5 471 943 q 500 941 492 946 q 510 926.5 508 936 q 505 907 512 917 l 418 783 q 394.5 762.5 407 769 q 366 756 382 756"},"Â":{"ha":729,"x_min":35.24,"x_max":695.74,"o":"m 72 -7 q 46.5 0.5 56 -7 q 35.5 20.5 37 8 q 41 49 34 33 l 316 675 q 337.5 703.5 325 695 q 365 712 350 712 q 392.5 703.5 380 712 q 413 675 405 695 l 689 49 q 695.5 20 697 33 q 685 0 694 7 q 660 -7 676 -7 q 631 2.5 642 -7 q 613 30 620 12 l 548 180 l 181 180 l 117 30 q 98 2 108 11 q 72 -7 88 -7 m 366 609 l 364 609 l 211 249 l 519 249 l 366 609 m 366 884 l 270 768 q 250.5 758 261 759 q 232 762 240 757 q 222 776 224 767 q 227 795 220 785 l 315 918 q 338 939.5 325 933 q 366 946 351 946 q 394.5 939.5 382 946 q 418 918 407 933 l 505 795 q 511 776 513 785 q 500.5 762 509 767 q 481.5 758 492 757 q 463 768 471 759 l 366 884"},"Ấ":{"ha":729,"x_min":35.24,"x_max":695.74,"o":"m 72 -7 q 46.5 0.5 56 -7 q 35.5 20.5 37 8 q 41 49 34 33 l 316 675 q 337.5 703.5 325 695 q 365 712 350 712 q 392.5 703.5 380 712 q 413 675 405 695 l 689 49 q 695.5 20 697 33 q 685 0 694 7 q 660 -7 676 -7 q 631 2.5 642 -7 q 613 30 620 12 l 548 180 l 181 180 l 117 30 q 98 2 108 11 q 72 -7 88 -7 m 366 609 l 364 609 l 211 249 l 519 249 l 366 609 m 366 875 l 277 768 q 258.5 757.5 268 759 q 242 760.5 249 756 q 233 774.5 235 765 q 238 794 231 784 l 316 909 q 338.5 931 326 925 q 366 937 351 937 q 385 934.5 376 937 q 402 926 394 932 q 416 909 410 920 l 494 794 q 499.5 774.5 501 784 q 491 760.5 498 765 q 474 757.5 484 756 q 455 768 464 759 l 366 875 m 594 980 l 509 864 q 493.5 855 502 856 q 478 858.5 485 854 q 469 871.5 471 863 q 473 891 467 880 l 542 1010 q 559 1026.5 549 1023 q 578.5 1027.5 569 1030 q 594.5 1018 588 1025 q 601.5 1000.5 601 1011 q 594 980 602 990"},"Ậ":{"ha":729,"x_min":35.24,"x_max":695.74,"o":"m 72 -7 q 46.5 0.5 56 -7 q 35.5 20.5 37 8 q 41 49 34 33 l 316 675 q 337.5 703.5 325 695 q 365 712 350 712 q 392.5 703.5 380 712 q 413 675 405 695 l 689 49 q 695.5 20 697 33 q 685 0 694 7 q 660 -7 676 -7 q 631 2.5 642 -7 q 613 30 620 12 l 548 180 l 181 180 l 117 30 q 98 2 108 11 q 72 -7 88 -7 m 366 609 l 364 609 l 211 249 l 519 249 l 366 609 m 366 -191 q 330 -178 343 -191 q 317 -143 317 -165 q 330 -108 317 -120 q 366 -96 343 -96 q 403 -108 390 -96 q 416 -143 416 -120 q 403 -178 416 -165 q 366 -191 390 -191 m 366 884 l 270 768 q 250.5 758 261 759 q 232 762 240 757 q 222 776 224 767 q 227 795 220 785 l 315 918 q 338 939.5 325 933 q 366 946 351 946 q 394.5 939.5 382 946 q 418 918 407 933 l 505 795 q 511 776 513 785 q 500.5 762 509 767 q 481.5 758 492 757 q 463 768 471 759 l 366 884"},"Ầ":{"ha":729,"x_min":35.24,"x_max":695.74,"o":"m 72 -7 q 46.5 0.5 56 -7 q 35.5 20.5 37 8 q 41 49 34 33 l 316 675 q 337.5 703.5 325 695 q 365 712 350 712 q 392.5 703.5 380 712 q 413 675 405 695 l 689 49 q 695.5 20 697 33 q 685 0 694 7 q 660 -7 676 -7 q 631 2.5 642 -7 q 613 30 620 12 l 548 180 l 181 180 l 117 30 q 98 2 108 11 q 72 -7 88 -7 m 366 609 l 364 609 l 211 249 l 519 249 l 366 609 m 366 875 l 277 768 q 258.5 757.5 268 759 q 242 760.5 249 756 q 233 774.5 235 765 q 238 794 231 784 l 316 909 q 338.5 931 326 925 q 366 937 351 937 q 385 934.5 376 937 q 402 926 394 932 q 416 909 410 920 l 494 794 q 499.5 774.5 501 784 q 491 760.5 498 765 q 474 757.5 484 756 q 455 768 464 759 l 366 875 m 504 864 l 418 980 q 411.5 1000.5 411 990 q 418.5 1018 412 1011 q 434.5 1027.5 425 1025 q 453.5 1026.5 444 1030 q 471 1010 463 1023 l 540 891 q 544 871.5 546 880 q 535 858.5 542 863 q 519 855 528 854 q 504 864 510 856"},"Ẩ":{"ha":729,"x_min":35.24,"x_max":695.74,"o":"m 72 -7 q 46.5 0.5 56 -7 q 35.5 20.5 37 8 q 41 49 34 33 l 316 675 q 337.5 703.5 325 695 q 365 712 350 712 q 392.5 703.5 380 712 q 413 675 405 695 l 689 49 q 695.5 20 697 33 q 685 0 694 7 q 660 -7 676 -7 q 631 2.5 642 -7 q 613 30 620 12 l 548 180 l 181 180 l 117 30 q 98 2 108 11 q 72 -7 88 -7 m 366 609 l 364 609 l 211 249 l 519 249 l 366 609 m 366 875 l 277 768 q 258.5 757.5 268 759 q 242 760.5 249 756 q 233 774.5 235 765 q 238 794 231 784 l 316 909 q 338.5 931 326 925 q 366 937 351 937 q 385 934.5 376 937 q 402 926 394 932 q 416 909 410 920 l 494 794 q 499.5 774.5 501 784 q 491 760.5 498 765 q 474 757.5 484 756 q 455 768 464 759 l 366 875 m 505 865 q 483 862.5 493 859 q 471 875.5 473 866 q 481 893 469 885 q 515 921.5 503 908 q 527 951 527 935 q 516.5 972.5 527 966 q 482 979 506 979 q 463.5 978 473 979 q 443 974 454 977 q 423 974 431 971 q 412 986 415 977 q 414 1002.5 410 996 q 430 1013 418 1009 q 462 1020 445 1018 q 497 1022 479 1022 q 562.5 1008 539 1022 q 586 963 586 994 q 574 923.5 586 942 q 543.5 890.5 562 905 q 505 865 525 876"},"Ẫ":{"ha":729,"x_min":35.24,"x_max":695.74,"o":"m 72 -7 q 46.5 0.5 56 -7 q 35.5 20.5 37 8 q 41 49 34 33 l 316 675 q 337.5 703.5 325 695 q 365 712 350 712 q 392.5 703.5 380 712 q 413 675 405 695 l 689 49 q 695.5 20 697 33 q 685 0 694 7 q 660 -7 676 -7 q 631 2.5 642 -7 q 613 30 620 12 l 548 180 l 181 180 l 117 30 q 98 2 108 11 q 72 -7 88 -7 m 366 609 l 364 609 l 211 249 l 519 249 l 366 609 m 366 850 l 272 765 q 249 757.5 261 755 q 233.5 770 237 760 q 240 791 230 780 l 313 879 q 338.5 898.5 326 893 q 366 904 351 904 q 386 901.5 377 904 q 403 893.5 395 899 q 419 879 411 888 l 492 791 q 499 774.5 500 783 q 492.5 761 498 766 q 478 756.5 487 756 q 460 765 469 757 l 366 850 m 231 920 q 215.5 929 221 921 q 213 951 210 937 q 245 1006 222 988 q 302 1024 268 1024 q 350 1011 329 1024 q 390 985 371 998 q 429 972 409 972 q 458 979.5 446 972 q 474 1005 470 987 q 484 1021.5 477 1016 q 502 1026 491 1027 q 517.5 1017.5 512 1025 q 520 996 523 1010 q 487.5 940.5 511 959 q 431 922 464 922 q 382.5 935 404 922 q 342.5 961 361 948 q 303 974 324 974 q 274.5 966.5 286 974 q 258 941 263 959 q 248.5 925 255 931 q 231 920 242 919"},"Ȁ":{"ha":729,"x_min":35.24,"x_max":695.74,"o":"m 72 -7 q 46.5 0.5 56 -7 q 35.5 20.5 37 8 q 41 49 34 33 l 316 675 q 337.5 703.5 325 695 q 365 712 350 712 q 392.5 703.5 380 712 q 413 675 405 695 l 689 49 q 695.5 20 697 33 q 685 0 694 7 q 660 -7 676 -7 q 631 2.5 642 -7 q 613 30 620 12 l 548 180 l 181 180 l 117 30 q 98 2 108 11 q 72 -7 88 -7 m 366 609 l 364 609 l 211 249 l 519 249 l 366 609 m 402 769 l 317 895 q 309.5 917.5 308 907 q 318 935 311 928 q 335.5 944.5 325 942 q 356.5 942.5 346 947 q 373 925 367 938 l 442 789 q 444 771 447 779 q 433.5 759.5 441 763 q 417.5 758 426 756 q 402 769 409 760 m 277 768 l 188 895 q 180 917.5 179 907 q 188 935 181 928 q 205.5 944.5 195 942 q 226 943 216 947 q 243 925 236 939 l 313 790 q 316 772.5 318 781 q 307 760 314 764 q 292 757.5 300 756 q 277 768 284 759"},"Ä":{"ha":729,"x_min":35.24,"x_max":695.74,"o":"m 72 -7 q 46.5 0.5 56 -7 q 35.5 20.5 37 8 q 41 49 34 33 l 316 675 q 337.5 703.5 325 695 q 365 712 350 712 q 392.5 703.5 380 712 q 413 675 405 695 l 689 49 q 695.5 20 697 33 q 685 0 694 7 q 660 -7 676 -7 q 631 2.5 642 -7 q 613 30 620 12 l 548 180 l 181 180 l 117 30 q 98 2 108 11 q 72 -7 88 -7 m 366 609 l 364 609 l 211 249 l 519 249 l 366 609 m 454 802 q 418.5 814 431 802 q 406 849 406 826 q 418.5 883 406 871 q 454 895 431 895 q 488 883 476 895 q 500 849 500 871 q 488 814 500 826 q 454 802 476 802 m 279 802 q 244.5 814 257 802 q 232 849 232 826 q 244.5 883 232 871 q 279 895 257 895 q 314 883 302 895 q 326 849 326 871 q 314 814 326 826 q 279 802 302 802"},"Ȧ":{"ha":729,"x_min":35.24,"x_max":695.74,"o":"m 72 -7 q 46.5 0.5 56 -7 q 35.5 20.5 37 8 q 41 49 34 33 l 316 675 q 337.5 703.5 325 695 q 365 712 350 712 q 392.5 703.5 380 712 q 413 675 405 695 l 689 49 q 695.5 20 697 33 q 685 0 694 7 q 660 -7 676 -7 q 631 2.5 642 -7 q 613 30 620 12 l 548 180 l 181 180 l 117 30 q 98 2 108 11 q 72 -7 88 -7 m 366 609 l 364 609 l 211 249 l 519 249 l 366 609 m 366 803 q 330 815.5 343 803 q 317 851 317 828 q 330 886 317 874 q 366 898 343 898 q 402.5 886 390 898 q 415 851 415 874 q 402.5 815.5 415 828 q 366 803 390 803"},"Ạ":{"ha":729,"x_min":35.24,"x_max":695.74,"o":"m 72 -7 q 46.5 0.5 56 -7 q 35.5 20.5 37 8 q 41 49 34 33 l 316 675 q 337.5 703.5 325 695 q 365 712 350 712 q 392.5 703.5 380 712 q 413 675 405 695 l 689 49 q 695.5 20 697 33 q 685 0 694 7 q 660 -7 676 -7 q 631 2.5 642 -7 q 613 30 620 12 l 548 180 l 181 180 l 117 30 q 98 2 108 11 q 72 -7 88 -7 m 366 609 l 364 609 l 211 249 l 519 249 l 366 609 m 366 -191 q 330 -178 343 -191 q 317 -143 317 -165 q 330 -108 317 -120 q 366 -96 343 -96 q 403 -108 390 -96 q 416 -143 416 -120 q 403 -178 416 -165 q 366 -191 390 -191"},"À":{"ha":729,"x_min":35.24,"x_max":695.74,"o":"m 72 -7 q 46.5 0.5 56 -7 q 35.5 20.5 37 8 q 41 49 34 33 l 316 675 q 337.5 703.5 325 695 q 365 712 350 712 q 392.5 703.5 380 712 q 413 675 405 695 l 689 49 q 695.5 20 697 33 q 685 0 694 7 q 660 -7 676 -7 q 631 2.5 642 -7 q 613 30 620 12 l 548 180 l 181 180 l 117 30 q 98 2 108 11 q 72 -7 88 -7 m 366 609 l 364 609 l 211 249 l 519 249 l 366 609 m 331 769 l 227 892 q 218.5 913.5 218 903 q 226 932 219 924 q 243.5 943.5 233 940 q 265.5 944 254 947 q 285 928 277 941 l 374 799 q 378.5 779 381 788 q 368 764.5 376 770 q 350 759.5 360 759 q 331 769 340 760"},"Ả":{"ha":729,"x_min":35.24,"x_max":695.74,"o":"m 72 -7 q 46.5 0.5 56 -7 q 35.5 20.5 37 8 q 41 49 34 33 l 316 675 q 337.5 703.5 325 695 q 365 712 350 712 q 392.5 703.5 380 712 q 413 675 405 695 l 689 49 q 695.5 20 697 33 q 685 0 694 7 q 660 -7 676 -7 q 631 2.5 642 -7 q 613 30 620 12 l 548 180 l 181 180 l 117 30 q 98 2 108 11 q 72 -7 88 -7 m 366 609 l 364 609 l 211 249 l 519 249 l 366 609 m 366 758 q 345.5 763.5 353 758 q 338 781 338 769 q 347.5 813.5 338 801 q 369.5 835 357 826 q 391.5 852 382 844 q 401 872 401 860 q 389.5 889 401 883 q 355 895 378 895 q 335 894 346 895 q 314 889 324 893 q 290.5 887 299 885 q 279 900 282 889 q 280 918 276 910 q 296 931 284 926 q 331.5 940 312 937 q 371 943 351 943 q 441.5 926 416 943 q 467 881 467 909 q 456 847 467 860 q 430.5 825.5 445 834 q 405 806 416 817 q 394 776 394 795 q 387 763 394 768 q 366 758 380 758"},"Ȃ":{"ha":729,"x_min":35.24,"x_max":695.74,"o":"m 72 -7 q 46.5 0.5 56 -7 q 35.5 20.5 37 8 q 41 49 34 33 l 316 675 q 337.5 703.5 325 695 q 365 712 350 712 q 392.5 703.5 380 712 q 413 675 405 695 l 689 49 q 695.5 20 697 33 q 685 0 694 7 q 660 -7 676 -7 q 631 2.5 642 -7 q 613 30 620 12 l 548 180 l 181 180 l 117 30 q 98 2 108 11 q 72 -7 88 -7 m 366 609 l 364 609 l 211 249 l 519 249 l 366 609 m 222 759 q 204 768.5 211 760 q 200 792 197 777 q 261.5 900 216 865 q 366 935 307 935 q 471 900 425 935 q 532 792 517 865 q 528 768.5 535 777 q 510 759 521 760 q 495.5 761 502 758 q 485.5 769.5 489 764 q 481 782 482 775 q 437 858.5 469 836 q 366 881 405 881 q 295.5 858.5 328 881 q 251 782 263 836 q 246.5 769.5 250 775 q 236.5 761 243 764 q 222 759 230 758"},"Ā":{"ha":729,"x_min":35.24,"x_max":695.74,"o":"m 72 -7 q 46.5 0.5 56 -7 q 35.5 20.5 37 8 q 41 49 34 33 l 316 675 q 337.5 703.5 325 695 q 365 712 350 712 q 392.5 703.5 380 712 q 413 675 405 695 l 689 49 q 695.5 20 697 33 q 685 0 694 7 q 660 -7 676 -7 q 631 2.5 642 -7 q 613 30 620 12 l 548 180 l 181 180 l 117 30 q 98 2 108 11 q 72 -7 88 -7 m 366 609 l 364 609 l 211 249 l 519 249 l 366 609 m 502 814 l 230 814 q 201 842 201 814 q 208.5 862 201 855 q 230 869 216 869 l 502 869 q 532 842 532 869 q 524.5 821.5 532 829 q 502 814 517 814"},"Ą":{"ha":729,"x_min":35.2,"x_max":750.62,"o":"m 673 -192 q 597 -166 626 -192 q 568 -95 568 -140 q 585 -34 568 -63 q 623 12 599 -8 q 621 15 622 13 q 613 30 617 21 l 548 180 l 181 180 l 117 30 q 98 2 108 11 q 72 -7 88 -7 q 46.5 0.5 56 -7 q 35.5 20.5 37 8 q 40 49 34 33 l 316 675 q 337.5 703.5 325 695 q 365 712 350 712 q 392.5 703.5 380 712 q 413 675 405 695 l 689 49 q 695 18 697 32 q 681 -2 693 4 q 658 -20 671 -8 q 635.5 -48.5 645 -32 q 626 -86 626 -65 q 643 -128 626 -114 q 684 -142 660 -142 q 701.5 -140.5 693 -142 q 719 -136 710 -139 q 740.5 -137 733 -132 q 750 -151.5 748 -142 q 747.5 -170 752 -161 q 732 -183 743 -179 q 702 -190.5 717 -189 q 673 -192 687 -192 m 366 609 l 364 609 l 211 249 l 519 249 l 366 609"},"Å":{"ha":729,"x_min":35.24,"x_max":695.74,"o":"m 72 -7 q 46.5 0.5 56 -7 q 35.5 20.5 37 8 q 41 49 34 33 l 316 675 q 337.5 703.5 325 695 q 365 712 350 712 q 392.5 703.5 380 712 q 413 675 405 695 l 689 49 q 695.5 20 697 33 q 685 0 694 7 q 660 -7 676 -7 q 631 2.5 642 -7 q 613 30 620 12 l 548 180 l 181 180 l 117 30 q 98 2 108 11 q 72 -7 88 -7 m 366 609 l 364 609 l 211 249 l 519 249 l 366 609 m 366 758 q 306 773.5 333 758 q 263 815.5 279 789 q 247 874 247 842 q 263 932.5 247 907 q 306 973.5 279 958 q 366 989 333 989 q 426.5 973.5 400 989 q 469 932.5 453 958 q 485 874 485 907 q 469 815.5 485 842 q 426.5 773.5 453 789 q 366 758 400 758 m 366 801 q 418 822 398 801 q 438 874 438 843 q 418 925 438 904 q 366 946 398 946 q 314.5 925 335 946 q 294 874 294 904 q 314.5 822 294 843 q 366 801 335 801"},"Ǻ":{"ha":729,"x_min":35.24,"x_max":695.74,"o":"m 72 -7 q 46.5 0.5 56 -7 q 35.5 20.5 37 8 q 41 49 34 33 l 316 675 q 337.5 703.5 325 695 q 365 712 350 712 q 392.5 703.5 380 712 q 413 675 405 695 l 689 49 q 695.5 20 697 33 q 685 0 694 7 q 660 -7 676 -7 q 631 2.5 642 -7 q 613 30 620 12 l 548 180 l 181 180 l 117 30 q 98 2 108 11 q 72 -7 88 -7 m 366 609 l 364 609 l 211 249 l 519 249 l 366 609 m 366 758 q 307.5 773 334 758 q 265.5 814 281 788 q 250 871 250 840 q 265.5 928.5 250 903 q 307.5 969.5 281 954 q 366 985 334 985 q 401.5 980 385 985 q 432 965 418 975 l 505 1033 q 526.5 1042 516 1043 q 544.5 1033.5 537 1041 q 552.5 1016 552 1026 q 542 997 553 1006 l 465 931 q 482 871 482 905 q 466.5 814 482 840 q 425 773 451 788 q 366 758 399 758 m 366 799 q 418 820 398 799 q 438 871 438 841 q 418 922.5 438 902 q 366 943 398 943 q 314.5 922.5 335 943 q 294 871 294 902 q 314.5 820 294 841 q 366 799 335 799"},"Ã":{"ha":729,"x_min":35.24,"x_max":695.74,"o":"m 72 -7 q 46.5 0.5 56 -7 q 35.5 20.5 37 8 q 41 49 34 33 l 316 675 q 337.5 703.5 325 695 q 365 712 350 712 q 392.5 703.5 380 712 q 413 675 405 695 l 689 49 q 695.5 20 697 33 q 685 0 694 7 q 660 -7 676 -7 q 631 2.5 642 -7 q 613 30 620 12 l 548 180 l 181 180 l 117 30 q 98 2 108 11 q 72 -7 88 -7 m 366 609 l 364 609 l 211 249 l 519 249 l 366 609 m 182 780 q 164.5 787.5 171 780 q 160 808 158 795 q 201.5 890 170 861 q 277 919 233 919 q 328 907.5 304 919 q 374.5 881 352 896 q 417.5 854.5 397 866 q 458 843 438 843 q 502 860 485 843 q 524 905 519 877 q 533.5 921 527 916 q 550 925 540 926 q 568 917.5 561 925 q 572 897 575 910 q 531.5 815 562 844 q 456 786 501 786 q 404.5 797.5 429 786 q 358 823.5 380 809 q 315 850 336 838 q 274 862 294 862 q 230.5 845 248 862 q 208 800 213 828 q 198.5 784.5 205 790 q 182 780 192 779"},"Æ":{"ha":981,"x_min":4,"x_max":937,"o":"m 42 -7 q 14 0.5 24 -7 q 4 20 4 8 q 12 45 4 32 l 397 680 q 416 699 405 693 q 442 705 427 705 l 900 705 q 927.5 696 918 705 q 937 671 937 687 q 927.5 645 937 654 q 900 636 918 636 l 503 636 l 555 392 l 880 392 q 907.5 383.5 898 392 q 917 358 917 375 q 907.5 332 917 341 q 880 323 898 323 l 571 323 l 624 69 l 900 69 q 927.5 60 918 69 q 937 35 937 51 q 927.5 9 937 18 q 900 0 918 0 l 598 0 q 557 33 565 0 l 526 180 l 180 180 l 85 20 q 67 0 77 7 q 42 -7 57 -7 m 435 608 l 433 608 l 220 249 l 511 249 l 435 608"},"Ǽ":{"ha":981,"x_min":4,"x_max":937,"o":"m 42 -7 q 14 0.5 24 -7 q 4 20 4 8 q 12 45 4 32 l 397 680 q 416 699 405 693 q 442 705 427 705 l 900 705 q 927.5 696 918 705 q 937 671 937 687 q 927.5 645 937 654 q 900 636 918 636 l 503 636 l 555 392 l 880 392 q 907.5 383.5 898 392 q 917 358 917 375 q 907.5 332 917 341 q 880 323 898 323 l 571 323 l 624 69 l 900 69 q 927.5 60 918 69 q 937 35 937 51 q 927.5 9 937 18 q 900 0 918 0 l 598 0 q 557 33 565 0 l 526 180 l 180 180 l 85 20 q 67 0 77 7 q 42 -7 57 -7 m 435 608 l 433 608 l 220 249 l 511 249 l 435 608 m 626 892 l 522 769 q 503.5 759.5 514 760 q 485 764.5 493 759 q 474.5 779 477 770 q 479 799 472 788 l 568 928 q 588 944 577 941 q 610 943.5 599 947 q 627.5 932 621 940 q 634.5 913.5 634 924 q 626 892 635 903"},"B":{"ha":676,"x_min":87,"x_max":614,"o":"m 381 0 l 132 0 q 98.5 11.5 110 0 q 87 45 87 23 l 87 660 q 98.5 693.5 87 682 q 132 705 110 705 l 369 705 q 492.5 683.5 442 705 q 570 621 543 662 q 597 521 597 580 q 559 411 597 455 q 484 362 529 378 q 572 313 538 348 q 614 194 614 268 q 553 50 614 100 q 381 0 492 0 m 167 324 l 167 66 l 373 66 q 493 98 453 66 q 533 195 533 130 q 493 292.5 533 261 q 373 324 453 324 l 167 324 m 167 639 l 167 390 l 357 390 q 475.5 422 435 390 q 516 514 516 454 q 475.5 607.5 516 576 q 357 639 435 639 l 167 639"},"Ɓ":{"ha":800,"x_min":0,"x_max":738,"o":"m 505 0 l 256 0 q 222.5 11.5 234 0 q 211 45 211 23 l 211 642 l 179 642 q 97 616 124 642 q 70 536 70 590 l 70 516 q 66.5 499 70 507 q 55 486 63 491 q 36 481 47 481 q 16 486 24 481 q 4 499.5 8 491 q 0 517 0 508 l 0 540 q 46.5 663 0 621 q 188 705 93 705 l 493 705 q 616.5 683.5 566 705 q 694 621 667 662 q 721 521 721 580 q 683 411 721 455 q 608 362 653 378 q 696 313 662 348 q 738 194 738 268 q 677 50 738 100 q 505 0 616 0 m 291 324 l 291 66 l 497 66 q 617 98 577 66 q 657 195 657 130 q 617 292.5 657 261 q 497 324 577 324 l 291 324 m 291 639 l 291 390 l 481 390 q 599.5 422 559 390 q 640 514 640 454 q 599.5 607.5 640 576 q 481 639 559 639 l 291 639"},"C":{"ha":673,"x_min":61,"x_max":628.25,"o":"m 392 -9 q 214 35 288 -9 q 100.5 160 140 79 q 61 353 61 241 q 83.5 503.5 61 437 q 148.5 616.5 106 570 q 253 688.5 191 663 q 392 714 315 714 q 510 696.5 454 714 q 607 645 566 679 q 624.5 622.5 620 635 q 625.5 598.5 629 610 q 613.5 579.5 622 587 q 593 572 605 572 q 566 582 581 572 q 487 625 530 611 q 394 639 444 639 q 260 605.5 315 639 q 177 508 205 572 q 149 353 149 444 q 177 197.5 149 262 q 260 99.5 205 133 q 394 66 315 66 q 487 80.5 443 66 q 568 124 531 95 q 595 133.5 583 134 q 615 126 607 133 q 626.5 108 623 119 q 626.5 85 630 97 q 611 64 623 73 q 512.5 9.5 569 28 q 392 -9 456 -9"},"Ć":{"ha":673,"x_min":61,"x_max":628.25,"o":"m 392 -9 q 214 35 288 -9 q 100.5 160 140 79 q 61 353 61 241 q 83.5 503.5 61 437 q 148.5 616.5 106 570 q 253 688.5 191 663 q 392 714 315 714 q 510 696.5 454 714 q 607 645 566 679 q 624.5 622.5 620 635 q 625.5 598.5 629 610 q 613.5 579.5 622 587 q 593 572 605 572 q 566 582 581 572 q 487 625 530 611 q 394 639 444 639 q 260 605.5 315 639 q 177 508 205 572 q 149 353 149 444 q 177 197.5 149 262 q 260 99.5 205 133 q 394 66 315 66 q 487 80.5 443 66 q 568 124 531 95 q 595 133.5 583 134 q 615 126 607 133 q 626.5 108 623 119 q 626.5 85 630 97 q 611 64 623 73 q 512.5 9.5 569 28 q 392 -9 456 -9 m 526 892 l 422 769 q 403.5 759.5 414 760 q 385 764.5 393 759 q 374.5 779 377 770 q 379 799 372 788 l 468 928 q 488 944 477 941 q 510 943.5 499 947 q 527.5 932 521 940 q 534.5 913.5 534 924 q 526 892 535 903"},"Č":{"ha":673,"x_min":61,"x_max":628.25,"o":"m 392 -9 q 214 35 288 -9 q 100.5 160 140 79 q 61 353 61 241 q 83.5 503.5 61 437 q 148.5 616.5 106 570 q 253 688.5 191 663 q 392 714 315 714 q 510 696.5 454 714 q 607 645 566 679 q 624.5 622.5 620 635 q 625.5 598.5 629 610 q 613.5 579.5 622 587 q 593 572 605 572 q 566 582 581 572 q 487 625 530 611 q 394 639 444 639 q 260 605.5 315 639 q 177 508 205 572 q 149 353 149 444 q 177 197.5 149 262 q 260 99.5 205 133 q 394 66 315 66 q 487 80.5 443 66 q 568 124 531 95 q 595 133.5 583 134 q 615 126 607 133 q 626.5 108 623 119 q 626.5 85 630 97 q 611 64 623 73 q 512.5 9.5 569 28 q 392 -9 456 -9 m 387 756 q 359 762.5 372 756 q 336 783 346 769 l 248 907 q 243 926.5 241 917 q 253 941 245 936 q 271.5 944.5 261 946 q 291 933 282 943 l 387 818 l 484 933 q 502.5 944.5 492 943 q 521 941 513 946 q 531 926.5 529 936 q 526 907 533 917 l 439 783 q 415.5 762.5 428 769 q 387 756 403 756"},"Ç":{"ha":673,"x_min":61,"x_max":628.25,"o":"m 388 -192 q 350.5 -189.5 370 -192 q 315 -180 331 -187 q 300 -167 304 -176 q 299 -149 296 -158 q 310 -135.5 302 -140 q 330 -136 318 -131 q 355.5 -143 342 -141 q 386 -145 369 -145 q 428 -135.5 412 -145 q 444 -108 444 -126 q 435 -87.5 444 -95 q 406 -80 426 -80 q 390.5 -81 398 -80 q 373 -84 383 -82 q 359 -87 364 -87 q 349 -84 354 -87 q 344.5 -74.5 345 -80 q 345 -59 344 -69 l 353 -7 q 214 35 274 0 q 100.5 160 140 79 q 61 353 61 241 q 83.5 503.5 61 437 q 148.5 616.5 106 570 q 253 688.5 191 663 q 392 714 315 714 q 510 696.5 454 714 q 607 645 566 679 q 624.5 622.5 620 635 q 625.5 598.5 629 610 q 613.5 579.5 622 587 q 593 572 605 572 q 566 582 581 572 q 487 625 530 611 q 394 639 444 639 q 260 605.5 315 639 q 177 508 205 572 q 149 353 149 444 q 177 197.5 149 262 q 260 99.5 205 133 q 394 66 315 66 q 487 80.5 443 66 q 568 124 531 95 q 595 133.5 583 134 q 615 126 607 133 q 626.5 108 623 119 q 626.5 85 630 97 q 611 64 623 73 q 513 10 569 28 q 403 -9 461 -7 l 397 -44 q 416 -42 407 -42 q 476 -60 452 -42 q 500 -110 500 -78 q 469 -169.5 500 -147 q 388 -192 438 -192"},"Ḉ":{"ha":673,"x_min":61,"x_max":628.25,"o":"m 388 -192 q 350.5 -189.5 370 -192 q 315 -180 331 -187 q 300 -167 304 -176 q 299 -149 296 -158 q 310 -135.5 302 -140 q 330 -136 318 -131 q 355.5 -143 342 -141 q 386 -145 369 -145 q 428 -135.5 412 -145 q 444 -108 444 -126 q 435 -87.5 444 -95 q 406 -80 426 -80 q 390.5 -81 398 -80 q 373 -84 383 -82 q 359 -87 364 -87 q 349 -84 354 -87 q 344.5 -74.5 345 -80 q 345 -59 344 -69 l 353 -7 q 214 35 274 0 q 100.5 160 140 79 q 61 353 61 241 q 83.5 503.5 61 437 q 148.5 616.5 106 570 q 253 688.5 191 663 q 392 714 315 714 q 510 696.5 454 714 q 607 645 566 679 q 624.5 622.5 620 635 q 625.5 598.5 629 610 q 613.5 579.5 622 587 q 593 572 605 572 q 566 582 581 572 q 487 625 530 611 q 394 639 444 639 q 260 605.5 315 639 q 177 508 205 572 q 149 353 149 444 q 177 197.5 149 262 q 260 99.5 205 133 q 394 66 315 66 q 487 80.5 443 66 q 568 124 531 95 q 595 133.5 583 134 q 615 126 607 133 q 626.5 108 623 119 q 626.5 85 630 97 q 611 64 623 73 q 513 10 569 28 q 403 -9 461 -7 l 397 -44 q 416 -42 407 -42 q 476 -60 452 -42 q 500 -110 500 -78 q 469 -169.5 500 -147 q 388 -192 438 -192 m 526 892 l 422 769 q 403.5 759.5 414 760 q 385 764.5 393 759 q 374.5 779 377 770 q 379 799 372 788 l 468 928 q 488 944 477 941 q 510 943.5 499 947 q 527.5 932 521 940 q 534.5 913.5 534 924 q 526 892 535 903"},"Ĉ":{"ha":673,"x_min":61,"x_max":628.25,"o":"m 392 -9 q 214 35 288 -9 q 100.5 160 140 79 q 61 353 61 241 q 83.5 503.5 61 437 q 148.5 616.5 106 570 q 253 688.5 191 663 q 392 714 315 714 q 510 696.5 454 714 q 607 645 566 679 q 624.5 622.5 620 635 q 625.5 598.5 629 610 q 613.5 579.5 622 587 q 593 572 605 572 q 566 582 581 572 q 487 625 530 611 q 394 639 444 639 q 260 605.5 315 639 q 177 508 205 572 q 149 353 149 444 q 177 197.5 149 262 q 260 99.5 205 133 q 394 66 315 66 q 487 80.5 443 66 q 568 124 531 95 q 595 133.5 583 134 q 615 126 607 133 q 626.5 108 623 119 q 626.5 85 630 97 q 611 64 623 73 q 512.5 9.5 569 28 q 392 -9 456 -9 m 387 884 l 291 768 q 271.5 758 282 759 q 253 762 261 757 q 243 776 245 767 q 248 795 241 785 l 336 918 q 359 939.5 346 933 q 387 946 372 946 q 415.5 939.5 403 946 q 439 918 428 933 l 526 795 q 532 776 534 785 q 521.5 762 530 767 q 502.5 758 513 757 q 484 768 492 759 l 387 884"},"Ċ":{"ha":673,"x_min":61,"x_max":628.25,"o":"m 392 -9 q 214 35 288 -9 q 100.5 160 140 79 q 61 353 61 241 q 83.5 503.5 61 437 q 148.5 616.5 106 570 q 253 688.5 191 663 q 392 714 315 714 q 510 696.5 454 714 q 607 645 566 679 q 624.5 622.5 620 635 q 625.5 598.5 629 610 q 613.5 579.5 622 587 q 593 572 605 572 q 566 582 581 572 q 487 625 530 611 q 394 639 444 639 q 260 605.5 315 639 q 177 508 205 572 q 149 353 149 444 q 177 197.5 149 262 q 260 99.5 205 133 q 394 66 315 66 q 487 80.5 443 66 q 568 124 531 95 q 595 133.5 583 134 q 615 126 607 133 q 626.5 108 623 119 q 626.5 85 630 97 q 611 64 623 73 q 512.5 9.5 569 28 q 392 -9 456 -9 m 387 803 q 351 815.5 364 803 q 338 851 338 828 q 351 886 338 874 q 387 898 364 898 q 423.5 886 411 898 q 436 851 436 874 q 423.5 815.5 436 828 q 387 803 411 803"},"D":{"ha":742,"x_min":87,"x_max":682,"o":"m 325 0 l 132 0 q 98.5 11.5 110 0 q 87 45 87 23 l 87 660 q 98.5 693.5 87 682 q 132 705 110 705 l 325 705 q 589 615 496 705 q 682 353 682 525 q 658.5 201.5 682 267 q 589 91 635 136 q 477 23 543 46 q 325 0 411 0 m 169 635 l 169 70 l 319 70 q 440.5 88 389 70 q 526.5 141 492 106 q 578 229.5 561 176 q 595 353 595 283 q 526 564.5 595 494 q 319 635 457 635 l 169 635"},"Ǆ":{"ha":1316,"x_min":87,"x_max":1301,"o":"m 325 0 l 132 0 q 98.5 11.5 110 0 q 87 45 87 23 l 87 660 q 98.5 693.5 87 682 q 132 705 110 705 l 325 705 q 589 615 496 705 q 682 353 682 525 q 658.5 201.5 682 267 q 589 91 635 136 q 477 23 543 46 q 325 0 411 0 m 169 635 l 169 70 l 319 70 q 440.5 88 389 70 q 526.5 141 492 106 q 578 229.5 561 176 q 595 353 595 283 q 526 564.5 595 494 q 319 635 457 635 l 169 635 m 1262 0 l 813 0 q 787 6.5 797 0 q 773 24.5 777 13 q 772.5 50.5 769 36 q 788 80 776 65 l 1181 634 l 807 634 q 778 643.5 788 634 q 768 670 768 653 q 778 696 768 687 q 807 705 788 705 l 1241 705 q 1267.5 698.5 1257 705 q 1281.5 681 1278 692 q 1281.5 655 1285 670 q 1267 625 1278 640 l 873 71 l 1262 71 q 1291 62 1281 71 q 1301 36 1301 53 q 1291 9 1301 18 q 1262 0 1281 0 m 1033 756 q 1005 762.5 1018 756 q 982 783 992 769 l 894 907 q 889 926.5 887 917 q 899 941 891 936 q 917.5 944.5 907 946 q 937 933 928 943 l 1033 818 l 1130 933 q 1148.5 944.5 1138 943 q 1167 941 1159 946 q 1177 926.5 1175 936 q 1172 907 1179 917 l 1085 783 q 1061.5 762.5 1074 769 q 1033 756 1049 756"},"Ð":{"ha":742,"x_min":-8,"x_max":682,"o":"m 325 0 l 132 0 q 98.5 11.5 110 0 q 87 45 87 23 l 87 326 l 25 326 q 0.5 334.5 9 326 q -8 358 -8 343 q 0.5 381.5 -8 373 q 25 390 9 390 l 87 390 l 87 660 q 98.5 693.5 87 682 q 132 705 110 705 l 325 705 q 589 615 496 705 q 682 353 682 525 q 658.5 201.5 682 267 q 589 91 635 136 q 477 23 543 46 q 325 0 411 0 m 169 326 l 169 70 l 319 70 q 440.5 88 389 70 q 526.5 141 492 106 q 578 229.5 561 176 q 595 353 595 283 q 526 564.5 595 494 q 319 635 457 635 l 169 635 l 169 390 l 340 390 q 364.5 382 356 390 q 373 358 373 374 q 364.5 334.5 373 343 q 340 326 356 326 l 169 326"},"Ď":{"ha":742,"x_min":87,"x_max":682,"o":"m 325 0 l 132 0 q 98.5 11.5 110 0 q 87 45 87 23 l 87 660 q 98.5 693.5 87 682 q 132 705 110 705 l 325 705 q 589 615 496 705 q 682 353 682 525 q 658.5 201.5 682 267 q 589 91 635 136 q 477 23 543 46 q 325 0 411 0 m 169 635 l 169 70 l 319 70 q 440.5 88 389 70 q 526.5 141 492 106 q 578 229.5 561 176 q 595 353 595 283 q 526 564.5 595 494 q 319 635 457 635 l 169 635 m 370 756 q 342 762.5 355 756 q 319 783 329 769 l 231 907 q 226 926.5 224 917 q 236 941 228 936 q 254.5 944.5 244 946 q 274 933 265 943 l 370 818 l 467 933 q 485.5 944.5 475 943 q 504 941 496 946 q 514 926.5 512 936 q 509 907 516 917 l 422 783 q 398.5 762.5 411 769 q 370 756 386 756"},"Đ":{"ha":742,"x_min":-8,"x_max":682,"o":"m 325 0 l 132 0 q 98.5 11.5 110 0 q 87 45 87 23 l 87 326 l 25 326 q 0.5 334.5 9 326 q -8 358 -8 343 q 0.5 381.5 -8 373 q 25 390 9 390 l 87 390 l 87 660 q 98.5 693.5 87 682 q 132 705 110 705 l 325 705 q 589 615 496 705 q 682 353 682 525 q 658.5 201.5 682 267 q 589 91 635 136 q 477 23 543 46 q 325 0 411 0 m 169 326 l 169 70 l 319 70 q 440.5 88 389 70 q 526.5 141 492 106 q 578 229.5 561 176 q 595 353 595 283 q 526 564.5 595 494 q 319 635 457 635 l 169 635 l 169 390 l 340 390 q 364.5 382 356 390 q 373 358 373 374 q 364.5 334.5 373 343 q 340 326 356 326 l 169 326"},"Ḍ":{"ha":742,"x_min":87,"x_max":682,"o":"m 325 0 l 132 0 q 98.5 11.5 110 0 q 87 45 87 23 l 87 660 q 98.5 693.5 87 682 q 132 705 110 705 l 325 705 q 589 615 496 705 q 682 353 682 525 q 658.5 201.5 682 267 q 589 91 635 136 q 477 23 543 46 q 325 0 411 0 m 169 635 l 169 70 l 319 70 q 440.5 88 389 70 q 526.5 141 492 106 q 578 229.5 561 176 q 595 353 595 283 q 526 564.5 595 494 q 319 635 457 635 l 169 635 m 371 -191 q 335 -178 348 -191 q 322 -143 322 -165 q 335 -108 322 -120 q 371 -96 348 -96 q 408 -108 395 -96 q 421 -143 421 -120 q 408 -178 421 -165 q 371 -191 395 -191"},"Ɗ":{"ha":867,"x_min":0,"x_max":806,"o":"m 449 0 l 256 0 q 222.5 11.5 234 0 q 211 45 211 23 l 211 642 l 179 642 q 97 616 124 642 q 70 536 70 590 l 70 516 q 66.5 499 70 507 q 55 486 63 491 q 36 481 47 481 q 16 486 24 481 q 4 499.5 8 491 q 0 517 0 508 l 0 540 q 45.5 663 0 621 q 180 705 91 705 l 449 705 q 713 615 620 705 q 806 353 806 525 q 782.5 201.5 806 267 q 713 91 759 136 q 601 23 667 46 q 449 0 535 0 m 294 635 l 294 70 l 443 70 q 564.5 88 513 70 q 650.5 141 616 106 q 702 229.5 685 176 q 719 353 719 283 q 650 564.5 719 494 q 443 635 581 635 l 294 635"},"Ḏ":{"ha":742,"x_min":87,"x_max":682,"o":"m 325 0 l 132 0 q 98.5 11.5 110 0 q 87 45 87 23 l 87 660 q 98.5 693.5 87 682 q 132 705 110 705 l 325 705 q 589 615 496 705 q 682 353 682 525 q 658.5 201.5 682 267 q 589 91 635 136 q 477 23 543 46 q 325 0 411 0 m 169 635 l 169 70 l 319 70 q 440.5 88 389 70 q 526.5 141 492 106 q 578 229.5 561 176 q 595 353 595 283 q 526 564.5 595 494 q 319 635 457 635 l 169 635 m 492 -156 l 250 -156 q 221 -129 221 -156 q 228.5 -108 221 -115 q 250 -101 236 -101 l 492 -101 q 522 -129 522 -101 q 514.5 -148.5 522 -141 q 492 -156 507 -156"},"ǅ":{"ha":1206,"x_min":87,"x_max":1183,"o":"m 325 0 l 132 0 q 98.5 11.5 110 0 q 87 45 87 23 l 87 660 q 98.5 693.5 87 682 q 132 705 110 705 l 325 705 q 589 615 496 705 q 682 353 682 525 q 658.5 201.5 682 267 q 589 91 635 136 q 477 23 543 46 q 325 0 411 0 m 169 635 l 169 70 l 319 70 q 440.5 88 389 70 q 526.5 141 492 106 q 578 229.5 561 176 q 595 353 595 283 q 526 564.5 595 494 q 319 635 457 635 l 169 635 m 1150 0 l 827 0 q 806 6 814 0 q 795 22 798 12 q 795 44 792 32 q 808 67 798 56 l 1074 423 l 823 423 q 798.5 431.5 807 423 q 790 455 790 440 q 798.5 478 790 470 q 823 486 807 486 l 1130 486 q 1154.5 480 1145 486 q 1167 464.5 1164 474 q 1167.5 443.5 1170 455 q 1156 421 1165 432 l 886 63 l 1150 63 q 1183 32 1183 63 q 1174.5 8.5 1183 17 q 1150 0 1166 0 m 981 538 q 953 546.5 965 538 q 932 571 941 555 l 849 722 q 846.5 743.5 843 734 q 858.5 757.5 850 753 q 876.5 760 867 762 q 892 748 886 758 l 981 605 l 1070 748 q 1085.5 760 1076 758 q 1103.5 757.5 1095 762 q 1115.5 743.5 1112 753 q 1113 722 1119 734 l 1030 571 q 1009 546.5 1021 555 q 981 538 997 538"},"E":{"ha":583,"x_min":87,"x_max":539,"o":"m 504 0 l 132 0 q 98.5 11.5 110 0 q 87 45 87 23 l 87 660 q 98.5 693.5 87 682 q 132 705 110 705 l 504 705 q 530 696 521 705 q 539 671 539 687 q 530 645 539 654 q 504 636 521 636 l 167 636 l 167 392 l 483 392 q 509 383.5 500 392 q 518 358 518 375 q 509 332 518 341 q 483 323 500 323 l 167 323 l 167 69 l 504 69 q 530 60 521 69 q 539 35 539 51 q 530 9 539 18 q 504 0 521 0"},"É":{"ha":583,"x_min":87,"x_max":539,"o":"m 504 0 l 132 0 q 98.5 11.5 110 0 q 87 45 87 23 l 87 660 q 98.5 693.5 87 682 q 132 705 110 705 l 504 705 q 530 696 521 705 q 539 671 539 687 q 530 645 539 654 q 504 636 521 636 l 167 636 l 167 392 l 483 392 q 509 383.5 500 392 q 518 358 518 375 q 509 332 518 341 q 483 323 500 323 l 167 323 l 167 69 l 504 69 q 530 60 521 69 q 539 35 539 51 q 530 9 539 18 q 504 0 521 0 m 463 892 l 359 769 q 340.5 759.5 351 760 q 322 764.5 330 759 q 311.5 779 314 770 q 316 799 309 788 l 405 928 q 425 944 414 941 q 447 943.5 436 947 q 464.5 932 458 940 q 471.5 913.5 471 924 q 463 892 472 903"},"Ĕ":{"ha":583,"x_min":87,"x_max":539,"o":"m 504 0 l 132 0 q 98.5 11.5 110 0 q 87 45 87 23 l 87 660 q 98.5 693.5 87 682 q 132 705 110 705 l 504 705 q 530 696 521 705 q 539 671 539 687 q 530 645 539 654 q 504 636 521 636 l 167 636 l 167 392 l 483 392 q 509 383.5 500 392 q 518 358 518 375 q 509 332 518 341 q 483 323 500 323 l 167 323 l 167 69 l 504 69 q 530 60 521 69 q 539 35 539 51 q 530 9 539 18 q 504 0 521 0 m 324 760 q 219.5 795.5 265 760 q 158 904 174 831 q 162 927 155 918 q 180 936 169 936 q 194.5 934 188 937 q 204.5 926 201 931 q 209 914 208 921 q 253 836.5 220 859 q 324 814 286 814 q 396 836.5 363 814 q 439 914 429 859 q 443.5 926 440 921 q 453.5 934 447 931 q 468 936 460 937 q 486 927 479 936 q 490 904 493 918 q 429 795.5 475 831 q 324 760 383 760"},"Ě":{"ha":583,"x_min":87,"x_max":539,"o":"m 504 0 l 132 0 q 98.5 11.5 110 0 q 87 45 87 23 l 87 660 q 98.5 693.5 87 682 q 132 705 110 705 l 504 705 q 530 696 521 705 q 539 671 539 687 q 530 645 539 654 q 504 636 521 636 l 167 636 l 167 392 l 483 392 q 509 383.5 500 392 q 518 358 518 375 q 509 332 518 341 q 483 323 500 323 l 167 323 l 167 69 l 504 69 q 530 60 521 69 q 539 35 539 51 q 530 9 539 18 q 504 0 521 0 m 324 756 q 296 762.5 309 756 q 273 783 283 769 l 185 907 q 180 926.5 178 917 q 190 941 182 936 q 208.5 944.5 198 946 q 228 933 219 943 l 324 818 l 421 933 q 439.5 944.5 429 943 q 458 941 450 946 q 468 926.5 466 936 q 463 907 470 917 l 376 783 q 352.5 762.5 365 769 q 324 756 340 756"},"Ȩ":{"ha":583,"x_min":87,"x_max":539,"o":"m 293 0 l 132 0 q 98.5 11.5 110 0 q 87 45 87 23 l 87 660 q 98.5 693.5 87 682 q 132 705 110 705 l 504 705 q 530 696 521 705 q 539 671 539 687 q 530 645 539 654 q 504 636 521 636 l 167 636 l 167 392 l 483 392 q 509 383.5 500 392 q 518 358 518 375 q 509 332 518 341 q 483 323 500 323 l 167 323 l 167 69 l 504 69 q 530 60 521 69 q 539 35 539 51 q 530 9 539 18 q 504 0 521 0 l 344 0 l 336 -44 q 355 -42 346 -42 q 415 -60 391 -42 q 439 -110 439 -78 q 408 -169.5 439 -147 q 327 -192 377 -192 q 289.5 -189.5 309 -192 q 254 -180 270 -187 q 239 -167 243 -176 q 238 -149 235 -158 q 249 -135.5 241 -140 q 269 -136 257 -131 q 294.5 -143 281 -141 q 325 -145 308 -145 q 367 -135.5 351 -145 q 383 -108 383 -126 q 374 -87.5 383 -95 q 345 -80 365 -80 q 329.5 -81 337 -80 q 312 -84 322 -82 q 298 -87 303 -87 q 288 -84 293 -87 q 283.5 -74.5 284 -80 q 284 -59 283 -69 l 293 0"},"Ḝ":{"ha":583,"x_min":87,"x_max":539,"o":"m 293 0 l 132 0 q 98.5 11.5 110 0 q 87 45 87 23 l 87 660 q 98.5 693.5 87 682 q 132 705 110 705 l 504 705 q 530 696 521 705 q 539 671 539 687 q 530 645 539 654 q 504 636 521 636 l 167 636 l 167 392 l 483 392 q 509 383.5 500 392 q 518 358 518 375 q 509 332 518 341 q 483 323 500 323 l 167 323 l 167 69 l 504 69 q 530 60 521 69 q 539 35 539 51 q 530 9 539 18 q 504 0 521 0 l 344 0 l 336 -44 q 355 -42 346 -42 q 415 -60 391 -42 q 439 -110 439 -78 q 408 -169.5 439 -147 q 327 -192 377 -192 q 289.5 -189.5 309 -192 q 254 -180 270 -187 q 239 -167 243 -176 q 238 -149 235 -158 q 249 -135.5 241 -140 q 269 -136 257 -131 q 294.5 -143 281 -141 q 325 -145 308 -145 q 367 -135.5 351 -145 q 383 -108 383 -126 q 374 -87.5 383 -95 q 345 -80 365 -80 q 329.5 -81 337 -80 q 312 -84 322 -82 q 298 -87 303 -87 q 288 -84 293 -87 q 283.5 -74.5 284 -80 q 284 -59 283 -69 l 293 0 m 324 760 q 219.5 795.5 265 760 q 158 904 174 831 q 162 927 155 918 q 180 936 169 936 q 194.5 934 188 937 q 204.5 926 201 931 q 209 914 208 921 q 253 836.5 220 859 q 324 814 286 814 q 396 836.5 363 814 q 439 914 429 859 q 443.5 926 440 921 q 453.5 934 447 931 q 468 936 460 937 q 486 927 479 936 q 490 904 493 918 q 429 795.5 475 831 q 324 760 383 760"},"Ê":{"ha":583,"x_min":87,"x_max":539,"o":"m 504 0 l 132 0 q 98.5 11.5 110 0 q 87 45 87 23 l 87 660 q 98.5 693.5 87 682 q 132 705 110 705 l 504 705 q 530 696 521 705 q 539 671 539 687 q 530 645 539 654 q 504 636 521 636 l 167 636 l 167 392 l 483 392 q 509 383.5 500 392 q 518 358 518 375 q 509 332 518 341 q 483 323 500 323 l 167 323 l 167 69 l 504 69 q 530 60 521 69 q 539 35 539 51 q 530 9 539 18 q 504 0 521 0 m 324 884 l 228 768 q 208.5 758 219 759 q 190 762 198 757 q 180 776 182 767 q 185 795 178 785 l 273 918 q 296 939.5 283 933 q 324 946 309 946 q 352.5 939.5 340 946 q 376 918 365 933 l 463 795 q 469 776 471 785 q 458.5 762 467 767 q 439.5 758 450 757 q 421 768 429 759 l 324 884"},"Ế":{"ha":583,"x_min":87,"x_max":559.53,"o":"m 504 0 l 132 0 q 98.5 11.5 110 0 q 87 45 87 23 l 87 660 q 98.5 693.5 87 682 q 132 705 110 705 l 504 705 q 530 696 521 705 q 539 671 539 687 q 530 645 539 654 q 504 636 521 636 l 167 636 l 167 392 l 483 392 q 509 383.5 500 392 q 518 358 518 375 q 509 332 518 341 q 483 323 500 323 l 167 323 l 167 69 l 504 69 q 530 60 521 69 q 539 35 539 51 q 530 9 539 18 q 504 0 521 0 m 324 875 l 235 768 q 216.5 757.5 226 759 q 200 760.5 207 756 q 191 774.5 193 765 q 196 794 189 784 l 274 909 q 296.5 931 284 925 q 324 937 309 937 q 343 934.5 334 937 q 360 926 352 932 q 374 909 368 920 l 452 794 q 457.5 774.5 459 784 q 449 760.5 456 765 q 432 757.5 442 756 q 413 768 422 759 l 324 875 m 552 980 l 467 864 q 451.5 855 460 856 q 436 858.5 443 854 q 427 871.5 429 863 q 431 891 425 880 l 500 1010 q 517 1026.5 507 1023 q 536.5 1027.5 527 1030 q 552.5 1018 546 1025 q 559.5 1000.5 559 1011 q 552 980 560 990"},"Ệ":{"ha":583,"x_min":87,"x_max":539,"o":"m 504 0 l 132 0 q 98.5 11.5 110 0 q 87 45 87 23 l 87 660 q 98.5 693.5 87 682 q 132 705 110 705 l 504 705 q 530 696 521 705 q 539 671 539 687 q 530 645 539 654 q 504 636 521 636 l 167 636 l 167 392 l 483 392 q 509 383.5 500 392 q 518 358 518 375 q 509 332 518 341 q 483 323 500 323 l 167 323 l 167 69 l 504 69 q 530 60 521 69 q 539 35 539 51 q 530 9 539 18 q 504 0 521 0 m 324 -191 q 288 -178 301 -191 q 275 -143 275 -165 q 288 -108 275 -120 q 324 -96 301 -96 q 361 -108 348 -96 q 374 -143 374 -120 q 361 -178 374 -165 q 324 -191 348 -191 m 324 884 l 228 768 q 208.5 758 219 759 q 190 762 198 757 q 180 776 182 767 q 185 795 178 785 l 273 918 q 296 939.5 283 933 q 324 946 309 946 q 352.5 939.5 340 946 q 376 918 365 933 l 463 795 q 469 776 471 785 q 458.5 762 467 767 q 439.5 758 450 757 q 421 768 429 759 l 324 884"},"Ề":{"ha":583,"x_min":87,"x_max":539,"o":"m 504 0 l 132 0 q 98.5 11.5 110 0 q 87 45 87 23 l 87 660 q 98.5 693.5 87 682 q 132 705 110 705 l 504 705 q 530 696 521 705 q 539 671 539 687 q 530 645 539 654 q 504 636 521 636 l 167 636 l 167 392 l 483 392 q 509 383.5 500 392 q 518 358 518 375 q 509 332 518 341 q 483 323 500 323 l 167 323 l 167 69 l 504 69 q 530 60 521 69 q 539 35 539 51 q 530 9 539 18 q 504 0 521 0 m 324 875 l 235 768 q 216.5 757.5 226 759 q 200 760.5 207 756 q 191 774.5 193 765 q 196 794 189 784 l 274 909 q 296.5 931 284 925 q 324 937 309 937 q 343 934.5 334 937 q 360 926 352 932 q 374 909 368 920 l 452 794 q 457.5 774.5 459 784 q 449 760.5 456 765 q 432 757.5 442 756 q 413 768 422 759 l 324 875 m 462 864 l 376 980 q 369.5 1000.5 369 990 q 376.5 1018 370 1011 q 392.5 1027.5 383 1025 q 411.5 1026.5 402 1030 q 429 1010 421 1023 l 498 891 q 502 871.5 504 880 q 493 858.5 500 863 q 477 855 486 854 q 462 864 468 856"},"Ể":{"ha":583,"x_min":87,"x_max":544,"o":"m 504 0 l 132 0 q 98.5 11.5 110 0 q 87 45 87 23 l 87 660 q 98.5 693.5 87 682 q 132 705 110 705 l 504 705 q 530 696 521 705 q 539 671 539 687 q 530 645 539 654 q 504 636 521 636 l 167 636 l 167 392 l 483 392 q 509 383.5 500 392 q 518 358 518 375 q 509 332 518 341 q 483 323 500 323 l 167 323 l 167 69 l 504 69 q 530 60 521 69 q 539 35 539 51 q 530 9 539 18 q 504 0 521 0 m 324 875 l 235 768 q 216.5 757.5 226 759 q 200 760.5 207 756 q 191 774.5 193 765 q 196 794 189 784 l 274 909 q 296.5 931 284 925 q 324 937 309 937 q 343 934.5 334 937 q 360 926 352 932 q 374 909 368 920 l 452 794 q 457.5 774.5 459 784 q 449 760.5 456 765 q 432 757.5 442 756 q 413 768 422 759 l 324 875 m 463 865 q 441 862.5 451 859 q 429 875.5 431 866 q 439 893 427 885 q 473 921.5 461 908 q 485 951 485 935 q 474.5 972.5 485 966 q 440 979 464 979 q 421.5 978 431 979 q 401 974 412 977 q 381 974 389 971 q 370 986 373 977 q 372 1002.5 368 996 q 388 1013 376 1009 q 420 1020 403 1018 q 455 1022 437 1022 q 520.5 1008 497 1022 q 544 963 544 994 q 532 923.5 544 942 q 501.5 890.5 520 905 q 463 865 483 876"},"Ễ":{"ha":583,"x_min":87,"x_max":539,"o":"m 504 0 l 132 0 q 98.5 11.5 110 0 q 87 45 87 23 l 87 660 q 98.5 693.5 87 682 q 132 705 110 705 l 504 705 q 530 696 521 705 q 539 671 539 687 q 530 645 539 654 q 504 636 521 636 l 167 636 l 167 392 l 483 392 q 509 383.5 500 392 q 518 358 518 375 q 509 332 518 341 q 483 323 500 323 l 167 323 l 167 69 l 504 69 q 530 60 521 69 q 539 35 539 51 q 530 9 539 18 q 504 0 521 0 m 324 850 l 230 765 q 207 757.5 219 755 q 191.5 770 195 760 q 198 791 188 780 l 271 879 q 296.5 898.5 284 893 q 324 904 309 904 q 344 901.5 335 904 q 361 893.5 353 899 q 377 879 369 888 l 450 791 q 457 774.5 458 783 q 450.5 761 456 766 q 436 756.5 445 756 q 418 765 427 757 l 324 850 m 189 920 q 173.5 929 179 921 q 171 951 168 937 q 203 1006 180 988 q 260 1024 226 1024 q 308 1011 287 1024 q 348 985 329 998 q 387 972 367 972 q 416 979.5 404 972 q 432 1005 428 987 q 442 1021.5 435 1016 q 460 1026 449 1027 q 475.5 1017.5 470 1025 q 478 996 481 1010 q 445.5 940.5 469 959 q 389 922 422 922 q 340.5 935 362 922 q 300.5 961 319 948 q 261 974 282 974 q 232.5 966.5 244 974 q 216 941 221 959 q 206.5 925 213 931 q 189 920 200 919"},"Ȅ":{"ha":583,"x_min":87,"x_max":539,"o":"m 504 0 l 132 0 q 98.5 11.5 110 0 q 87 45 87 23 l 87 660 q 98.5 693.5 87 682 q 132 705 110 705 l 504 705 q 530 696 521 705 q 539 671 539 687 q 530 645 539 654 q 504 636 521 636 l 167 636 l 167 392 l 483 392 q 509 383.5 500 392 q 518 358 518 375 q 509 332 518 341 q 483 323 500 323 l 167 323 l 167 69 l 504 69 q 530 60 521 69 q 539 35 539 51 q 530 9 539 18 q 504 0 521 0 m 360 769 l 275 895 q 267.5 917.5 266 907 q 276 935 269 928 q 293.5 944.5 283 942 q 314.5 942.5 304 947 q 331 925 325 938 l 400 789 q 402 771 405 779 q 391.5 759.5 399 763 q 375.5 758 384 756 q 360 769 367 760 m 235 768 l 146 895 q 138 917.5 137 907 q 146 935 139 928 q 163.5 944.5 153 942 q 184 943 174 947 q 201 925 194 939 l 271 790 q 274 772.5 276 781 q 265 760 272 764 q 250 757.5 258 756 q 235 768 242 759"},"Ë":{"ha":583,"x_min":87,"x_max":539,"o":"m 504 0 l 132 0 q 98.5 11.5 110 0 q 87 45 87 23 l 87 660 q 98.5 693.5 87 682 q 132 705 110 705 l 504 705 q 530 696 521 705 q 539 671 539 687 q 530 645 539 654 q 504 636 521 636 l 167 636 l 167 392 l 483 392 q 509 383.5 500 392 q 518 358 518 375 q 509 332 518 341 q 483 323 500 323 l 167 323 l 167 69 l 504 69 q 530 60 521 69 q 539 35 539 51 q 530 9 539 18 q 504 0 521 0 m 412 802 q 376.5 814 389 802 q 364 849 364 826 q 376.5 883 364 871 q 412 895 389 895 q 446 883 434 895 q 458 849 458 871 q 446 814 458 826 q 412 802 434 802 m 237 802 q 202.5 814 215 802 q 190 849 190 826 q 202.5 883 190 871 q 237 895 215 895 q 272 883 260 895 q 284 849 284 871 q 272 814 284 826 q 237 802 260 802"},"Ė":{"ha":583,"x_min":87,"x_max":539,"o":"m 504 0 l 132 0 q 98.5 11.5 110 0 q 87 45 87 23 l 87 660 q 98.5 693.5 87 682 q 132 705 110 705 l 504 705 q 530 696 521 705 q 539 671 539 687 q 530 645 539 654 q 504 636 521 636 l 167 636 l 167 392 l 483 392 q 509 383.5 500 392 q 518 358 518 375 q 509 332 518 341 q 483 323 500 323 l 167 323 l 167 69 l 504 69 q 530 60 521 69 q 539 35 539 51 q 530 9 539 18 q 504 0 521 0 m 324 803 q 288 815.5 301 803 q 275 851 275 828 q 288 886 275 874 q 324 898 301 898 q 360.5 886 348 898 q 373 851 373 874 q 360.5 815.5 373 828 q 324 803 348 803"},"Ẹ":{"ha":583,"x_min":87,"x_max":539,"o":"m 504 0 l 132 0 q 98.5 11.5 110 0 q 87 45 87 23 l 87 660 q 98.5 693.5 87 682 q 132 705 110 705 l 504 705 q 530 696 521 705 q 539 671 539 687 q 530 645 539 654 q 504 636 521 636 l 167 636 l 167 392 l 483 392 q 509 383.5 500 392 q 518 358 518 375 q 509 332 518 341 q 483 323 500 323 l 167 323 l 167 69 l 504 69 q 530 60 521 69 q 539 35 539 51 q 530 9 539 18 q 504 0 521 0 m 324 -191 q 288 -178 301 -191 q 275 -143 275 -165 q 288 -108 275 -120 q 324 -96 301 -96 q 361 -108 348 -96 q 374 -143 374 -120 q 361 -178 374 -165 q 324 -191 348 -191"},"È":{"ha":583,"x_min":87,"x_max":539,"o":"m 504 0 l 132 0 q 98.5 11.5 110 0 q 87 45 87 23 l 87 660 q 98.5 693.5 87 682 q 132 705 110 705 l 504 705 q 530 696 521 705 q 539 671 539 687 q 530 645 539 654 q 504 636 521 636 l 167 636 l 167 392 l 483 392 q 509 383.5 500 392 q 518 358 518 375 q 509 332 518 341 q 483 323 500 323 l 167 323 l 167 69 l 504 69 q 530 60 521 69 q 539 35 539 51 q 530 9 539 18 q 504 0 521 0 m 289 769 l 185 892 q 176.5 913.5 176 903 q 184 932 177 924 q 201.5 943.5 191 940 q 223.5 944 212 947 q 243 928 235 941 l 332 799 q 336.5 779 339 788 q 326 764.5 334 770 q 308 759.5 318 759 q 289 769 298 760"},"Ẻ":{"ha":583,"x_min":87,"x_max":539,"o":"m 504 0 l 132 0 q 98.5 11.5 110 0 q 87 45 87 23 l 87 660 q 98.5 693.5 87 682 q 132 705 110 705 l 504 705 q 530 696 521 705 q 539 671 539 687 q 530 645 539 654 q 504 636 521 636 l 167 636 l 167 392 l 483 392 q 509 383.5 500 392 q 518 358 518 375 q 509 332 518 341 q 483 323 500 323 l 167 323 l 167 69 l 504 69 q 530 60 521 69 q 539 35 539 51 q 530 9 539 18 q 504 0 521 0 m 324 758 q 303.5 763.5 311 758 q 296 781 296 769 q 305.5 813.5 296 801 q 327.5 835 315 826 q 349.5 852 340 844 q 359 872 359 860 q 347.5 889 359 883 q 313 895 336 895 q 293 894 304 895 q 272 889 282 893 q 248.5 887 257 885 q 237 900 240 889 q 238 918 234 910 q 254 931 242 926 q 289.5 940 270 937 q 329 943 309 943 q 399.5 926 374 943 q 425 881 425 909 q 414 847 425 860 q 388.5 825.5 403 834 q 363 806 374 817 q 352 776 352 795 q 345 763 352 768 q 324 758 338 758"},"Ȇ":{"ha":583,"x_min":87,"x_max":539,"o":"m 504 0 l 132 0 q 98.5 11.5 110 0 q 87 45 87 23 l 87 660 q 98.5 693.5 87 682 q 132 705 110 705 l 504 705 q 530 696 521 705 q 539 671 539 687 q 530 645 539 654 q 504 636 521 636 l 167 636 l 167 392 l 483 392 q 509 383.5 500 392 q 518 358 518 375 q 509 332 518 341 q 483 323 500 323 l 167 323 l 167 69 l 504 69 q 530 60 521 69 q 539 35 539 51 q 530 9 539 18 q 504 0 521 0 m 180 759 q 162 768.5 169 760 q 158 792 155 777 q 219.5 900 174 865 q 324 935 265 935 q 429 900 383 935 q 490 792 475 865 q 486 768.5 493 777 q 468 759 479 760 q 453.5 761 460 758 q 443.5 769.5 447 764 q 439 782 440 775 q 395 858.5 427 836 q 324 881 363 881 q 253.5 858.5 286 881 q 209 782 221 836 q 204.5 769.5 208 775 q 194.5 761 201 764 q 180 759 188 758"},"Ē":{"ha":583,"x_min":87,"x_max":539,"o":"m 504 0 l 132 0 q 98.5 11.5 110 0 q 87 45 87 23 l 87 660 q 98.5 693.5 87 682 q 132 705 110 705 l 504 705 q 530 696 521 705 q 539 671 539 687 q 530 645 539 654 q 504 636 521 636 l 167 636 l 167 392 l 483 392 q 509 383.5 500 392 q 518 358 518 375 q 509 332 518 341 q 483 323 500 323 l 167 323 l 167 69 l 504 69 q 530 60 521 69 q 539 35 539 51 q 530 9 539 18 q 504 0 521 0 m 460 814 l 188 814 q 159 842 159 814 q 166.5 862 159 855 q 188 869 174 869 l 460 869 q 490 842 490 869 q 482.5 821.5 490 829 q 460 814 475 814"},"Ḗ":{"ha":583,"x_min":87,"x_max":539,"o":"m 504 0 l 132 0 q 98.5 11.5 110 0 q 87 45 87 23 l 87 660 q 98.5 693.5 87 682 q 132 705 110 705 l 504 705 q 530 696 521 705 q 539 671 539 687 q 530 645 539 654 q 504 636 521 636 l 167 636 l 167 392 l 483 392 q 509 383.5 500 392 q 518 358 518 375 q 509 332 518 341 q 483 323 500 323 l 167 323 l 167 69 l 504 69 q 530 60 521 69 q 539 35 539 51 q 530 9 539 18 q 504 0 521 0 m 445 790 l 203 790 q 180.5 797 189 790 q 172 817 172 804 q 180.5 837.5 172 830 q 203 845 189 845 l 445 845 q 468 837.5 460 845 q 476 817 476 830 q 468 797 476 804 q 445 790 460 790 m 436 986 l 351 880 q 334.5 870.5 344 871 q 317.5 874.5 325 870 q 307.5 888 310 879 q 311 908 305 897 l 378 1017 q 397 1034.5 386 1030 q 418.5 1036 408 1039 q 436 1025.5 429 1033 q 444 1007.5 443 1018 q 436 986 445 997"},"Ḕ":{"ha":583,"x_min":87,"x_max":539,"o":"m 504 0 l 132 0 q 98.5 11.5 110 0 q 87 45 87 23 l 87 660 q 98.5 693.5 87 682 q 132 705 110 705 l 504 705 q 530 696 521 705 q 539 671 539 687 q 530 645 539 654 q 504 636 521 636 l 167 636 l 167 392 l 483 392 q 509 383.5 500 392 q 518 358 518 375 q 509 332 518 341 q 483 323 500 323 l 167 323 l 167 69 l 504 69 q 530 60 521 69 q 539 35 539 51 q 530 9 539 18 q 504 0 521 0 m 297 880 l 212 986 q 204 1007.5 203 997 q 212 1025.5 205 1018 q 229.5 1036 219 1033 q 251 1034.5 240 1039 q 270 1017 262 1030 l 337 908 q 340.5 888 343 897 q 330.5 874.5 338 879 q 313.5 870.5 323 870 q 297 880 304 871 m 445 790 l 203 790 q 180.5 797 189 790 q 172 817 172 804 q 180.5 837.5 172 830 q 203 845 189 845 l 445 845 q 468 837.5 460 845 q 476 817 476 830 q 468 797 476 804 q 445 790 460 790"},"Ę":{"ha":583,"x_min":87,"x_max":551.91,"o":"m 412 0 l 132 0 q 98.5 11.5 110 0 q 87 45 87 23 l 87 660 q 98.5 693.5 87 682 q 132 705 110 705 l 504 705 q 530 696 521 705 q 539 671 539 687 q 530 645 539 654 q 504 636 521 636 l 167 636 l 167 392 l 483 392 q 509 383.5 500 392 q 518 358 518 375 q 509 332 518 341 q 483 323 500 323 l 167 323 l 167 69 l 504 69 q 530 60 521 69 q 539 35 539 51 q 530 9 539 18 q 504 0 521 0 l 494 0 q 463.5 -18.5 479 -6 q 438 -48 448 -31 q 428 -86 428 -65 q 444.5 -128 428 -114 q 486 -142 461 -142 q 503.5 -140.5 495 -142 q 521 -136 512 -139 q 542 -137 534 -132 q 551.5 -151.5 550 -142 q 549 -170 553 -161 q 534 -183 545 -179 q 504 -190.5 519 -189 q 475 -192 489 -192 q 399 -166 428 -192 q 370 -95 370 -140 q 396 -19 370 -55 q 412 0 403 -9"},"Ẽ":{"ha":583,"x_min":87,"x_max":539,"o":"m 504 0 l 132 0 q 98.5 11.5 110 0 q 87 45 87 23 l 87 660 q 98.5 693.5 87 682 q 132 705 110 705 l 504 705 q 530 696 521 705 q 539 671 539 687 q 530 645 539 654 q 504 636 521 636 l 167 636 l 167 392 l 483 392 q 509 383.5 500 392 q 518 358 518 375 q 509 332 518 341 q 483 323 500 323 l 167 323 l 167 69 l 504 69 q 530 60 521 69 q 539 35 539 51 q 530 9 539 18 q 504 0 521 0 m 140 780 q 122.5 787.5 129 780 q 118 808 116 795 q 159.5 890 128 861 q 235 919 191 919 q 286 907.5 262 919 q 332.5 881 310 896 q 375.5 854.5 355 866 q 416 843 396 843 q 460 860 443 843 q 482 905 477 877 q 491.5 921 485 916 q 508 925 498 926 q 526 917.5 519 925 q 530 897 533 910 q 489.5 815 520 844 q 414 786 459 786 q 362.5 797.5 387 786 q 316 823.5 338 809 q 273 850 294 838 q 232 862 252 862 q 188.5 845 206 862 q 166 800 171 828 q 156.5 784.5 163 790 q 140 780 150 779"},"Ə":{"ha":767,"x_min":61,"x_max":707,"o":"m 389 -9 q 246 17 308 -9 q 143 91 184 43 q 81.5 206 102 139 q 61 354 61 273 q 68.5 381.5 61 373 q 92 390 76 390 l 619 390 q 589 510 614 459 q 499 607.5 558 574 q 354 641 440 641 q 241.5 626.5 291 641 q 147 579 192 612 q 121.5 572 133 571 q 102.5 580.5 110 573 q 92.5 599 95 588 q 93.5 621 90 610 q 110 641 97 632 q 222.5 695.5 158 677 q 362 714 287 714 q 545 670 468 714 q 664.5 545.5 622 626 q 707 353 707 465 q 684.5 202 707 269 q 620 88.5 662 135 q 519.5 16.5 578 42 q 389 -9 461 -9 m 619 321 l 147 321 q 173 194 151 247 q 252.5 96 199 129 q 386 63 306 63 q 512 97 460 63 q 592 196 564 131 q 619 321 615 249"},"F":{"ha":548,"x_min":87,"x_max":530,"o":"m 131 -7 q 98.5 4.5 110 -7 q 87 38 87 16 l 87 660 q 98.5 693.5 87 682 q 132 705 110 705 l 495 705 q 521 696 512 705 q 530 671 530 687 q 521 645 530 654 q 495 636 512 636 l 169 636 l 169 390 l 474 390 q 500.5 381 491 390 q 510 356 510 372 q 500.5 330 510 339 q 474 321 491 321 l 169 321 l 169 38 q 131 -7 169 -7"},"G":{"ha":726,"x_min":61,"x_max":645,"o":"m 409 -9 q 218.5 34 296 -9 q 101 158 141 77 q 61 352 61 239 q 83.5 503 61 436 q 149.5 616.5 106 570 q 255.5 688.5 193 663 q 397 714 318 714 q 519 696.5 460 714 q 624 641 578 679 q 639 621 636 632 q 638.5 599 642 610 q 627.5 580.5 635 588 q 608.5 572 620 573 q 585 579 597 571 q 498 625.5 544 611 q 396 640 452 640 q 260.5 606 316 640 q 176.5 508 205 572 q 148 352 148 444 q 213.5 138 148 212 q 411 64 279 64 q 505 74 459 64 q 574 93 541 81 l 574 302 l 431 302 q 404 311 413 302 q 395 335 395 320 q 404 359 395 351 q 431 367 413 367 l 610 367 q 636 358 627 367 q 645 332 645 349 l 645 71 q 640 46 645 56 q 623 31 635 36 q 522.5 2.5 581 14 q 409 -9 464 -9"},"Ğ":{"ha":726,"x_min":61,"x_max":645,"o":"m 409 -9 q 218.5 34 296 -9 q 101 158 141 77 q 61 352 61 239 q 83.5 503 61 436 q 149.5 616.5 106 570 q 255.5 688.5 193 663 q 397 714 318 714 q 519 696.5 460 714 q 624 641 578 679 q 639 621 636 632 q 638.5 599 642 610 q 627.5 580.5 635 588 q 608.5 572 620 573 q 585 579 597 571 q 498 625.5 544 611 q 396 640 452 640 q 260.5 606 316 640 q 176.5 508 205 572 q 148 352 148 444 q 213.5 138 148 212 q 411 64 279 64 q 505 74 459 64 q 574 93 541 81 l 574 302 l 431 302 q 404 311 413 302 q 395 335 395 320 q 404 359 395 351 q 431 367 413 367 l 610 367 q 636 358 627 367 q 645 332 645 349 l 645 71 q 640 46 645 56 q 623 31 635 36 q 522.5 2.5 581 14 q 409 -9 464 -9 m 391 760 q 286.5 795.5 332 760 q 225 904 241 831 q 229 927 222 918 q 247 936 236 936 q 261.5 934 255 937 q 271.5 926 268 931 q 276 914 275 921 q 320 836.5 287 859 q 391 814 353 814 q 463 836.5 430 814 q 506 914 496 859 q 510.5 926 507 921 q 520.5 934 514 931 q 535 936 527 937 q 553 927 546 936 q 557 904 560 918 q 496 795.5 542 831 q 391 760 450 760"},"Ǧ":{"ha":726,"x_min":61,"x_max":645,"o":"m 409 -9 q 218.5 34 296 -9 q 101 158 141 77 q 61 352 61 239 q 83.5 503 61 436 q 149.5 616.5 106 570 q 255.5 688.5 193 663 q 397 714 318 714 q 519 696.5 460 714 q 624 641 578 679 q 639 621 636 632 q 638.5 599 642 610 q 627.5 580.5 635 588 q 608.5 572 620 573 q 585 579 597 571 q 498 625.5 544 611 q 396 640 452 640 q 260.5 606 316 640 q 176.5 508 205 572 q 148 352 148 444 q 213.5 138 148 212 q 411 64 279 64 q 505 74 459 64 q 574 93 541 81 l 574 302 l 431 302 q 404 311 413 302 q 395 335 395 320 q 404 359 395 351 q 431 367 413 367 l 610 367 q 636 358 627 367 q 645 332 645 349 l 645 71 q 640 46 645 56 q 623 31 635 36 q 522.5 2.5 581 14 q 409 -9 464 -9 m 391 756 q 363 762.5 376 756 q 340 783 350 769 l 252 907 q 247 926.5 245 917 q 257 941 249 936 q 275.5 944.5 265 946 q 295 933 286 943 l 391 818 l 488 933 q 506.5 944.5 496 943 q 525 941 517 946 q 535 926.5 533 936 q 530 907 537 917 l 443 783 q 419.5 762.5 432 769 q 391 756 407 756"},"Ĝ":{"ha":726,"x_min":61,"x_max":645,"o":"m 409 -9 q 218.5 34 296 -9 q 101 158 141 77 q 61 352 61 239 q 83.5 503 61 436 q 149.5 616.5 106 570 q 255.5 688.5 193 663 q 397 714 318 714 q 519 696.5 460 714 q 624 641 578 679 q 639 621 636 632 q 638.5 599 642 610 q 627.5 580.5 635 588 q 608.5 572 620 573 q 585 579 597 571 q 498 625.5 544 611 q 396 640 452 640 q 260.5 606 316 640 q 176.5 508 205 572 q 148 352 148 444 q 213.5 138 148 212 q 411 64 279 64 q 505 74 459 64 q 574 93 541 81 l 574 302 l 431 302 q 404 311 413 302 q 395 335 395 320 q 404 359 395 351 q 431 367 413 367 l 610 367 q 636 358 627 367 q 645 332 645 349 l 645 71 q 640 46 645 56 q 623 31 635 36 q 522.5 2.5 581 14 q 409 -9 464 -9 m 391 884 l 295 768 q 275.5 758 286 759 q 257 762 265 757 q 247 776 249 767 q 252 795 245 785 l 340 918 q 363 939.5 350 933 q 391 946 376 946 q 419.5 939.5 407 946 q 443 918 432 933 l 530 795 q 536 776 538 785 q 525.5 762 534 767 q 506.5 758 517 757 q 488 768 496 759 l 391 884"},"Ģ":{"ha":726,"x_min":61,"x_max":645,"o":"m 409 -9 q 218.5 34 296 -9 q 101 158 141 77 q 61 352 61 239 q 83.5 503 61 436 q 149.5 616.5 106 570 q 255.5 688.5 193 663 q 397 714 318 714 q 519 696.5 460 714 q 624 641 578 679 q 639 621 636 632 q 638.5 599 642 610 q 627.5 580.5 635 588 q 608.5 572 620 573 q 585 579 597 571 q 498 625.5 544 611 q 396 640 452 640 q 260.5 606 316 640 q 176.5 508 205 572 q 148 352 148 444 q 213.5 138 148 212 q 411 64 279 64 q 505 74 459 64 q 574 93 541 81 l 574 302 l 431 302 q 404 311 413 302 q 395 335 395 320 q 404 359 395 351 q 431 367 413 367 l 610 367 q 636 358 627 367 q 645 332 645 349 l 645 71 q 640 46 645 56 q 623 31 635 36 q 522.5 2.5 581 14 q 409 -9 464 -9 m 412 -250 q 393.5 -262 403 -260 q 376.5 -258.5 384 -264 q 368.5 -244 369 -253 q 376 -222 368 -235 q 393 -189 387 -207 q 397 -171 395 -180 q 361 -158 374 -170 q 346 -123 346 -145 q 359.5 -88 346 -101 q 397 -75 373 -75 q 435.5 -89.5 422 -75 q 449 -133 449 -104 q 445 -173 449 -152 q 433 -214 441 -194 q 412 -250 425 -234"},"Ġ":{"ha":726,"x_min":61,"x_max":645,"o":"m 409 -9 q 218.5 34 296 -9 q 101 158 141 77 q 61 352 61 239 q 83.5 503 61 436 q 149.5 616.5 106 570 q 255.5 688.5 193 663 q 397 714 318 714 q 519 696.5 460 714 q 624 641 578 679 q 639 621 636 632 q 638.5 599 642 610 q 627.5 580.5 635 588 q 608.5 572 620 573 q 585 579 597 571 q 498 625.5 544 611 q 396 640 452 640 q 260.5 606 316 640 q 176.5 508 205 572 q 148 352 148 444 q 213.5 138 148 212 q 411 64 279 64 q 505 74 459 64 q 574 93 541 81 l 574 302 l 431 302 q 404 311 413 302 q 395 335 395 320 q 404 359 395 351 q 431 367 413 367 l 610 367 q 636 358 627 367 q 645 332 645 349 l 645 71 q 640 46 645 56 q 623 31 635 36 q 522.5 2.5 581 14 q 409 -9 464 -9 m 391 803 q 355 815.5 368 803 q 342 851 342 828 q 355 886 342 874 q 391 898 368 898 q 427.5 886 415 898 q 440 851 440 874 q 427.5 815.5 440 828 q 391 803 415 803"},"Ḡ":{"ha":726,"x_min":61,"x_max":645,"o":"m 409 -9 q 218.5 34 296 -9 q 101 158 141 77 q 61 352 61 239 q 83.5 503 61 436 q 149.5 616.5 106 570 q 255.5 688.5 193 663 q 397 714 318 714 q 519 696.5 460 714 q 624 641 578 679 q 639 621 636 632 q 638.5 599 642 610 q 627.5 580.5 635 588 q 608.5 572 620 573 q 585 579 597 571 q 498 625.5 544 611 q 396 640 452 640 q 260.5 606 316 640 q 176.5 508 205 572 q 148 352 148 444 q 213.5 138 148 212 q 411 64 279 64 q 505 74 459 64 q 574 93 541 81 l 574 302 l 431 302 q 404 311 413 302 q 395 335 395 320 q 404 359 395 351 q 431 367 413 367 l 610 367 q 636 358 627 367 q 645 332 645 349 l 645 71 q 640 46 645 56 q 623 31 635 36 q 522.5 2.5 581 14 q 409 -9 464 -9 m 527 814 l 255 814 q 226 842 226 814 q 233.5 862 226 855 q 255 869 241 869 l 527 869 q 557 842 557 869 q 549.5 821.5 557 829 q 527 814 542 814"},"H":{"ha":761,"x_min":87,"x_max":674,"o":"m 128 -7 q 97.5 4.5 108 -7 q 87 36 87 16 l 87 669 q 97.5 701 87 690 q 128 712 108 712 q 158.5 701 148 712 q 169 669 169 690 l 169 393 l 592 393 l 592 669 q 602.5 701 592 690 q 633 712 613 712 q 663.5 701 653 712 q 674 669 674 690 l 674 36 q 663.5 4.5 674 16 q 633 -7 653 -7 q 602.5 4.5 613 -7 q 592 36 592 16 l 592 322 l 169 322 l 169 36 q 159 4.5 169 16 q 128 -7 149 -7"},"Ħ":{"ha":798,"x_min":8,"x_max":791,"o":"m 147 -7 q 116 4.5 127 -7 q 105 36 105 16 l 105 519 l 42 519 q 8 552 8 519 q 17 575.5 8 567 q 42 584 26 584 l 105 584 l 105 669 q 116 701 105 690 q 147 712 127 712 q 177.5 701 167 712 q 188 669 188 690 l 188 584 l 610 584 l 610 669 q 621 701 610 690 q 652 712 632 712 q 682.5 701 672 712 q 693 669 693 690 l 693 584 l 756 584 q 791 552 791 584 q 782 528 791 537 q 756 519 773 519 l 693 519 l 693 36 q 682.5 4.5 693 16 q 652 -7 672 -7 q 621 4.5 632 -7 q 610 36 610 16 l 610 317 l 188 317 l 188 36 q 178 4.5 188 16 q 147 -7 168 -7 m 188 519 l 188 388 l 610 388 l 610 519 l 188 519"},"Ḫ":{"ha":761,"x_min":87,"x_max":674,"o":"m 128 -7 q 97.5 4.5 108 -7 q 87 36 87 16 l 87 669 q 97.5 701 87 690 q 128 712 108 712 q 158.5 701 148 712 q 169 669 169 690 l 169 393 l 592 393 l 592 669 q 602.5 701 592 690 q 633 712 613 712 q 663.5 701 653 712 q 674 669 674 690 l 674 36 q 663.5 4.5 674 16 q 633 -7 653 -7 q 602.5 4.5 613 -7 q 592 36 592 16 l 592 322 l 169 322 l 169 36 q 159 4.5 169 16 q 128 -7 149 -7 m 381 -215 q 281 -182 321 -215 q 230 -90 241 -149 q 233 -65.5 227 -74 q 251 -56 239 -57 q 264 -57 258 -55 q 274 -64.5 270 -59 q 280 -79 278 -70 q 314.5 -139.5 288 -118 q 381 -161 341 -161 q 448 -139.5 422 -161 q 482 -79 474 -118 q 492.5 -59.5 485 -65 q 511 -56 500 -54 q 530 -65.5 524 -57 q 532 -90 536 -74 q 481 -182 521 -149 q 381 -215 441 -215"},"Ĥ":{"ha":761,"x_min":87,"x_max":674,"o":"m 128 -7 q 97.5 4.5 108 -7 q 87 36 87 16 l 87 669 q 97.5 701 87 690 q 128 712 108 712 q 158.5 701 148 712 q 169 669 169 690 l 169 393 l 592 393 l 592 669 q 602.5 701 592 690 q 633 712 613 712 q 663.5 701 653 712 q 674 669 674 690 l 674 36 q 663.5 4.5 674 16 q 633 -7 653 -7 q 602.5 4.5 613 -7 q 592 36 592 16 l 592 322 l 169 322 l 169 36 q 159 4.5 169 16 q 128 -7 149 -7 m 380 884 l 284 768 q 264.5 758 275 759 q 246 762 254 757 q 236 776 238 767 q 241 795 234 785 l 329 918 q 352 939.5 339 933 q 380 946 365 946 q 408.5 939.5 396 946 q 432 918 421 933 l 519 795 q 525 776 527 785 q 514.5 762 523 767 q 495.5 758 506 757 q 477 768 485 759 l 380 884"},"Ḥ":{"ha":761,"x_min":87,"x_max":674,"o":"m 128 -7 q 97.5 4.5 108 -7 q 87 36 87 16 l 87 669 q 97.5 701 87 690 q 128 712 108 712 q 158.5 701 148 712 q 169 669 169 690 l 169 393 l 592 393 l 592 669 q 602.5 701 592 690 q 633 712 613 712 q 663.5 701 653 712 q 674 669 674 690 l 674 36 q 663.5 4.5 674 16 q 633 -7 653 -7 q 602.5 4.5 613 -7 q 592 36 592 16 l 592 322 l 169 322 l 169 36 q 159 4.5 169 16 q 128 -7 149 -7 m 381 -191 q 345 -178 358 -191 q 332 -143 332 -165 q 345 -108 332 -120 q 381 -96 358 -96 q 418 -108 405 -96 q 431 -143 431 -120 q 418 -178 431 -165 q 381 -191 405 -191"},"I":{"ha":257,"x_min":87,"x_max":169,"o":"m 128 -7 q 97.5 4.5 108 -7 q 87 36 87 16 l 87 669 q 97.5 701 87 690 q 128 712 108 712 q 158.5 701 148 712 q 169 669 169 690 l 169 36 q 159 4.5 169 16 q 128 -7 149 -7"},"Ĳ":{"ha":580,"x_min":87,"x_max":494,"o":"m 128 -7 q 97.5 4.5 108 -7 q 87 36 87 16 l 87 669 q 97.5 701 87 690 q 128 712 108 712 q 158.5 701 148 712 q 169 669 169 690 l 169 36 q 159 4.5 169 16 q 128 -7 149 -7 m 318 -3 l 285 -6 q 255.5 4 266 -7 q 245 31 245 15 q 252.5 53 245 43 q 276 64 260 63 l 307 66 q 385 101.5 358 70 q 412 188 412 133 l 412 670 q 422.5 701.5 412 691 q 453 712 433 712 q 483.5 701.5 473 712 q 494 670 494 691 l 494 187 q 474 88.5 494 130 q 414.5 24 454 47 q 318 -3 375 1"},"Í":{"ha":257,"x_min":87,"x_max":275.53,"o":"m 128 -7 q 97.5 4.5 108 -7 q 87 36 87 16 l 87 669 q 97.5 701 87 690 q 128 712 108 712 q 158.5 701 148 712 q 169 669 169 690 l 169 36 q 159 4.5 169 16 q 128 -7 149 -7 m 267 892 l 163 769 q 144.5 759.5 155 760 q 126 764.5 134 759 q 115.5 779 118 770 q 120 799 113 788 l 209 928 q 229 944 218 941 q 251 943.5 240 947 q 268.5 932 262 940 q 275.5 913.5 275 924 q 267 892 276 903"},"Ĭ":{"ha":257,"x_min":-38.9,"x_max":294.9,"o":"m 128 -7 q 97.5 4.5 108 -7 q 87 36 87 16 l 87 669 q 97.5 701 87 690 q 128 712 108 712 q 158.5 701 148 712 q 169 669 169 690 l 169 36 q 159 4.5 169 16 q 128 -7 149 -7 m 128 760 q 23.5 795.5 69 760 q -38 904 -22 831 q -34 927 -41 918 q -16 936 -27 936 q -1.5 934 -8 937 q 8.5 926 5 931 q 13 914 12 921 q 57 836.5 24 859 q 128 814 90 814 q 200 836.5 167 814 q 243 914 233 859 q 247.5 926 244 921 q 257.5 934 251 931 q 272 936 264 937 q 290 927 283 936 q 294 904 297 918 q 233 795.5 279 831 q 128 760 187 760"},"Î":{"ha":257,"x_min":-16.44,"x_max":273.4,"o":"m 128 -7 q 97.5 4.5 108 -7 q 87 36 87 16 l 87 669 q 97.5 701 87 690 q 128 712 108 712 q 158.5 701 148 712 q 169 669 169 690 l 169 36 q 159 4.5 169 16 q 128 -7 149 -7 m 128 884 l 32 768 q 12.5 758 23 759 q -6 762 2 757 q -16 776 -14 767 q -11 795 -18 785 l 77 918 q 100 939.5 87 933 q 128 946 113 946 q 156.5 939.5 144 946 q 180 918 169 933 l 267 795 q 273 776 275 785 q 262.5 762 271 767 q 243.5 758 254 757 q 225 768 233 759 l 128 884"},"Ȉ":{"ha":257,"x_min":-58.1,"x_max":207.13,"o":"m 128 -7 q 97.5 4.5 108 -7 q 87 36 87 16 l 87 669 q 97.5 701 87 690 q 128 712 108 712 q 158.5 701 148 712 q 169 669 169 690 l 169 36 q 159 4.5 169 16 q 128 -7 149 -7 m 164 769 l 79 895 q 71.5 917.5 70 907 q 80 935 73 928 q 97.5 944.5 87 942 q 118.5 942.5 108 947 q 135 925 129 938 l 204 789 q 206 771 209 779 q 195.5 759.5 203 763 q 179.5 758 188 756 q 164 769 171 760 m 39 768 l -50 895 q -58 917.5 -59 907 q -50 935 -57 928 q -32.5 944.5 -43 942 q -12 943 -22 947 q 5 925 -2 939 l 75 790 q 78 772.5 80 781 q 69 760 76 764 q 54 757.5 62 756 q 39 768 46 759"},"Ï":{"ha":257,"x_min":-6,"x_max":262,"o":"m 128 -7 q 97.5 4.5 108 -7 q 87 36 87 16 l 87 669 q 97.5 701 87 690 q 128 712 108 712 q 158.5 701 148 712 q 169 669 169 690 l 169 36 q 159 4.5 169 16 q 128 -7 149 -7 m 216 802 q 180.5 814 193 802 q 168 849 168 826 q 180.5 883 168 871 q 216 895 193 895 q 250 883 238 895 q 262 849 262 871 q 250 814 262 826 q 216 802 238 802 m 41 802 q 6.5 814 19 802 q -6 849 -6 826 q 6.5 883 -6 871 q 41 895 19 895 q 76 883 64 895 q 88 849 88 871 q 76 814 88 826 q 41 802 64 802"},"Ḯ":{"ha":257,"x_min":-6,"x_max":262,"o":"m 128 -7 q 97.5 4.5 108 -7 q 87 36 87 16 l 87 669 q 97.5 701 87 690 q 128 712 108 712 q 158.5 701 148 712 q 169 669 169 690 l 169 36 q 159 4.5 169 16 q 128 -7 149 -7 m 240 985 l 154 880 q 137.5 870.5 147 871 q 120.5 874.5 128 870 q 111 888 113 879 q 115 908 109 897 l 182 1017 q 201 1034 190 1030 q 222.5 1035.5 212 1038 q 240 1025 233 1033 q 248 1006.5 247 1017 q 240 985 249 996 m 41 767 q 6.5 777.5 19 767 q -6 807 -6 788 q 6.5 836.5 -6 826 q 41 847 19 847 q 76 836.5 64 847 q 88 807 88 826 q 76 777.5 88 788 q 41 767 64 767 m 216 767 q 180.5 777.5 193 767 q 168 807 168 788 q 180.5 836.5 168 826 q 216 847 193 847 q 250 836.5 238 847 q 262 807 262 826 q 250 777.5 262 788 q 216 767 238 767"},"İ":{"ha":257,"x_min":79,"x_max":177,"o":"m 128 -7 q 97.5 4.5 108 -7 q 87 36 87 16 l 87 669 q 97.5 701 87 690 q 128 712 108 712 q 158.5 701 148 712 q 169 669 169 690 l 169 36 q 159 4.5 169 16 q 128 -7 149 -7 m 128 803 q 92 815.5 105 803 q 79 851 79 828 q 92 886 79 874 q 128 898 105 898 q 164.5 886 152 898 q 177 851 177 874 q 164.5 815.5 177 828 q 128 803 152 803"},"Ị":{"ha":257,"x_min":79,"x_max":178,"o":"m 128 -7 q 97.5 4.5 108 -7 q 87 36 87 16 l 87 669 q 97.5 701 87 690 q 128 712 108 712 q 158.5 701 148 712 q 169 669 169 690 l 169 36 q 159 4.5 169 16 q 128 -7 149 -7 m 128 -191 q 92 -178 105 -191 q 79 -143 79 -165 q 92 -108 79 -120 q 128 -96 105 -96 q 165 -108 152 -96 q 178 -143 178 -120 q 165 -178 178 -165 q 128 -191 152 -191"},"Ì":{"ha":257,"x_min":-19.53,"x_max":169,"o":"m 128 -7 q 97.5 4.5 108 -7 q 87 36 87 16 l 87 669 q 97.5 701 87 690 q 128 712 108 712 q 158.5 701 148 712 q 169 669 169 690 l 169 36 q 159 4.5 169 16 q 128 -7 149 -7 m 93 769 l -11 892 q -19.5 913.5 -20 903 q -12 932 -19 924 q 5.5 943.5 -5 940 q 27.5 944 16 947 q 47 928 39 941 l 136 799 q 140.5 779 143 788 q 130 764.5 138 770 q 112 759.5 122 759 q 93 769 102 760"},"Ỉ":{"ha":257,"x_min":39.71,"x_max":229,"o":"m 128 -7 q 97.5 4.5 108 -7 q 87 36 87 16 l 87 669 q 97.5 701 87 690 q 128 712 108 712 q 158.5 701 148 712 q 169 669 169 690 l 169 36 q 159 4.5 169 16 q 128 -7 149 -7 m 128 758 q 107.5 763.5 115 758 q 100 781 100 769 q 109.5 813.5 100 801 q 131.5 835 119 826 q 153.5 852 144 844 q 163 872 163 860 q 151.5 889 163 883 q 117 895 140 895 q 97 894 108 895 q 76 889 86 893 q 52.5 887 61 885 q 41 900 44 889 q 42 918 38 910 q 58 931 46 926 q 93.5 940 74 937 q 133 943 113 943 q 203.5 926 178 943 q 229 881 229 909 q 218 847 229 860 q 192.5 825.5 207 834 q 167 806 178 817 q 156 776 156 795 q 149 763 156 768 q 128 758 142 758"},"Ȋ":{"ha":257,"x_min":-38.9,"x_max":294.9,"o":"m 128 -7 q 97.5 4.5 108 -7 q 87 36 87 16 l 87 669 q 97.5 701 87 690 q 128 712 108 712 q 158.5 701 148 712 q 169 669 169 690 l 169 36 q 159 4.5 169 16 q 128 -7 149 -7 m -16 759 q -34 768.5 -27 760 q -38 792 -41 777 q 23.5 900 -22 865 q 128 935 69 935 q 233 900 187 935 q 294 792 279 865 q 290 768.5 297 777 q 272 759 283 760 q 257.5 761 264 758 q 247.5 769.5 251 764 q 243 782 244 775 q 199 858.5 231 836 q 128 881 167 881 q 57.5 858.5 90 881 q 13 782 25 836 q 8.5 769.5 12 775 q -1.5 761 5 764 q -16 759 -8 758"},"Ī":{"ha":257,"x_min":-37,"x_max":294,"o":"m 128 -7 q 97.5 4.5 108 -7 q 87 36 87 16 l 87 669 q 97.5 701 87 690 q 128 712 108 712 q 158.5 701 148 712 q 169 669 169 690 l 169 36 q 159 4.5 169 16 q 128 -7 149 -7 m 264 814 l -8 814 q -37 842 -37 814 q -29.5 862 -37 855 q -8 869 -22 869 l 264 869 q 294 842 294 869 q 286.5 821.5 294 829 q 264 814 279 814"},"Į":{"ha":257,"x_min":33,"x_max":214.62,"o":"m 138 -192 q 61.5 -166 90 -192 q 33 -95 33 -140 q 50 -33 33 -63 q 92 14 65 -6 q 89 21 90 17 q 87 36 87 28 l 87 669 q 97.5 701 87 690 q 128 712 108 712 q 158.5 701 148 712 q 169 669 169 690 l 169 36 q 163.5 11.5 169 22 q 150 -3 158 1 q 108.5 -36 127 -15 q 90 -86 90 -57 q 107 -128 90 -114 q 149 -142 124 -142 q 166.5 -140.5 158 -142 q 183 -136 175 -139 q 204.5 -137 197 -132 q 214 -151.5 212 -142 q 211.5 -170 216 -161 q 197 -183 207 -179 q 167 -190.5 182 -189 q 138 -192 152 -192"},"Ĩ":{"ha":257,"x_min":-78.47,"x_max":334.9,"o":"m 128 -7 q 97.5 4.5 108 -7 q 87 36 87 16 l 87 669 q 97.5 701 87 690 q 128 712 108 712 q 158.5 701 148 712 q 169 669 169 690 l 169 36 q 159 4.5 169 16 q 128 -7 149 -7 m -56 780 q -73.5 787.5 -67 780 q -78 808 -80 795 q -36.5 890 -68 861 q 39 919 -5 919 q 90 907.5 66 919 q 136.5 881 114 896 q 179.5 854.5 159 866 q 220 843 200 843 q 264 860 247 843 q 286 905 281 877 q 295.5 921 289 916 q 312 925 302 926 q 330 917.5 323 925 q 334 897 337 910 q 293.5 815 324 844 q 218 786 263 786 q 166.5 797.5 191 786 q 120 823.5 142 809 q 77 850 98 838 q 36 862 56 862 q -7.5 845 10 862 q -30 800 -25 828 q -39.5 784.5 -33 790 q -56 780 -46 779"},"J":{"ha":324,"x_min":-12,"x_max":237,"o":"m 61 -3 l 28 -6 q -1.5 4 9 -7 q -12 31 -12 15 q -4.5 53 -12 43 q 19 64 3 63 l 50 66 q 128 101.5 101 70 q 155 188 155 133 l 155 670 q 165.5 701.5 155 691 q 196 712 176 712 q 226.5 701.5 216 712 q 237 670 237 691 l 237 187 q 217 88.5 237 130 q 157.5 24 197 47 q 61 -3 118 1"},"Ĵ":{"ha":324,"x_min":-12,"x_max":341.4,"o":"m 61 -3 l 28 -6 q -1.5 4 9 -7 q -12 31 -12 15 q -4.5 53 -12 43 q 19 64 3 63 l 50 66 q 128 101.5 101 70 q 155 188 155 133 l 155 670 q 165.5 701.5 155 691 q 196 712 176 712 q 226.5 701.5 216 712 q 237 670 237 691 l 237 187 q 217 88.5 237 130 q 157.5 24 197 47 q 61 -3 118 1 m 196 884 l 100 768 q 80.5 758 91 759 q 62 762 70 757 q 52 776 54 767 q 57 795 50 785 l 145 918 q 168 939.5 155 933 q 196 946 181 946 q 224.5 939.5 212 946 q 248 918 237 933 l 335 795 q 341 776 343 785 q 330.5 762 339 767 q 311.5 758 322 757 q 293 768 301 759 l 196 884"},"K":{"ha":625,"x_min":87,"x_max":599.1,"o":"m 128 -7 q 97.5 4.5 108 -7 q 87 36 87 16 l 87 670 q 97.5 701.5 87 691 q 128 712 108 712 q 158.5 701.5 148 712 q 169 670 169 691 l 169 385 l 171 385 l 497 689 q 521 706.5 509 701 q 547 712 533 712 q 574.5 703 566 712 q 581 681 583 694 q 567 656 579 668 l 250 362 l 583 55 q 599 26.5 598 41 q 590.5 2.5 600 12 q 562 -7 581 -7 q 536.5 -0.5 547 -7 q 513 19 526 6 l 171 332 l 169 332 l 169 36 q 159 4.5 169 16 q 128 -7 149 -7"},"Ķ":{"ha":625,"x_min":87,"x_max":599.1,"o":"m 128 -7 q 97.5 4.5 108 -7 q 87 36 87 16 l 87 670 q 97.5 701.5 87 691 q 128 712 108 712 q 158.5 701.5 148 712 q 169 670 169 691 l 169 385 l 171 385 l 497 689 q 521 706.5 509 701 q 547 712 533 712 q 574.5 703 566 712 q 581 681 583 694 q 567 656 579 668 l 250 362 l 583 55 q 599 26.5 598 41 q 590.5 2.5 600 12 q 562 -7 581 -7 q 536.5 -0.5 547 -7 q 513 19 526 6 l 171 332 l 169 332 l 169 36 q 159 4.5 169 16 q 128 -7 149 -7 m 330 -250 q 311.5 -262 321 -260 q 294.5 -258.5 302 -264 q 286.5 -244 287 -253 q 294 -222 286 -235 q 311 -189 305 -207 q 315 -171 313 -180 q 279 -158 292 -170 q 264 -123 264 -145 q 277.5 -88 264 -101 q 315 -75 291 -75 q 353.5 -89.5 340 -75 q 367 -133 367 -104 q 363 -173 367 -152 q 351 -214 359 -194 q 330 -250 343 -234"},"L":{"ha":543,"x_min":87,"x_max":535,"o":"m 497 0 l 129 0 q 98 11.5 109 0 q 87 43 87 23 l 87 667 q 97.5 699 87 688 q 128 710 108 710 q 158.5 699 148 710 q 169 667 169 688 l 169 72 l 497 72 q 525 62.5 515 72 q 535 36 535 53 q 525 9.5 535 19 q 497 0 515 0"},"Ǉ":{"ha":907,"x_min":87,"x_max":820,"o":"m 497 0 l 129 0 q 98 11.5 109 0 q 87 43 87 23 l 87 667 q 97.5 699 87 688 q 128 710 108 710 q 158.5 699 148 710 q 169 667 169 688 l 169 72 l 497 72 q 525 62.5 515 72 q 535 36 535 53 q 525 9.5 535 19 q 497 0 515 0 m 644 -3 l 611 -6 q 581.5 4 592 -7 q 571 31 571 15 q 578.5 53 571 43 q 602 64 586 63 l 633 66 q 711 101.5 684 70 q 738 188 738 133 l 738 670 q 748.5 701.5 738 691 q 779 712 759 712 q 809.5 701.5 799 712 q 820 670 820 691 l 820 187 q 800 88.5 820 130 q 740.5 24 780 47 q 644 -3 701 1"},"Ĺ":{"ha":543,"x_min":87,"x_max":535,"o":"m 497 0 l 129 0 q 98 11.5 109 0 q 87 43 87 23 l 87 667 q 97.5 699 87 688 q 128 710 108 710 q 158.5 699 148 710 q 169 667 169 688 l 169 72 l 497 72 q 525 62.5 515 72 q 535 36 535 53 q 525 9.5 535 19 q 497 0 515 0 m 267 892 l 163 769 q 144.5 759.5 155 760 q 126 764.5 134 759 q 115.5 779 118 770 q 120 799 113 788 l 209 928 q 229 944 218 941 q 251 943.5 240 947 q 268.5 932 262 940 q 275.5 913.5 275 924 q 267 892 276 903"},"Ľ":{"ha":543,"x_min":87,"x_max":535,"o":"m 497 0 l 129 0 q 98 11.5 109 0 q 87 43 87 23 l 87 667 q 97.5 699 87 688 q 128 710 108 710 q 158.5 699 148 710 q 169 667 169 688 l 169 72 l 497 72 q 525 62.5 515 72 q 535 36 535 53 q 525 9.5 535 19 q 497 0 515 0 m 309 475 q 291 482 298 475 q 284 502 284 489 l 284 676 q 293.5 702.5 284 693 q 320 712 303 712 q 345.5 702.5 337 712 q 353 674 354 693 l 337 500 q 309 475 335 475"},"Ļ":{"ha":543,"x_min":87,"x_max":535,"o":"m 497 0 l 129 0 q 98 11.5 109 0 q 87 43 87 23 l 87 667 q 97.5 699 87 688 q 128 710 108 710 q 158.5 699 148 710 q 169 667 169 688 l 169 72 l 497 72 q 525 62.5 515 72 q 535 36 535 53 q 525 9.5 535 19 q 497 0 515 0 m 321 -250 q 302.5 -262 312 -260 q 285.5 -258.5 293 -264 q 277.5 -244 278 -253 q 285 -222 277 -235 q 302 -189 296 -207 q 306 -171 304 -180 q 270 -158 283 -170 q 255 -123 255 -145 q 268.5 -88 255 -101 q 306 -75 282 -75 q 344.5 -89.5 331 -75 q 358 -133 358 -104 q 354 -173 358 -152 q 342 -214 350 -194 q 321 -250 334 -234"},"Ŀ":{"ha":543,"x_min":87,"x_max":535,"o":"m 497 0 l 129 0 q 98 11.5 109 0 q 87 43 87 23 l 87 667 q 97.5 699 87 688 q 128 710 108 710 q 158.5 699 148 710 q 169 667 169 688 l 169 72 l 497 72 q 525 62.5 515 72 q 535 36 535 53 q 525 9.5 535 19 q 497 0 515 0 m 403 335 q 363.5 350.5 379 335 q 348 390 348 366 q 363.5 429 348 414 q 403 444 379 444 q 443.5 429 429 444 q 458 390 458 414 q 443.5 350.5 458 366 q 403 335 429 335"},"Ḷ":{"ha":543,"x_min":87,"x_max":535,"o":"m 497 0 l 129 0 q 98 11.5 109 0 q 87 43 87 23 l 87 667 q 97.5 699 87 688 q 128 710 108 710 q 158.5 699 148 710 q 169 667 169 688 l 169 72 l 497 72 q 525 62.5 515 72 q 535 36 535 53 q 525 9.5 535 19 q 497 0 515 0 m 307 -191 q 271 -178 284 -191 q 258 -143 258 -165 q 271 -108 258 -120 q 307 -96 284 -96 q 344 -108 331 -96 q 357 -143 357 -120 q 344 -178 357 -165 q 307 -191 331 -191"},"ǈ":{"ha":779,"x_min":87,"x_max":716,"o":"m 497 0 l 129 0 q 98 11.5 109 0 q 87 43 87 23 l 87 667 q 97.5 699 87 688 q 128 710 108 710 q 158.5 699 148 710 q 169 667 169 688 l 169 72 l 497 72 q 525 62.5 515 72 q 535 36 535 53 q 525 9.5 535 19 q 497 0 515 0 m 526 -191 q 501.5 -186 511 -192 q 488.5 -170.5 492 -180 q 486.5 -151.5 485 -161 q 495 -135 488 -142 q 514 -128 502 -128 q 595.5 -98.5 569 -125 q 622 -15 622 -72 l 622 452 q 632.5 482.5 622 472 q 663 493 643 493 q 692.5 482.5 682 493 q 703 452 703 472 l 703 -9 q 682.5 -109.5 703 -70 q 623 -168.5 662 -149 q 526 -191 584 -188 m 662 603 q 623 616.5 637 603 q 609 653 609 630 q 623 689.5 609 677 q 662 702 637 702 q 702 689.5 688 702 q 716 653 716 677 q 702 616.5 716 630 q 662 603 688 603"},"Ḻ":{"ha":543,"x_min":87,"x_max":535,"o":"m 497 0 l 129 0 q 98 11.5 109 0 q 87 43 87 23 l 87 667 q 97.5 699 87 688 q 128 710 108 710 q 158.5 699 148 710 q 169 667 169 688 l 169 72 l 497 72 q 525 62.5 515 72 q 535 36 535 53 q 525 9.5 535 19 q 497 0 515 0 m 428 -156 l 186 -156 q 157 -129 157 -156 q 164.5 -108 157 -115 q 186 -101 172 -101 l 428 -101 q 458 -129 458 -101 q 450.5 -148.5 458 -141 q 428 -156 443 -156"},"Ł":{"ha":543,"x_min":-20.62,"x_max":535,"o":"m 497 0 l 129 0 q 98 11.5 109 0 q 87 43 87 23 l 87 300 l 32 268 q 8 261.5 19 260 q -10.5 270 -3 263 q -20 287 -18 277 q -17.5 307.5 -22 297 q 0 326 -13 318 l 87 376 l 87 667 q 97.5 699 87 688 q 128 710 108 710 q 158.5 699 148 710 q 169 667 169 688 l 169 423 l 314 506 q 338.5 512.5 328 514 q 356.5 504 349 511 q 366 486.5 364 497 q 364 466 368 476 q 346 448 360 456 l 169 347 l 169 72 l 497 72 q 525 62.5 515 72 q 535 36 535 53 q 525 9.5 535 19 q 497 0 515 0"},"M":{"ha":855,"x_min":89,"x_max":767,"o":"m 127 -7 q 99 3.5 109 -7 q 89 33 89 14 l 89 672 q 99 702 89 692 q 127 712 109 712 q 152.5 705.5 143 712 q 170 684 162 699 l 429 196 l 687 684 q 704 705.5 695 699 q 730 712 713 712 q 757 702 747 712 q 767 672 767 692 l 767 33 q 757.5 3.5 767 14 q 729 -7 748 -7 q 701 3.5 711 -7 q 691 33 691 14 l 691 550 l 465 126 q 450.5 107.5 458 113 q 429 102 443 102 q 407 108 415 102 q 393 126 399 114 l 164 551 l 164 33 q 154.5 3.5 164 14 q 127 -7 145 -7"},"Ṃ":{"ha":855,"x_min":89,"x_max":767,"o":"m 127 -7 q 99 3.5 109 -7 q 89 33 89 14 l 89 672 q 99 702 89 692 q 127 712 109 712 q 152.5 705.5 143 712 q 170 684 162 699 l 429 196 l 687 684 q 704 705.5 695 699 q 730 712 713 712 q 757 702 747 712 q 767 672 767 692 l 767 33 q 757.5 3.5 767 14 q 729 -7 748 -7 q 701 3.5 711 -7 q 691 33 691 14 l 691 550 l 465 126 q 450.5 107.5 458 113 q 429 102 443 102 q 407 108 415 102 q 393 126 399 114 l 164 551 l 164 33 q 154.5 3.5 164 14 q 127 -7 145 -7 m 428 -191 q 392 -178 405 -191 q 379 -143 379 -165 q 392 -108 379 -120 q 428 -96 405 -96 q 465 -108 452 -96 q 478 -143 478 -120 q 465 -178 478 -165 q 428 -191 452 -191"},"N":{"ha":740,"x_min":87,"x_max":652,"o":"m 126 -7 q 97 3.5 107 -7 q 87 34 87 14 l 87 670 q 97 701 87 690 q 123 712 107 712 q 146.5 706.5 139 712 q 164 687 154 701 l 576 138 l 576 672 q 586 701.5 576 691 q 615 712 596 712 q 642.5 701.5 633 712 q 652 672 652 691 l 652 33 q 643.5 3.5 652 14 q 619 -7 635 -7 q 595 -1 604 -7 q 576 18 586 5 l 164 568 l 164 34 q 154 3.5 164 14 q 126 -7 144 -7"},"Ǌ":{"ha":1063,"x_min":87,"x_max":977,"o":"m 126 -7 q 97 3.5 107 -7 q 87 34 87 14 l 87 670 q 97 701 87 690 q 123 712 107 712 q 146.5 706.5 139 712 q 164 687 154 701 l 576 138 l 576 672 q 586 701.5 576 691 q 615 712 596 712 q 642.5 701.5 633 712 q 652 672 652 691 l 652 33 q 643.5 3.5 652 14 q 619 -7 635 -7 q 595 -1 604 -7 q 576 18 586 5 l 164 568 l 164 34 q 154 3.5 164 14 q 126 -7 144 -7 m 801 -3 l 768 -6 q 738.5 4 749 -7 q 728 31 728 15 q 735.5 53 728 43 q 759 64 743 63 l 790 66 q 868 101.5 841 70 q 895 188 895 133 l 895 670 q 905.5 701.5 895 691 q 936 712 916 712 q 966.5 701.5 956 712 q 977 670 977 691 l 977 187 q 957 88.5 977 130 q 897.5 24 937 47 q 801 -3 858 1"},"Ń":{"ha":740,"x_min":87,"x_max":652,"o":"m 126 -7 q 97 3.5 107 -7 q 87 34 87 14 l 87 670 q 97 701 87 690 q 123 712 107 712 q 146.5 706.5 139 712 q 164 687 154 701 l 576 138 l 576 672 q 586 701.5 576 691 q 615 712 596 712 q 642.5 701.5 633 712 q 652 672 652 691 l 652 33 q 643.5 3.5 652 14 q 619 -7 635 -7 q 595 -1 604 -7 q 576 18 586 5 l 164 568 l 164 34 q 154 3.5 164 14 q 126 -7 144 -7 m 509 892 l 405 769 q 386.5 759.5 397 760 q 368 764.5 376 759 q 357.5 779 360 770 q 362 799 355 788 l 451 928 q 471 944 460 941 q 493 943.5 482 947 q 510.5 932 504 940 q 517.5 913.5 517 924 q 509 892 518 903"},"Ň":{"ha":740,"x_min":87,"x_max":652,"o":"m 126 -7 q 97 3.5 107 -7 q 87 34 87 14 l 87 670 q 97 701 87 690 q 123 712 107 712 q 146.5 706.5 139 712 q 164 687 154 701 l 576 138 l 576 672 q 586 701.5 576 691 q 615 712 596 712 q 642.5 701.5 633 712 q 652 672 652 691 l 652 33 q 643.5 3.5 652 14 q 619 -7 635 -7 q 595 -1 604 -7 q 576 18 586 5 l 164 568 l 164 34 q 154 3.5 164 14 q 126 -7 144 -7 m 370 756 q 342 762.5 355 756 q 319 783 329 769 l 231 907 q 226 926.5 224 917 q 236 941 228 936 q 254.5 944.5 244 946 q 274 933 265 943 l 370 818 l 467 933 q 485.5 944.5 475 943 q 504 941 496 946 q 514 926.5 512 936 q 509 907 516 917 l 422 783 q 398.5 762.5 411 769 q 370 756 386 756"},"Ņ":{"ha":740,"x_min":87,"x_max":652,"o":"m 126 -7 q 97 3.5 107 -7 q 87 34 87 14 l 87 670 q 97 701 87 690 q 123 712 107 712 q 146.5 706.5 139 712 q 164 687 154 701 l 576 138 l 576 672 q 586 701.5 576 691 q 615 712 596 712 q 642.5 701.5 633 712 q 652 672 652 691 l 652 33 q 643.5 3.5 652 14 q 619 -7 635 -7 q 595 -1 604 -7 q 576 18 586 5 l 164 568 l 164 34 q 154 3.5 164 14 q 126 -7 144 -7 m 384 -250 q 365.5 -262 375 -260 q 348.5 -258.5 356 -264 q 340.5 -244 341 -253 q 348 -222 340 -235 q 365 -189 359 -207 q 369 -171 367 -180 q 333 -158 346 -170 q 318 -123 318 -145 q 331.5 -88 318 -101 q 369 -75 345 -75 q 407.5 -89.5 394 -75 q 421 -133 421 -104 q 417 -173 421 -152 q 405 -214 413 -194 q 384 -250 397 -234"},"Ṅ":{"ha":740,"x_min":87,"x_max":652,"o":"m 126 -7 q 97 3.5 107 -7 q 87 34 87 14 l 87 670 q 97 701 87 690 q 123 712 107 712 q 146.5 706.5 139 712 q 164 687 154 701 l 576 138 l 576 672 q 586 701.5 576 691 q 615 712 596 712 q 642.5 701.5 633 712 q 652 672 652 691 l 652 33 q 643.5 3.5 652 14 q 619 -7 635 -7 q 595 -1 604 -7 q 576 18 586 5 l 164 568 l 164 34 q 154 3.5 164 14 q 126 -7 144 -7 m 370 803 q 334 815.5 347 803 q 321 851 321 828 q 334 886 321 874 q 370 898 347 898 q 406.5 886 394 898 q 419 851 419 874 q 406.5 815.5 419 828 q 370 803 394 803"},"Ṇ":{"ha":740,"x_min":87,"x_max":652,"o":"m 126 -7 q 97 3.5 107 -7 q 87 34 87 14 l 87 670 q 97 701 87 690 q 123 712 107 712 q 146.5 706.5 139 712 q 164 687 154 701 l 576 138 l 576 672 q 586 701.5 576 691 q 615 712 596 712 q 642.5 701.5 633 712 q 652 672 652 691 l 652 33 q 643.5 3.5 652 14 q 619 -7 635 -7 q 595 -1 604 -7 q 576 18 586 5 l 164 568 l 164 34 q 154 3.5 164 14 q 126 -7 144 -7 m 370 -191 q 334 -178 347 -191 q 321 -143 321 -165 q 334 -108 321 -120 q 370 -96 347 -96 q 407 -108 394 -96 q 420 -143 420 -120 q 407 -178 420 -165 q 370 -191 394 -191"},"ǋ":{"ha":975,"x_min":87,"x_max":913,"o":"m 126 -7 q 97 3.5 107 -7 q 87 34 87 14 l 87 670 q 97 701 87 690 q 123 712 107 712 q 146.5 706.5 139 712 q 164 687 154 701 l 576 138 l 576 672 q 586 701.5 576 691 q 615 712 596 712 q 642.5 701.5 633 712 q 652 672 652 691 l 652 33 q 643.5 3.5 652 14 q 619 -7 635 -7 q 595 -1 604 -7 q 576 18 586 5 l 164 568 l 164 34 q 154 3.5 164 14 q 126 -7 144 -7 m 723 -191 q 698.5 -186 708 -192 q 685.5 -170.5 689 -180 q 683.5 -151.5 682 -161 q 692 -135 685 -142 q 711 -128 699 -128 q 792.5 -98.5 766 -125 q 819 -15 819 -72 l 819 452 q 829.5 482.5 819 472 q 860 493 840 493 q 889.5 482.5 879 493 q 900 452 900 472 l 900 -9 q 879.5 -109.5 900 -70 q 820 -168.5 859 -149 q 723 -191 781 -188 m 859 603 q 820 616.5 834 603 q 806 653 806 630 q 820 689.5 806 677 q 859 702 834 702 q 899 689.5 885 702 q 913 653 913 677 q 899 616.5 913 630 q 859 603 885 603"},"Ṉ":{"ha":740,"x_min":87,"x_max":652,"o":"m 126 -7 q 97 3.5 107 -7 q 87 34 87 14 l 87 670 q 97 701 87 690 q 123 712 107 712 q 146.5 706.5 139 712 q 164 687 154 701 l 576 138 l 576 672 q 586 701.5 576 691 q 615 712 596 712 q 642.5 701.5 633 712 q 652 672 652 691 l 652 33 q 643.5 3.5 652 14 q 619 -7 635 -7 q 595 -1 604 -7 q 576 18 586 5 l 164 568 l 164 34 q 154 3.5 164 14 q 126 -7 144 -7 m 491 -156 l 249 -156 q 220 -129 220 -156 q 227.5 -108 220 -115 q 249 -101 235 -101 l 491 -101 q 521 -129 521 -101 q 513.5 -148.5 521 -141 q 491 -156 506 -156"},"Ñ":{"ha":740,"x_min":87,"x_max":652,"o":"m 126 -7 q 97 3.5 107 -7 q 87 34 87 14 l 87 670 q 97 701 87 690 q 123 712 107 712 q 146.5 706.5 139 712 q 164 687 154 701 l 576 138 l 576 672 q 586 701.5 576 691 q 615 712 596 712 q 642.5 701.5 633 712 q 652 672 652 691 l 652 33 q 643.5 3.5 652 14 q 619 -7 635 -7 q 595 -1 604 -7 q 576 18 586 5 l 164 568 l 164 34 q 154 3.5 164 14 q 126 -7 144 -7 m 186 780 q 168.5 787.5 175 780 q 164 808 162 795 q 205.5 890 174 861 q 281 919 237 919 q 332 907.5 308 919 q 378.5 881 356 896 q 421.5 854.5 401 866 q 462 843 442 843 q 506 860 489 843 q 528 905 523 877 q 537.5 921 531 916 q 554 925 544 926 q 572 917.5 565 925 q 576 897 579 910 q 535.5 815 566 844 q 460 786 505 786 q 408.5 797.5 433 786 q 362 823.5 384 809 q 319 850 340 838 q 278 862 298 862 q 234.5 845 252 862 q 212 800 217 828 q 202.5 784.5 209 790 q 186 780 196 779"},"Ŋ":{"ha":740,"x_min":87,"x_max":652,"o":"m 475 -191 q 450.5 -186 460 -192 q 437.5 -170.5 441 -180 q 435.5 -151.5 434 -161 q 444 -135 437 -142 q 464 -128 451 -128 q 547.5 -98.5 519 -124 q 576 -15 576 -73 l 576 19 l 164 568 l 164 34 q 154 3.5 164 14 q 126 -7 144 -7 q 97 3.5 107 -7 q 87 34 87 14 l 87 670 q 97 701 87 690 q 123 712 107 712 q 146.5 706.5 139 712 q 164 687 154 701 l 576 138 l 576 672 q 586 701.5 576 691 q 615 712 596 712 q 642.5 701.5 633 712 q 652 672 652 691 l 652 -7 q 606 -144.5 652 -102 q 475 -191 560 -187"},"O":{"ha":767,"x_min":61,"x_max":707,"o":"m 383 -9 q 212.5 35.5 285 -9 q 100.5 161 140 80 q 61 353 61 242 q 83.5 503.5 61 437 q 148 616.5 106 570 q 249.5 688.5 190 663 q 383 714 309 714 q 555.5 670 483 714 q 667.5 545.5 628 626 q 707 354 707 465 q 684 203 707 270 q 619 89 661 136 q 517.5 16.5 577 42 q 383 -9 458 -9 m 383 64 q 511.5 98 459 64 q 592 197 564 132 q 620 353 620 262 q 558.5 565.5 620 490 q 383 641 497 641 q 256.5 607 309 641 q 176 508.5 204 573 q 148 353 148 444 q 210 140.5 148 217 q 383 64 272 64"},"Ó":{"ha":767,"x_min":61,"x_max":707,"o":"m 383 -9 q 212.5 35.5 285 -9 q 100.5 161 140 80 q 61 353 61 242 q 83.5 503.5 61 437 q 148 616.5 106 570 q 249.5 688.5 190 663 q 383 714 309 714 q 555.5 670 483 714 q 667.5 545.5 628 626 q 707 354 707 465 q 684 203 707 270 q 619 89 661 136 q 517.5 16.5 577 42 q 383 -9 458 -9 m 383 64 q 511.5 98 459 64 q 592 197 564 132 q 620 353 620 262 q 558.5 565.5 620 490 q 383 641 497 641 q 256.5 607 309 641 q 176 508.5 204 573 q 148 353 148 444 q 210 140.5 148 217 q 383 64 272 64 m 522 892 l 418 769 q 399.5 759.5 410 760 q 381 764.5 389 759 q 370.5 779 373 770 q 375 799 368 788 l 464 928 q 484 944 473 941 q 506 943.5 495 947 q 523.5 932 517 940 q 530.5 913.5 530 924 q 522 892 531 903"},"Ŏ":{"ha":767,"x_min":61,"x_max":707,"o":"m 383 -9 q 212.5 35.5 285 -9 q 100.5 161 140 80 q 61 353 61 242 q 83.5 503.5 61 437 q 148 616.5 106 570 q 249.5 688.5 190 663 q 383 714 309 714 q 555.5 670 483 714 q 667.5 545.5 628 626 q 707 354 707 465 q 684 203 707 270 q 619 89 661 136 q 517.5 16.5 577 42 q 383 -9 458 -9 m 383 64 q 511.5 98 459 64 q 592 197 564 132 q 620 353 620 262 q 558.5 565.5 620 490 q 383 641 497 641 q 256.5 607 309 641 q 176 508.5 204 573 q 148 353 148 444 q 210 140.5 148 217 q 383 64 272 64 m 383 760 q 278.5 795.5 324 760 q 217 904 233 831 q 221 927 214 918 q 239 936 228 936 q 253.5 934 247 937 q 263.5 926 260 931 q 268 914 267 921 q 312 836.5 279 859 q 383 814 345 814 q 455 836.5 422 814 q 498 914 488 859 q 502.5 926 499 921 q 512.5 934 506 931 q 527 936 519 937 q 545 927 538 936 q 549 904 552 918 q 488 795.5 534 831 q 383 760 442 760"},"Ô":{"ha":767,"x_min":61,"x_max":707,"o":"m 383 -9 q 212.5 35.5 285 -9 q 100.5 161 140 80 q 61 353 61 242 q 83.5 503.5 61 437 q 148 616.5 106 570 q 249.5 688.5 190 663 q 383 714 309 714 q 555.5 670 483 714 q 667.5 545.5 628 626 q 707 354 707 465 q 684 203 707 270 q 619 89 661 136 q 517.5 16.5 577 42 q 383 -9 458 -9 m 383 64 q 511.5 98 459 64 q 592 197 564 132 q 620 353 620 262 q 558.5 565.5 620 490 q 383 641 497 641 q 256.5 607 309 641 q 176 508.5 204 573 q 148 353 148 444 q 210 140.5 148 217 q 383 64 272 64 m 383 884 l 287 768 q 267.5 758 278 759 q 249 762 257 757 q 239 776 241 767 q 244 795 237 785 l 332 918 q 355 939.5 342 933 q 383 946 368 946 q 411.5 939.5 399 946 q 435 918 424 933 l 522 795 q 528 776 530 785 q 517.5 762 526 767 q 498.5 758 509 757 q 480 768 488 759 l 383 884"},"Ố":{"ha":767,"x_min":61,"x_max":707,"o":"m 383 -9 q 212.5 35.5 285 -9 q 100.5 161 140 80 q 61 353 61 242 q 83.5 503.5 61 437 q 148 616.5 106 570 q 249.5 688.5 190 663 q 383 714 309 714 q 555.5 670 483 714 q 667.5 545.5 628 626 q 707 354 707 465 q 684 203 707 270 q 619 89 661 136 q 517.5 16.5 577 42 q 383 -9 458 -9 m 383 64 q 511.5 98 459 64 q 592 197 564 132 q 620 353 620 262 q 558.5 565.5 620 490 q 383 641 497 641 q 256.5 607 309 641 q 176 508.5 204 573 q 148 353 148 444 q 210 140.5 148 217 q 383 64 272 64 m 383 875 l 294 768 q 275.5 757.5 285 759 q 259 760.5 266 756 q 250 774.5 252 765 q 255 794 248 784 l 333 909 q 355.5 931 343 925 q 383 937 368 937 q 402 934.5 393 937 q 419 926 411 932 q 433 909 427 920 l 511 794 q 516.5 774.5 518 784 q 508 760.5 515 765 q 491 757.5 501 756 q 472 768 481 759 l 383 875 m 611 980 l 526 864 q 510.5 855 519 856 q 495 858.5 502 854 q 486 871.5 488 863 q 490 891 484 880 l 559 1010 q 576 1026.5 566 1023 q 595.5 1027.5 586 1030 q 611.5 1018 605 1025 q 618.5 1000.5 618 1011 q 611 980 619 990"},"Ộ":{"ha":767,"x_min":61,"x_max":707,"o":"m 383 -9 q 212.5 35.5 285 -9 q 100.5 161 140 80 q 61 353 61 242 q 83.5 503.5 61 437 q 148 616.5 106 570 q 249.5 688.5 190 663 q 383 714 309 714 q 555.5 670 483 714 q 667.5 545.5 628 626 q 707 354 707 465 q 684 203 707 270 q 619 89 661 136 q 517.5 16.5 577 42 q 383 -9 458 -9 m 383 64 q 511.5 98 459 64 q 592 197 564 132 q 620 353 620 262 q 558.5 565.5 620 490 q 383 641 497 641 q 256.5 607 309 641 q 176 508.5 204 573 q 148 353 148 444 q 210 140.5 148 217 q 383 64 272 64 m 383 -191 q 347 -178 360 -191 q 334 -143 334 -165 q 347 -108 334 -120 q 383 -96 360 -96 q 420 -108 407 -96 q 433 -143 433 -120 q 420 -178 433 -165 q 383 -191 407 -191 m 383 884 l 287 768 q 267.5 758 278 759 q 249 762 257 757 q 239 776 241 767 q 244 795 237 785 l 332 918 q 355 939.5 342 933 q 383 946 368 946 q 411.5 939.5 399 946 q 435 918 424 933 l 522 795 q 528 776 530 785 q 517.5 762 526 767 q 498.5 758 509 757 q 480 768 488 759 l 383 884"},"Ồ":{"ha":767,"x_min":61,"x_max":707,"o":"m 383 -9 q 212.5 35.5 285 -9 q 100.5 161 140 80 q 61 353 61 242 q 83.5 503.5 61 437 q 148 616.5 106 570 q 249.5 688.5 190 663 q 383 714 309 714 q 555.5 670 483 714 q 667.5 545.5 628 626 q 707 354 707 465 q 684 203 707 270 q 619 89 661 136 q 517.5 16.5 577 42 q 383 -9 458 -9 m 383 64 q 511.5 98 459 64 q 592 197 564 132 q 620 353 620 262 q 558.5 565.5 620 490 q 383 641 497 641 q 256.5 607 309 641 q 176 508.5 204 573 q 148 353 148 444 q 210 140.5 148 217 q 383 64 272 64 m 383 875 l 294 768 q 275.5 757.5 285 759 q 259 760.5 266 756 q 250 774.5 252 765 q 255 794 248 784 l 333 909 q 355.5 931 343 925 q 383 937 368 937 q 402 934.5 393 937 q 419 926 411 932 q 433 909 427 920 l 511 794 q 516.5 774.5 518 784 q 508 760.5 515 765 q 491 757.5 501 756 q 472 768 481 759 l 383 875 m 521 864 l 435 980 q 428.5 1000.5 428 990 q 435.5 1018 429 1011 q 451.5 1027.5 442 1025 q 470.5 1026.5 461 1030 q 488 1010 480 1023 l 557 891 q 561 871.5 563 880 q 552 858.5 559 863 q 536 855 545 854 q 521 864 527 856"},"Ổ":{"ha":767,"x_min":61,"x_max":707,"o":"m 383 -9 q 212.5 35.5 285 -9 q 100.5 161 140 80 q 61 353 61 242 q 83.5 503.5 61 437 q 148 616.5 106 570 q 249.5 688.5 190 663 q 383 714 309 714 q 555.5 670 483 714 q 667.5 545.5 628 626 q 707 354 707 465 q 684 203 707 270 q 619 89 661 136 q 517.5 16.5 577 42 q 383 -9 458 -9 m 383 64 q 511.5 98 459 64 q 592 197 564 132 q 620 353 620 262 q 558.5 565.5 620 490 q 383 641 497 641 q 256.5 607 309 641 q 176 508.5 204 573 q 148 353 148 444 q 210 140.5 148 217 q 383 64 272 64 m 383 875 l 294 768 q 275.5 757.5 285 759 q 259 760.5 266 756 q 250 774.5 252 765 q 255 794 248 784 l 333 909 q 355.5 931 343 925 q 383 937 368 937 q 402 934.5 393 937 q 419 926 411 932 q 433 909 427 920 l 511 794 q 516.5 774.5 518 784 q 508 760.5 515 765 q 491 757.5 501 756 q 472 768 481 759 l 383 875 m 522 865 q 500 862.5 510 859 q 488 875.5 490 866 q 498 893 486 885 q 532 921.5 520 908 q 544 951 544 935 q 533.5 972.5 544 966 q 499 979 523 979 q 480.5 978 490 979 q 460 974 471 977 q 440 974 448 971 q 429 986 432 977 q 431 1002.5 427 996 q 447 1013 435 1009 q 479 1020 462 1018 q 514 1022 496 1022 q 579.5 1008 556 1022 q 603 963 603 994 q 591 923.5 603 942 q 560.5 890.5 579 905 q 522 865 542 876"},"Ỗ":{"ha":767,"x_min":61,"x_max":707,"o":"m 383 -9 q 212.5 35.5 285 -9 q 100.5 161 140 80 q 61 353 61 242 q 83.5 503.5 61 437 q 148 616.5 106 570 q 249.5 688.5 190 663 q 383 714 309 714 q 555.5 670 483 714 q 667.5 545.5 628 626 q 707 354 707 465 q 684 203 707 270 q 619 89 661 136 q 517.5 16.5 577 42 q 383 -9 458 -9 m 383 64 q 511.5 98 459 64 q 592 197 564 132 q 620 353 620 262 q 558.5 565.5 620 490 q 383 641 497 641 q 256.5 607 309 641 q 176 508.5 204 573 q 148 353 148 444 q 210 140.5 148 217 q 383 64 272 64 m 383 850 l 289 765 q 266 757.5 278 755 q 250.5 770 254 760 q 257 791 247 780 l 330 879 q 355.5 898.5 343 893 q 383 904 368 904 q 403 901.5 394 904 q 420 893.5 412 899 q 436 879 428 888 l 509 791 q 516 774.5 517 783 q 509.5 761 515 766 q 495 756.5 504 756 q 477 765 486 757 l 383 850 m 248 920 q 232.5 929 238 921 q 230 951 227 937 q 262 1006 239 988 q 319 1024 285 1024 q 367 1011 346 1024 q 407 985 388 998 q 446 972 426 972 q 475 979.5 463 972 q 491 1005 487 987 q 501 1021.5 494 1016 q 519 1026 508 1027 q 534.5 1017.5 529 1025 q 537 996 540 1010 q 504.5 940.5 528 959 q 448 922 481 922 q 399.5 935 421 922 q 359.5 961 378 948 q 320 974 341 974 q 291.5 966.5 303 974 q 275 941 280 959 q 265.5 925 272 931 q 248 920 259 919"},"Ȍ":{"ha":767,"x_min":61,"x_max":707,"o":"m 383 -9 q 212.5 35.5 285 -9 q 100.5 161 140 80 q 61 353 61 242 q 83.5 503.5 61 437 q 148 616.5 106 570 q 249.5 688.5 190 663 q 383 714 309 714 q 555.5 670 483 714 q 667.5 545.5 628 626 q 707 354 707 465 q 684 203 707 270 q 619 89 661 136 q 517.5 16.5 577 42 q 383 -9 458 -9 m 383 64 q 511.5 98 459 64 q 592 197 564 132 q 620 353 620 262 q 558.5 565.5 620 490 q 383 641 497 641 q 256.5 607 309 641 q 176 508.5 204 573 q 148 353 148 444 q 210 140.5 148 217 q 383 64 272 64 m 419 769 l 334 895 q 326.5 917.5 325 907 q 335 935 328 928 q 352.5 944.5 342 942 q 373.5 942.5 363 947 q 390 925 384 938 l 459 789 q 461 771 464 779 q 450.5 759.5 458 763 q 434.5 758 443 756 q 419 769 426 760 m 294 768 l 205 895 q 197 917.5 196 907 q 205 935 198 928 q 222.5 944.5 212 942 q 243 943 233 947 q 260 925 253 939 l 330 790 q 333 772.5 335 781 q 324 760 331 764 q 309 757.5 317 756 q 294 768 301 759"},"Ö":{"ha":767,"x_min":61,"x_max":707,"o":"m 383 -9 q 212.5 35.5 285 -9 q 100.5 161 140 80 q 61 353 61 242 q 83.5 503.5 61 437 q 148 616.5 106 570 q 249.5 688.5 190 663 q 383 714 309 714 q 555.5 670 483 714 q 667.5 545.5 628 626 q 707 354 707 465 q 684 203 707 270 q 619 89 661 136 q 517.5 16.5 577 42 q 383 -9 458 -9 m 383 64 q 511.5 98 459 64 q 592 197 564 132 q 620 353 620 262 q 558.5 565.5 620 490 q 383 641 497 641 q 256.5 607 309 641 q 176 508.5 204 573 q 148 353 148 444 q 210 140.5 148 217 q 383 64 272 64 m 471 802 q 435.5 814 448 802 q 423 849 423 826 q 435.5 883 423 871 q 471 895 448 895 q 505 883 493 895 q 517 849 517 871 q 505 814 517 826 q 471 802 493 802 m 296 802 q 261.5 814 274 802 q 249 849 249 826 q 261.5 883 249 871 q 296 895 274 895 q 331 883 319 895 q 343 849 343 871 q 331 814 343 826 q 296 802 319 802"},"Ȫ":{"ha":767,"x_min":61,"x_max":707,"o":"m 383 -9 q 212.5 35.5 285 -9 q 100.5 161 140 80 q 61 353 61 242 q 83.5 503.5 61 437 q 148 616.5 106 570 q 249.5 688.5 190 663 q 383 714 309 714 q 555.5 670 483 714 q 667.5 545.5 628 626 q 707 354 707 465 q 684 203 707 270 q 619 89 661 136 q 517.5 16.5 577 42 q 383 -9 458 -9 m 383 64 q 511.5 98 459 64 q 592 197 564 132 q 620 353 620 262 q 558.5 565.5 620 490 q 383 641 497 641 q 256.5 607 309 641 q 176 508.5 204 573 q 148 353 148 444 q 210 140.5 148 217 q 383 64 272 64 m 504 926 l 262 926 q 239.5 933 248 926 q 231 953 231 940 q 239.5 973.5 231 966 q 262 981 248 981 l 504 981 q 527 973.5 519 981 q 535 953 535 966 q 527 933 535 940 q 504 926 519 926 m 296 794 q 261.5 804.5 274 794 q 249 834 249 815 q 261.5 863.5 249 853 q 296 874 274 874 q 331 863.5 319 874 q 343 834 343 853 q 331 804.5 343 815 q 296 794 319 794 m 471 794 q 435.5 804.5 448 794 q 423 834 423 815 q 435.5 863.5 423 853 q 471 874 448 874 q 505 863.5 493 874 q 517 834 517 853 q 505 804.5 517 815 q 471 794 493 794"},"Ȱ":{"ha":767,"x_min":61,"x_max":707,"o":"m 383 -9 q 212.5 35.5 285 -9 q 100.5 161 140 80 q 61 353 61 242 q 83.5 503.5 61 437 q 148 616.5 106 570 q 249.5 688.5 190 663 q 383 714 309 714 q 555.5 670 483 714 q 667.5 545.5 628 626 q 707 354 707 465 q 684 203 707 270 q 619 89 661 136 q 517.5 16.5 577 42 q 383 -9 458 -9 m 383 64 q 511.5 98 459 64 q 592 197 564 132 q 620 353 620 262 q 558.5 565.5 620 490 q 383 641 497 641 q 256.5 607 309 641 q 176 508.5 204 573 q 148 353 148 444 q 210 140.5 148 217 q 383 64 272 64 m 504 926 l 262 926 q 239.5 933 248 926 q 231 953 231 940 q 239.5 973.5 231 966 q 262 981 248 981 l 504 981 q 527 973.5 519 981 q 535 953 535 966 q 527 933 535 940 q 504 926 519 926 m 384 794 q 349.5 804.5 362 794 q 337 834 337 815 q 349.5 863.5 337 853 q 384 874 362 874 q 419 863.5 407 874 q 431 834 431 853 q 419 804.5 431 815 q 384 794 407 794"},"Ọ":{"ha":767,"x_min":61,"x_max":707,"o":"m 383 -9 q 212.5 35.5 285 -9 q 100.5 161 140 80 q 61 353 61 242 q 83.5 503.5 61 437 q 148 616.5 106 570 q 249.5 688.5 190 663 q 383 714 309 714 q 555.5 670 483 714 q 667.5 545.5 628 626 q 707 354 707 465 q 684 203 707 270 q 619 89 661 136 q 517.5 16.5 577 42 q 383 -9 458 -9 m 383 64 q 511.5 98 459 64 q 592 197 564 132 q 620 353 620 262 q 558.5 565.5 620 490 q 383 641 497 641 q 256.5 607 309 641 q 176 508.5 204 573 q 148 353 148 444 q 210 140.5 148 217 q 383 64 272 64 m 383 -191 q 347 -178 360 -191 q 334 -143 334 -165 q 347 -108 334 -120 q 383 -96 360 -96 q 420 -108 407 -96 q 433 -143 433 -120 q 420 -178 433 -165 q 383 -191 407 -191"},"Ò":{"ha":767,"x_min":61,"x_max":707,"o":"m 383 -9 q 212.5 35.5 285 -9 q 100.5 161 140 80 q 61 353 61 242 q 83.5 503.5 61 437 q 148 616.5 106 570 q 249.5 688.5 190 663 q 383 714 309 714 q 555.5 670 483 714 q 667.5 545.5 628 626 q 707 354 707 465 q 684 203 707 270 q 619 89 661 136 q 517.5 16.5 577 42 q 383 -9 458 -9 m 383 64 q 511.5 98 459 64 q 592 197 564 132 q 620 353 620 262 q 558.5 565.5 620 490 q 383 641 497 641 q 256.5 607 309 641 q 176 508.5 204 573 q 148 353 148 444 q 210 140.5 148 217 q 383 64 272 64 m 348 769 l 244 892 q 235.5 913.5 235 903 q 243 932 236 924 q 260.5 943.5 250 940 q 282.5 944 271 947 q 302 928 294 941 l 391 799 q 395.5 779 398 788 q 385 764.5 393 770 q 367 759.5 377 759 q 348 769 357 760"},"Ỏ":{"ha":767,"x_min":61,"x_max":707,"o":"m 383 -9 q 212.5 35.5 285 -9 q 100.5 161 140 80 q 61 353 61 242 q 83.5 503.5 61 437 q 148 616.5 106 570 q 249.5 688.5 190 663 q 383 714 309 714 q 555.5 670 483 714 q 667.5 545.5 628 626 q 707 354 707 465 q 684 203 707 270 q 619 89 661 136 q 517.5 16.5 577 42 q 383 -9 458 -9 m 383 64 q 511.5 98 459 64 q 592 197 564 132 q 620 353 620 262 q 558.5 565.5 620 490 q 383 641 497 641 q 256.5 607 309 641 q 176 508.5 204 573 q 148 353 148 444 q 210 140.5 148 217 q 383 64 272 64 m 383 758 q 362.5 763.5 370 758 q 355 781 355 769 q 364.5 813.5 355 801 q 386.5 835 374 826 q 408.5 852 399 844 q 418 872 418 860 q 406.5 889 418 883 q 372 895 395 895 q 352 894 363 895 q 331 889 341 893 q 307.5 887 316 885 q 296 900 299 889 q 297 918 293 910 q 313 931 301 926 q 348.5 940 329 937 q 388 943 368 943 q 458.5 926 433 943 q 484 881 484 909 q 473 847 484 860 q 447.5 825.5 462 834 q 422 806 433 817 q 411 776 411 795 q 404 763 411 768 q 383 758 397 758"},"Ơ":{"ha":767,"x_min":61,"x_max":707,"o":"m 383 -9 q 212.5 35.5 285 -9 q 100.5 161 140 80 q 61 353 61 242 q 83.5 503.5 61 437 q 148 616.5 106 570 q 249.5 688.5 190 663 q 383 714 309 714 q 454 708 420 714 q 485 706 471 707 q 523 705 504 705 q 588.5 717 565 705 q 622 751.5 612 729 q 632 807 632 774 q 641 832.5 632 823 q 668 842 650 842 q 695 832.5 686 842 q 704 805 704 823 q 686.5 727 704 761 q 637 674 669 693 q 577 656 611 659 q 668 546 634 614 q 707 354 707 465 q 684 203 707 270 q 619 89 661 136 q 517.5 16.5 577 42 q 383 -9 458 -9 m 383 64 q 511.5 98 459 64 q 592 197 564 132 q 620 353 620 262 q 558.5 565.5 620 490 q 383 641 497 641 q 256.5 607 309 641 q 176 508.5 204 573 q 148 353 148 444 q 210 140.5 148 217 q 383 64 272 64"},"Ớ":{"ha":767,"x_min":61,"x_max":707,"o":"m 383 -9 q 212.5 35.5 285 -9 q 100.5 161 140 80 q 61 353 61 242 q 83.5 503.5 61 437 q 148 616.5 106 570 q 249.5 688.5 190 663 q 383 714 309 714 q 454 708 420 714 q 485 706 471 707 q 523 705 504 705 q 588.5 717 565 705 q 622 751.5 612 729 q 632 807 632 774 q 641 832.5 632 823 q 668 842 650 842 q 695 832.5 686 842 q 704 805 704 823 q 686.5 727 704 761 q 637 674 669 693 q 577 656 611 659 q 668 546 634 614 q 707 354 707 465 q 684 203 707 270 q 619 89 661 136 q 517.5 16.5 577 42 q 383 -9 458 -9 m 383 64 q 511.5 98 459 64 q 592 197 564 132 q 620 353 620 262 q 558.5 565.5 620 490 q 383 641 497 641 q 256.5 607 309 641 q 176 508.5 204 573 q 148 353 148 444 q 210 140.5 148 217 q 383 64 272 64 m 521 892 l 417 769 q 398.5 759.5 409 760 q 380 764.5 388 759 q 369.5 779 372 770 q 374 799 367 788 l 463 928 q 483 944 472 941 q 505 943.5 494 947 q 522.5 932 516 940 q 529.5 913.5 529 924 q 521 892 530 903"},"Ợ":{"ha":767,"x_min":61,"x_max":707,"o":"m 383 -9 q 212.5 35.5 285 -9 q 100.5 161 140 80 q 61 353 61 242 q 83.5 503.5 61 437 q 148 616.5 106 570 q 249.5 688.5 190 663 q 383 714 309 714 q 454 708 420 714 q 485 706 471 707 q 523 705 504 705 q 588.5 717 565 705 q 622 751.5 612 729 q 632 807 632 774 q 641 832.5 632 823 q 668 842 650 842 q 695 832.5 686 842 q 704 805 704 823 q 686.5 727 704 761 q 637 674 669 693 q 577 656 611 659 q 668 546 634 614 q 707 354 707 465 q 684 203 707 270 q 619 89 661 136 q 517.5 16.5 577 42 q 383 -9 458 -9 m 383 64 q 511.5 98 459 64 q 592 197 564 132 q 620 353 620 262 q 558.5 565.5 620 490 q 383 641 497 641 q 256.5 607 309 641 q 176 508.5 204 573 q 148 353 148 444 q 210 140.5 148 217 q 383 64 272 64 m 383 -191 q 347 -178 360 -191 q 334 -143 334 -165 q 347 -108 334 -120 q 383 -96 360 -96 q 420 -108 407 -96 q 433 -143 433 -120 q 420 -178 433 -165 q 383 -191 407 -191"},"Ờ":{"ha":767,"x_min":61,"x_max":707,"o":"m 383 -9 q 212.5 35.5 285 -9 q 100.5 161 140 80 q 61 353 61 242 q 83.5 503.5 61 437 q 148 616.5 106 570 q 249.5 688.5 190 663 q 383 714 309 714 q 454 708 420 714 q 485 706 471 707 q 523 705 504 705 q 588.5 717 565 705 q 622 751.5 612 729 q 632 807 632 774 q 641 832.5 632 823 q 668 842 650 842 q 695 832.5 686 842 q 704 805 704 823 q 686.5 727 704 761 q 637 674 669 693 q 577 656 611 659 q 668 546 634 614 q 707 354 707 465 q 684 203 707 270 q 619 89 661 136 q 517.5 16.5 577 42 q 383 -9 458 -9 m 383 64 q 511.5 98 459 64 q 592 197 564 132 q 620 353 620 262 q 558.5 565.5 620 490 q 383 641 497 641 q 256.5 607 309 641 q 176 508.5 204 573 q 148 353 148 444 q 210 140.5 148 217 q 383 64 272 64 m 347 769 l 243 892 q 234.5 913.5 234 903 q 242 932 235 924 q 259.5 943.5 249 940 q 281.5 944 270 947 q 301 928 293 941 l 390 799 q 394.5 779 397 788 q 384 764.5 392 770 q 366 759.5 376 759 q 347 769 356 760"},"Ở":{"ha":767,"x_min":61,"x_max":707,"o":"m 383 -9 q 212.5 35.5 285 -9 q 100.5 161 140 80 q 61 353 61 242 q 83.5 503.5 61 437 q 148 616.5 106 570 q 249.5 688.5 190 663 q 383 714 309 714 q 454 708 420 714 q 485 706 471 707 q 523 705 504 705 q 588.5 717 565 705 q 622 751.5 612 729 q 632 807 632 774 q 641 832.5 632 823 q 668 842 650 842 q 695 832.5 686 842 q 704 805 704 823 q 686.5 727 704 761 q 637 674 669 693 q 577 656 611 659 q 668 546 634 614 q 707 354 707 465 q 684 203 707 270 q 619 89 661 136 q 517.5 16.5 577 42 q 383 -9 458 -9 m 383 64 q 511.5 98 459 64 q 592 197 564 132 q 620 353 620 262 q 558.5 565.5 620 490 q 383 641 497 641 q 256.5 607 309 641 q 176 508.5 204 573 q 148 353 148 444 q 210 140.5 148 217 q 383 64 272 64 m 382 758 q 361.5 763.5 369 758 q 354 781 354 769 q 363.5 813.5 354 801 q 385.5 835 373 826 q 407.5 852 398 844 q 417 872 417 860 q 405.5 889 417 883 q 371 895 394 895 q 351 894 362 895 q 330 889 340 893 q 306.5 887 315 885 q 295 900 298 889 q 296 918 292 910 q 312 931 300 926 q 347.5 940 328 937 q 387 943 367 943 q 457.5 926 432 943 q 483 881 483 909 q 472 847 483 860 q 446.5 825.5 461 834 q 421 806 432 817 q 410 776 410 795 q 403 763 410 768 q 382 758 396 758"},"Ỡ":{"ha":767,"x_min":61,"x_max":707,"o":"m 383 -9 q 212.5 35.5 285 -9 q 100.5 161 140 80 q 61 353 61 242 q 83.5 503.5 61 437 q 148 616.5 106 570 q 249.5 688.5 190 663 q 383 714 309 714 q 454 708 420 714 q 485 706 471 707 q 523 705 504 705 q 588.5 717 565 705 q 622 751.5 612 729 q 632 807 632 774 q 641 832.5 632 823 q 668 842 650 842 q 695 832.5 686 842 q 704 805 704 823 q 686.5 727 704 761 q 637 674 669 693 q 577 656 611 659 q 668 546 634 614 q 707 354 707 465 q 684 203 707 270 q 619 89 661 136 q 517.5 16.5 577 42 q 383 -9 458 -9 m 383 64 q 511.5 98 459 64 q 592 197 564 132 q 620 353 620 262 q 558.5 565.5 620 490 q 383 641 497 641 q 256.5 607 309 641 q 176 508.5 204 573 q 148 353 148 444 q 210 140.5 148 217 q 383 64 272 64 m 207 780 q 190.5 787 197 780 q 186 808 184 794 q 225.5 889.5 195 860 q 299 919 256 919 q 345.5 907.5 325 919 q 384 881 366 896 q 420 854.5 402 866 q 457 843 438 843 q 499 860 482 843 q 522 905 516 877 q 531.5 920.5 525 915 q 548 925 538 926 q 564.5 917.5 558 925 q 569 897 571 910 q 530 815.5 560 845 q 456 786 500 786 q 410 797.5 431 786 q 370.5 823.5 389 809 q 334.5 850 352 838 q 298 862 317 862 q 256 845 273 862 q 233 800 239 828 q 224 784.5 231 790 q 207 780 217 779"},"Ő":{"ha":767,"x_min":61,"x_max":707,"o":"m 383 -9 q 212.5 35.5 285 -9 q 100.5 161 140 80 q 61 353 61 242 q 83.5 503.5 61 437 q 148 616.5 106 570 q 249.5 688.5 190 663 q 383 714 309 714 q 555.5 670 483 714 q 667.5 545.5 628 626 q 707 354 707 465 q 684 203 707 270 q 619 89 661 136 q 517.5 16.5 577 42 q 383 -9 458 -9 m 383 64 q 511.5 98 459 64 q 592 197 564 132 q 620 353 620 262 q 558.5 565.5 620 490 q 383 641 497 641 q 256.5 607 309 641 q 176 508.5 204 573 q 148 353 148 444 q 210 140.5 148 217 q 383 64 272 64 m 432 895 l 347 769 q 331.5 758 340 760 q 315.5 759.5 323 756 q 305.5 771 308 763 q 308 789 303 779 l 376 925 q 392.5 942.5 382 938 q 413.5 944.5 403 947 q 431 935 424 942 q 439.5 917.5 438 928 q 432 895 441 907 m 561 895 l 472 768 q 457 757.5 465 759 q 442 760 449 756 q 433 772 435 764 q 436 790 431 780 l 506 925 q 523.5 943 513 939 q 544 944.5 534 947 q 561 935 554 942 q 569 917.5 568 928 q 561 895 570 907"},"Ȏ":{"ha":767,"x_min":61,"x_max":707,"o":"m 383 -9 q 212.5 35.5 285 -9 q 100.5 161 140 80 q 61 353 61 242 q 83.5 503.5 61 437 q 148 616.5 106 570 q 249.5 688.5 190 663 q 383 714 309 714 q 555.5 670 483 714 q 667.5 545.5 628 626 q 707 354 707 465 q 684 203 707 270 q 619 89 661 136 q 517.5 16.5 577 42 q 383 -9 458 -9 m 383 64 q 511.5 98 459 64 q 592 197 564 132 q 620 353 620 262 q 558.5 565.5 620 490 q 383 641 497 641 q 256.5 607 309 641 q 176 508.5 204 573 q 148 353 148 444 q 210 140.5 148 217 q 383 64 272 64 m 239 759 q 221 768.5 228 760 q 217 792 214 777 q 278.5 900 233 865 q 383 935 324 935 q 488 900 442 935 q 549 792 534 865 q 545 768.5 552 777 q 527 759 538 760 q 512.5 761 519 758 q 502.5 769.5 506 764 q 498 782 499 775 q 454 858.5 486 836 q 383 881 422 881 q 312.5 858.5 345 881 q 268 782 280 836 q 263.5 769.5 267 775 q 253.5 761 260 764 q 239 759 247 758"},"Ō":{"ha":767,"x_min":61,"x_max":707,"o":"m 383 -9 q 212.5 35.5 285 -9 q 100.5 161 140 80 q 61 353 61 242 q 83.5 503.5 61 437 q 148 616.5 106 570 q 249.5 688.5 190 663 q 383 714 309 714 q 555.5 670 483 714 q 667.5 545.5 628 626 q 707 354 707 465 q 684 203 707 270 q 619 89 661 136 q 517.5 16.5 577 42 q 383 -9 458 -9 m 383 64 q 511.5 98 459 64 q 592 197 564 132 q 620 353 620 262 q 558.5 565.5 620 490 q 383 641 497 641 q 256.5 607 309 641 q 176 508.5 204 573 q 148 353 148 444 q 210 140.5 148 217 q 383 64 272 64 m 519 814 l 247 814 q 218 842 218 814 q 225.5 862 218 855 q 247 869 233 869 l 519 869 q 549 842 549 869 q 541.5 821.5 549 829 q 519 814 534 814"},"Ṓ":{"ha":767,"x_min":61,"x_max":707,"o":"m 383 -9 q 212.5 35.5 285 -9 q 100.5 161 140 80 q 61 353 61 242 q 83.5 503.5 61 437 q 148 616.5 106 570 q 249.5 688.5 190 663 q 383 714 309 714 q 555.5 670 483 714 q 667.5 545.5 628 626 q 707 354 707 465 q 684 203 707 270 q 619 89 661 136 q 517.5 16.5 577 42 q 383 -9 458 -9 m 383 64 q 511.5 98 459 64 q 592 197 564 132 q 620 353 620 262 q 558.5 565.5 620 490 q 383 641 497 641 q 256.5 607 309 641 q 176 508.5 204 573 q 148 353 148 444 q 210 140.5 148 217 q 383 64 272 64 m 504 790 l 262 790 q 239.5 797 248 790 q 231 817 231 804 q 239.5 837.5 231 830 q 262 845 248 845 l 504 845 q 527 837.5 519 845 q 535 817 535 830 q 527 797 535 804 q 504 790 519 790 m 495 986 l 410 880 q 393.5 870.5 403 871 q 376.5 874.5 384 870 q 366.5 888 369 879 q 370 908 364 897 l 437 1017 q 456 1034.5 445 1030 q 477.5 1036 467 1039 q 495 1025.5 488 1033 q 503 1007.5 502 1018 q 495 986 504 997"},"Ṑ":{"ha":767,"x_min":61,"x_max":707,"o":"m 383 -9 q 212.5 35.5 285 -9 q 100.5 161 140 80 q 61 353 61 242 q 83.5 503.5 61 437 q 148 616.5 106 570 q 249.5 688.5 190 663 q 383 714 309 714 q 555.5 670 483 714 q 667.5 545.5 628 626 q 707 354 707 465 q 684 203 707 270 q 619 89 661 136 q 517.5 16.5 577 42 q 383 -9 458 -9 m 383 64 q 511.5 98 459 64 q 592 197 564 132 q 620 353 620 262 q 558.5 565.5 620 490 q 383 641 497 641 q 256.5 607 309 641 q 176 508.5 204 573 q 148 353 148 444 q 210 140.5 148 217 q 383 64 272 64 m 356 880 l 271 986 q 263 1007.5 262 997 q 271 1025.5 264 1018 q 288.5 1036 278 1033 q 310 1034.5 299 1039 q 329 1017 321 1030 l 396 908 q 399.5 888 402 897 q 389.5 874.5 397 879 q 372.5 870.5 382 870 q 356 880 363 871 m 504 790 l 262 790 q 239.5 797 248 790 q 231 817 231 804 q 239.5 837.5 231 830 q 262 845 248 845 l 504 845 q 527 837.5 519 845 q 535 817 535 830 q 527 797 535 804 q 504 790 519 790"},"Ǫ":{"ha":767,"x_min":61,"x_max":707,"o":"m 421 -192 q 345 -166 374 -192 q 316 -95 316 -140 q 342 -19 316 -55 q 351 -8 346 -13 q 213 36 273 -2 q 100.5 161 140 80 q 61 353 61 242 q 83.5 503.5 61 437 q 148 616.5 106 570 q 249.5 688.5 190 663 q 383 714 309 714 q 555.5 670 483 714 q 667.5 545.5 628 626 q 707 354 707 465 q 684 203 707 270 q 619 89 661 136 q 518 17 577 42 q 426 -7 476 -1 q 410 -18 418 -12 q 384 -48 394 -31 q 374 -86 374 -65 q 390.5 -128 374 -114 q 432 -142 407 -142 q 449.5 -140.5 441 -142 q 467 -136 458 -139 q 488 -137 480 -132 q 497.5 -151.5 496 -142 q 495 -170 499 -161 q 480 -183 491 -179 q 450 -190.5 465 -189 q 421 -192 435 -192 m 383 64 q 511.5 98 459 64 q 592 197 564 132 q 620 353 620 262 q 558.5 565.5 620 490 q 383 641 497 641 q 256.5 607 309 641 q 176 508.5 204 573 q 148 353 148 444 q 210 140.5 148 217 q 383 64 272 64"},"Ø":{"ha":767,"x_min":61,"x_max":707,"o":"m 383 -9 q 231 25 297 -9 l 201 -26 q 184.5 -41 194 -38 q 165 -41.5 175 -44 q 148 -31.5 155 -39 q 139.5 -13.5 141 -24 q 145 9 138 -3 l 176 62 q 101 161 129 102 q 61 353 61 242 q 83.5 503.5 61 437 q 148 616.5 106 570 q 249.5 688.5 190 663 q 383 714 309 714 q 537 680 470 714 l 566 731 q 582.5 746 573 743 q 602.5 746.5 592 749 q 620 737 613 744 q 628.5 719 627 730 q 622 696 630 708 l 592 644 q 668 546 638 605 q 707 354 707 465 q 684 203 707 270 q 619 89 661 136 q 517.5 16.5 577 42 q 383 -9 458 -9 m 383 64 q 511.5 98 459 64 q 592 197 564 132 q 620 353 620 262 q 559 566 620 490 q 550 575 555 570 l 268 91 q 383 64 317 64 m 217 132 l 500 614 q 383 641 451 641 q 256.5 607 309 641 q 176 508.5 204 573 q 148 353 148 444 q 210 141 148 217 q 217 132 214 136"},"Ǿ":{"ha":767,"x_min":61,"x_max":707,"o":"m 383 -9 q 231 25 297 -9 l 201 -26 q 184.5 -41 194 -38 q 165 -41.5 175 -44 q 148 -31.5 155 -39 q 139.5 -13.5 141 -24 q 145 9 138 -3 l 176 62 q 101 161 129 102 q 61 353 61 242 q 83.5 503.5 61 437 q 148 616.5 106 570 q 249.5 688.5 190 663 q 383 714 309 714 q 537 680 470 714 l 566 731 q 582.5 746 573 743 q 602.5 746.5 592 749 q 620 737 613 744 q 628.5 719 627 730 q 622 696 630 708 l 592 644 q 668 546 638 605 q 707 354 707 465 q 684 203 707 270 q 619 89 661 136 q 517.5 16.5 577 42 q 383 -9 458 -9 m 383 64 q 511.5 98 459 64 q 592 197 564 132 q 620 353 620 262 q 559 566 620 490 q 550 575 555 570 l 268 91 q 383 64 317 64 m 217 132 l 500 614 q 383 641 451 641 q 256.5 607 309 641 q 176 508.5 204 573 q 148 353 148 444 q 210 141 148 217 q 217 132 214 136 m 522 892 l 418 769 q 399.5 759.5 410 760 q 381 764.5 389 759 q 370.5 779 373 770 q 375 799 368 788 l 464 928 q 484 944 473 941 q 506 943.5 495 947 q 523.5 932 517 940 q 530.5 913.5 530 924 q 522 892 531 903"},"Õ":{"ha":767,"x_min":61,"x_max":707,"o":"m 383 -9 q 212.5 35.5 285 -9 q 100.5 161 140 80 q 61 353 61 242 q 83.5 503.5 61 437 q 148 616.5 106 570 q 249.5 688.5 190 663 q 383 714 309 714 q 555.5 670 483 714 q 667.5 545.5 628 626 q 707 354 707 465 q 684 203 707 270 q 619 89 661 136 q 517.5 16.5 577 42 q 383 -9 458 -9 m 383 64 q 511.5 98 459 64 q 592 197 564 132 q 620 353 620 262 q 558.5 565.5 620 490 q 383 641 497 641 q 256.5 607 309 641 q 176 508.5 204 573 q 148 353 148 444 q 210 140.5 148 217 q 383 64 272 64 m 199 780 q 181.5 787.5 188 780 q 177 808 175 795 q 218.5 890 187 861 q 294 919 250 919 q 345 907.5 321 919 q 391.5 881 369 896 q 434.5 854.5 414 866 q 475 843 455 843 q 519 860 502 843 q 541 905 536 877 q 550.5 921 544 916 q 567 925 557 926 q 585 917.5 578 925 q 589 897 592 910 q 548.5 815 579 844 q 473 786 518 786 q 421.5 797.5 446 786 q 375 823.5 397 809 q 332 850 353 838 q 291 862 311 862 q 247.5 845 265 862 q 225 800 230 828 q 215.5 784.5 222 790 q 199 780 209 779"},"Ṍ":{"ha":767,"x_min":61,"x_max":707,"o":"m 383 -9 q 212.5 35.5 285 -9 q 100.5 161 140 80 q 61 353 61 242 q 83.5 503.5 61 437 q 148 616.5 106 570 q 249.5 688.5 190 663 q 383 714 309 714 q 555.5 670 483 714 q 667.5 545.5 628 626 q 707 354 707 465 q 684 203 707 270 q 619 89 661 136 q 517.5 16.5 577 42 q 383 -9 458 -9 m 383 64 q 511.5 98 459 64 q 592 197 564 132 q 620 353 620 262 q 558.5 565.5 620 490 q 383 641 497 641 q 256.5 607 309 641 q 176 508.5 204 573 q 148 353 148 444 q 210 140.5 148 217 q 383 64 272 64 m 494 984 l 410 880 q 393.5 871 403 872 q 376.5 874.5 384 870 q 366.5 888 369 879 q 370 908 364 897 l 437 1017 q 456 1034 445 1030 q 477.5 1035.5 467 1038 q 495 1025 488 1033 q 502.5 1006 502 1017 q 494 984 503 995 m 248 766 q 232.5 775 238 767 q 230 796 227 783 q 262 851.5 239 833 q 319 870 285 870 q 367 857 346 870 q 407 831 388 844 q 446 818 426 818 q 475 825.5 463 818 q 491 851 487 833 q 501 867.5 494 862 q 519 872 508 873 q 534.5 863 529 871 q 537 841 540 855 q 504.5 786 528 804 q 448 768 481 768 q 399.5 781 421 768 q 359.5 807 378 794 q 320 820 341 820 q 291.5 812.5 303 820 q 275 787 280 805 q 265.5 771 272 777 q 248 766 259 765"},"Ṏ":{"ha":767,"x_min":61,"x_max":707,"o":"m 383 -9 q 212.5 35.5 285 -9 q 100.5 161 140 80 q 61 353 61 242 q 83.5 503.5 61 437 q 148 616.5 106 570 q 249.5 688.5 190 663 q 383 714 309 714 q 555.5 670 483 714 q 667.5 545.5 628 626 q 707 354 707 465 q 684 203 707 270 q 619 89 661 136 q 517.5 16.5 577 42 q 383 -9 458 -9 m 383 64 q 511.5 98 459 64 q 592 197 564 132 q 620 353 620 262 q 558.5 565.5 620 490 q 383 641 497 641 q 256.5 607 309 641 q 176 508.5 204 573 q 148 353 148 444 q 210 140.5 148 217 q 383 64 272 64 m 248 766 q 232.5 775 238 767 q 230 796 227 783 q 262 851.5 239 833 q 319 870 285 870 q 367 857 346 870 q 407 831 388 844 q 446 818 426 818 q 475 825.5 463 818 q 491 851 487 833 q 501 867.5 494 862 q 519 872 508 873 q 534.5 863 529 871 q 537 841 540 855 q 504.5 786 528 804 q 448 768 481 768 q 399.5 781 421 768 q 359.5 807 378 794 q 320 820 341 820 q 291.5 812.5 303 820 q 275 787 280 805 q 266 771 273 777 q 248 766 259 765 m 296 908 q 261.5 918.5 274 908 q 249 948 249 929 q 261.5 977.5 249 967 q 296 988 274 988 q 331 977.5 319 988 q 343 948 343 967 q 331 918.5 343 929 q 296 908 319 908 m 471 908 q 435.5 918.5 448 908 q 423 948 423 929 q 435.5 977.5 423 967 q 471 988 448 988 q 505 977.5 493 988 q 517 948 517 967 q 505 918.5 517 929 q 471 908 493 908"},"Ȭ":{"ha":767,"x_min":61,"x_max":707,"o":"m 383 -9 q 212.5 35.5 285 -9 q 100.5 161 140 80 q 61 353 61 242 q 83.5 503.5 61 437 q 148 616.5 106 570 q 249.5 688.5 190 663 q 383 714 309 714 q 555.5 670 483 714 q 667.5 545.5 628 626 q 707 354 707 465 q 684 203 707 270 q 619 89 661 136 q 517.5 16.5 577 42 q 383 -9 458 -9 m 383 64 q 511.5 98 459 64 q 592 197 564 132 q 620 353 620 262 q 558.5 565.5 620 490 q 383 641 497 641 q 256.5 607 309 641 q 176 508.5 204 573 q 148 353 148 444 q 210 140.5 148 217 q 383 64 272 64 m 504 926 l 262 926 q 239.5 933 248 926 q 231 953 231 940 q 239.5 973.5 231 966 q 262 981 248 981 l 504 981 q 527 973.5 519 981 q 535 953 535 966 q 527 933 535 940 q 504 926 519 926 m 248 766 q 232.5 775 238 767 q 230 796 227 783 q 262 851.5 239 833 q 319 870 285 870 q 367 857 346 870 q 407 831 388 844 q 446 818 426 818 q 475 825.5 463 818 q 491 851 487 833 q 501 867.5 494 862 q 519 872 508 873 q 534.5 863 529 871 q 537 841 540 855 q 504.5 786 528 804 q 448 768 481 768 q 399.5 781 421 768 q 359.5 807 378 794 q 320 820 341 820 q 291.5 812.5 303 820 q 275 787 280 805 q 265.5 771 272 777 q 248 766 259 765"},"Œ":{"ha":1046,"x_min":61,"x_max":1003,"o":"m 967 0 l 418 0 q 153.5 91 246 0 q 61 353 61 182 q 84.5 504.5 61 439 q 154 615 108 570 q 266 682.5 200 660 q 418 705 332 705 l 967 705 q 993.5 696 984 705 q 1003 671 1003 687 q 993.5 645 1003 654 q 967 636 984 636 l 631 636 l 631 392 l 946 392 q 973 383.5 964 392 q 982 358 982 375 q 973 332 982 341 q 946 323 964 323 l 631 323 l 631 69 l 967 69 q 993.5 60 984 69 q 1003 35 1003 51 q 993.5 9 1003 18 q 967 0 984 0 m 424 70 l 551 70 l 551 635 l 424 635 q 303 617.5 355 635 q 216.5 564.5 251 600 q 165 476 182 529 q 148 353 148 423 q 216.5 141 148 212 q 424 70 285 70"},"P":{"ha":633,"x_min":87,"x_max":601,"o":"m 128 -7 q 97.5 4.5 108 -7 q 87 36 87 16 l 87 663 q 98 694.5 87 684 q 129 705 109 705 l 366 705 q 540 649.5 479 705 q 601 493 601 594 q 540 337 601 393 q 366 281 479 281 l 169 281 l 169 36 q 159 4.5 169 16 q 128 -7 149 -7 m 169 637 l 169 350 l 356 350 q 478.5 386.5 437 350 q 520 493 520 423 q 478.5 600.5 520 564 q 356 637 437 637 l 169 637"},"Þ":{"ha":634,"x_min":87,"x_max":602,"o":"m 128 -5 q 97.5 6.5 108 -5 q 87 38 87 18 l 87 667 q 98 699 87 688 q 129 710 109 710 q 159 699.5 149 710 q 169 671 169 689 l 169 577 l 367 577 q 541 522 480 577 q 602 366 602 467 q 541 209.5 602 265 q 367 154 480 154 l 169 154 l 169 38 q 159 6.5 169 18 q 128 -5 149 -5 m 169 509 l 169 222 l 357 222 q 479 258.5 438 222 q 520 366 520 295 q 479 473 520 437 q 357 509 438 509 l 169 509"},"Q":{"ha":767,"x_min":61,"x_max":707,"o":"m 580 -57 l 627 -133 q 635.5 -160.5 637 -148 q 625.5 -181.5 634 -173 q 605 -192.5 617 -190 q 580.5 -189.5 593 -195 q 559 -169 568 -184 l 494 -66 q 450 -23.5 478 -38 q 383 -9 422 -9 q 212.5 35.5 285 -9 q 100.5 161 140 80 q 61 353 61 242 q 83.5 503.5 61 437 q 148 616.5 106 570 q 249.5 688.5 190 663 q 383 714 309 714 q 555.5 670 483 714 q 667.5 545.5 628 626 q 707 354 707 465 q 684 203 707 270 q 619 89 661 136 q 518 17 577 42 q 507 12 512 14 q 526 4 517 9 q 580 -57 553 -13 m 383 64 q 511.5 98 459 64 q 592 197 564 132 q 620 353 620 262 q 558.5 565.5 620 490 q 383 641 497 641 q 256.5 607 309 641 q 176 508.5 204 573 q 148 353 148 444 q 210 140.5 148 217 q 383 64 272 64"},"R":{"ha":669,"x_min":87,"x_max":620.53,"o":"m 128 -7 q 97.5 4.5 108 -7 q 87 36 87 16 l 87 663 q 98 694.5 87 684 q 129 705 109 705 l 366 705 q 540 652 479 705 q 601 501 601 599 q 573.5 393.5 601 439 q 493 325 546 348 q 438 307 468 313 q 464 294 452 303 q 517 230 493 274 l 613 51 q 620.5 23.5 621 37 q 611 1.5 620 10 q 585 -7 602 -7 q 557 1 568 -7 q 538 24 546 9 l 429 226 q 376 283.5 406 269 q 297 298 346 298 l 169 298 l 169 36 q 159 4.5 169 16 q 128 -7 149 -7 m 169 637 l 169 363 l 354 363 q 478 397.5 436 363 q 520 501 520 432 q 478 602.5 520 568 q 354 637 436 637 l 169 637"},"Ŕ":{"ha":669,"x_min":87,"x_max":620.53,"o":"m 128 -7 q 97.5 4.5 108 -7 q 87 36 87 16 l 87 663 q 98 694.5 87 684 q 129 705 109 705 l 366 705 q 540 652 479 705 q 601 501 601 599 q 573.5 393.5 601 439 q 493 325 546 348 q 438 307 468 313 q 464 294 452 303 q 517 230 493 274 l 613 51 q 620.5 23.5 621 37 q 611 1.5 620 10 q 585 -7 602 -7 q 557 1 568 -7 q 538 24 546 9 l 429 226 q 376 283.5 406 269 q 297 298 346 298 l 169 298 l 169 36 q 159 4.5 169 16 q 128 -7 149 -7 m 169 637 l 169 363 l 354 363 q 478 397.5 436 363 q 520 501 520 432 q 478 602.5 520 568 q 354 637 436 637 l 169 637 m 480 892 l 376 769 q 357.5 759.5 368 760 q 339 764.5 347 759 q 328.5 779 331 770 q 333 799 326 788 l 422 928 q 442 944 431 941 q 464 943.5 453 947 q 481.5 932 475 940 q 488.5 913.5 488 924 q 480 892 489 903"},"Ř":{"ha":669,"x_min":87,"x_max":620.53,"o":"m 128 -7 q 97.5 4.5 108 -7 q 87 36 87 16 l 87 663 q 98 694.5 87 684 q 129 705 109 705 l 366 705 q 540 652 479 705 q 601 501 601 599 q 573.5 393.5 601 439 q 493 325 546 348 q 438 307 468 313 q 464 294 452 303 q 517 230 493 274 l 613 51 q 620.5 23.5 621 37 q 611 1.5 620 10 q 585 -7 602 -7 q 557 1 568 -7 q 538 24 546 9 l 429 226 q 376 283.5 406 269 q 297 298 346 298 l 169 298 l 169 36 q 159 4.5 169 16 q 128 -7 149 -7 m 169 637 l 169 363 l 354 363 q 478 397.5 436 363 q 520 501 520 432 q 478 602.5 520 568 q 354 637 436 637 l 169 637 m 341 756 q 313 762.5 326 756 q 290 783 300 769 l 202 907 q 197 926.5 195 917 q 207 941 199 936 q 225.5 944.5 215 946 q 245 933 236 943 l 341 818 l 438 933 q 456.5 944.5 446 943 q 475 941 467 946 q 485 926.5 483 936 q 480 907 487 917 l 393 783 q 369.5 762.5 382 769 q 341 756 357 756"},"Ŗ":{"ha":669,"x_min":87,"x_max":620.53,"o":"m 128 -7 q 97.5 4.5 108 -7 q 87 36 87 16 l 87 663 q 98 694.5 87 684 q 129 705 109 705 l 366 705 q 540 652 479 705 q 601 501 601 599 q 573.5 393.5 601 439 q 493 325 546 348 q 438 307 468 313 q 464 294 452 303 q 517 230 493 274 l 613 51 q 620.5 23.5 621 37 q 611 1.5 620 10 q 585 -7 602 -7 q 557 1 568 -7 q 538 24 546 9 l 429 226 q 376 283.5 406 269 q 297 298 346 298 l 169 298 l 169 36 q 159 4.5 169 16 q 128 -7 149 -7 m 169 637 l 169 363 l 354 363 q 478 397.5 436 363 q 520 501 520 432 q 478 602.5 520 568 q 354 637 436 637 l 169 637 m 355 -250 q 336.5 -262 346 -260 q 319.5 -258.5 327 -264 q 311.5 -244 312 -253 q 319 -222 311 -235 q 336 -189 330 -207 q 340 -171 338 -180 q 304 -158 317 -170 q 289 -123 289 -145 q 302.5 -88 289 -101 q 340 -75 316 -75 q 378.5 -89.5 365 -75 q 392 -133 392 -104 q 388 -173 392 -152 q 376 -214 384 -194 q 355 -250 368 -234"},"Ȑ":{"ha":669,"x_min":87,"x_max":620.53,"o":"m 128 -7 q 97.5 4.5 108 -7 q 87 36 87 16 l 87 663 q 98 694.5 87 684 q 129 705 109 705 l 366 705 q 540 652 479 705 q 601 501 601 599 q 573.5 393.5 601 439 q 493 325 546 348 q 438 307 468 313 q 464 294 452 303 q 517 230 493 274 l 613 51 q 620.5 23.5 621 37 q 611 1.5 620 10 q 585 -7 602 -7 q 557 1 568 -7 q 538 24 546 9 l 429 226 q 376 283.5 406 269 q 297 298 346 298 l 169 298 l 169 36 q 159 4.5 169 16 q 128 -7 149 -7 m 169 637 l 169 363 l 354 363 q 478 397.5 436 363 q 520 501 520 432 q 478 602.5 520 568 q 354 637 436 637 l 169 637 m 377 769 l 292 895 q 284.5 917.5 283 907 q 293 935 286 928 q 310.5 944.5 300 942 q 331.5 942.5 321 947 q 348 925 342 938 l 417 789 q 419 771 422 779 q 408.5 759.5 416 763 q 392.5 758 401 756 q 377 769 384 760 m 252 768 l 163 895 q 155 917.5 154 907 q 163 935 156 928 q 180.5 944.5 170 942 q 201 943 191 947 q 218 925 211 939 l 288 790 q 291 772.5 293 781 q 282 760 289 764 q 267 757.5 275 756 q 252 768 259 759"},"Ṛ":{"ha":669,"x_min":87,"x_max":620.53,"o":"m 128 -7 q 97.5 4.5 108 -7 q 87 36 87 16 l 87 663 q 98 694.5 87 684 q 129 705 109 705 l 366 705 q 540 652 479 705 q 601 501 601 599 q 573.5 393.5 601 439 q 493 325 546 348 q 438 307 468 313 q 464 294 452 303 q 517 230 493 274 l 613 51 q 620.5 23.5 621 37 q 611 1.5 620 10 q 585 -7 602 -7 q 557 1 568 -7 q 538 24 546 9 l 429 226 q 376 283.5 406 269 q 297 298 346 298 l 169 298 l 169 36 q 159 4.5 169 16 q 128 -7 149 -7 m 169 637 l 169 363 l 354 363 q 478 397.5 436 363 q 520 501 520 432 q 478 602.5 520 568 q 354 637 436 637 l 169 637 m 341 -191 q 305 -178 318 -191 q 292 -143 292 -165 q 305 -108 292 -120 q 341 -96 318 -96 q 378 -108 365 -96 q 391 -143 391 -120 q 378 -178 391 -165 q 341 -191 365 -191"},"Ȓ":{"ha":669,"x_min":87,"x_max":620.53,"o":"m 128 -7 q 97.5 4.5 108 -7 q 87 36 87 16 l 87 663 q 98 694.5 87 684 q 129 705 109 705 l 366 705 q 540 652 479 705 q 601 501 601 599 q 573.5 393.5 601 439 q 493 325 546 348 q 438 307 468 313 q 464 294 452 303 q 517 230 493 274 l 613 51 q 620.5 23.5 621 37 q 611 1.5 620 10 q 585 -7 602 -7 q 557 1 568 -7 q 538 24 546 9 l 429 226 q 376 283.5 406 269 q 297 298 346 298 l 169 298 l 169 36 q 159 4.5 169 16 q 128 -7 149 -7 m 169 637 l 169 363 l 354 363 q 478 397.5 436 363 q 520 501 520 432 q 478 602.5 520 568 q 354 637 436 637 l 169 637 m 197 759 q 179 768.5 186 760 q 175 792 172 777 q 236.5 900 191 865 q 341 935 282 935 q 446 900 400 935 q 507 792 492 865 q 503 768.5 510 777 q 485 759 496 760 q 470.5 761 477 758 q 460.5 769.5 464 764 q 456 782 457 775 q 412 858.5 444 836 q 341 881 380 881 q 270.5 858.5 303 881 q 226 782 238 836 q 221.5 769.5 225 775 q 211.5 761 218 764 q 197 759 205 758"},"Ṟ":{"ha":669,"x_min":87,"x_max":620.53,"o":"m 128 -7 q 97.5 4.5 108 -7 q 87 36 87 16 l 87 663 q 98 694.5 87 684 q 129 705 109 705 l 366 705 q 540 652 479 705 q 601 501 601 599 q 573.5 393.5 601 439 q 493 325 546 348 q 438 307 468 313 q 464 294 452 303 q 517 230 493 274 l 613 51 q 620.5 23.5 621 37 q 611 1.5 620 10 q 585 -7 602 -7 q 557 1 568 -7 q 538 24 546 9 l 429 226 q 376 283.5 406 269 q 297 298 346 298 l 169 298 l 169 36 q 159 4.5 169 16 q 128 -7 149 -7 m 169 637 l 169 363 l 354 363 q 478 397.5 436 363 q 520 501 520 432 q 478 602.5 520 568 q 354 637 436 637 l 169 637 m 462 -156 l 220 -156 q 191 -129 191 -156 q 198.5 -108 191 -115 q 220 -101 206 -101 l 462 -101 q 492 -129 492 -101 q 484.5 -148.5 492 -141 q 462 -156 477 -156"},"S":{"ha":615,"x_min":50.61,"x_max":575,"o":"m 315 -9 q 223 -1 268 -9 q 139.5 22 178 7 q 70 60 101 37 q 53.5 80.5 58 69 q 51.5 103.5 49 92 q 61.5 123 54 115 q 80 132 69 131 q 104 125 91 133 q 200 78.5 149 93 q 315 64 251 64 q 448.5 97.5 405 64 q 492 186 492 131 q 460.5 256.5 492 231 q 355 297 429 282 l 251 318 q 110.5 383.5 157 338 q 64 505 64 429 q 83 590.5 64 552 q 136 656.5 102 629 q 217 699 170 684 q 321 714 264 714 q 438.5 696.5 384 714 q 537 644 493 679 q 552 623.5 548 635 q 553 601.5 556 612 q 542.5 584 550 591 q 523.5 576 535 577 q 498 584 512 575 q 415 627.5 458 614 q 320 641 372 641 q 228.5 625 267 641 q 168.5 578.5 190 609 q 147 508 147 548 q 176.5 432 147 460 q 273 391 206 404 l 377 369 q 526.5 305.5 478 348 q 575 190 575 263 q 557 109 575 146 q 505 45.5 539 72 q 423 5 471 19 q 315 -9 375 -9"},"Ś":{"ha":615,"x_min":50.61,"x_max":575,"o":"m 315 -9 q 223 -1 268 -9 q 139.5 22 178 7 q 70 60 101 37 q 53.5 80.5 58 69 q 51.5 103.5 49 92 q 61.5 123 54 115 q 80 132 69 131 q 104 125 91 133 q 200 78.5 149 93 q 315 64 251 64 q 448.5 97.5 405 64 q 492 186 492 131 q 460.5 256.5 492 231 q 355 297 429 282 l 251 318 q 110.5 383.5 157 338 q 64 505 64 429 q 83 590.5 64 552 q 136 656.5 102 629 q 217 699 170 684 q 321 714 264 714 q 438.5 696.5 384 714 q 537 644 493 679 q 552 623.5 548 635 q 553 601.5 556 612 q 542.5 584 550 591 q 523.5 576 535 577 q 498 584 512 575 q 415 627.5 458 614 q 320 641 372 641 q 228.5 625 267 641 q 168.5 578.5 190 609 q 147 508 147 548 q 176.5 432 147 460 q 273 391 206 404 l 377 369 q 526.5 305.5 478 348 q 575 190 575 263 q 557 109 575 146 q 505 45.5 539 72 q 423 5 471 19 q 315 -9 375 -9 m 453 892 l 349 769 q 330.5 759.5 341 760 q 312 764.5 320 759 q 301.5 779 304 770 q 306 799 299 788 l 395 928 q 415 944 404 941 q 437 943.5 426 947 q 454.5 932 448 940 q 461.5 913.5 461 924 q 453 892 462 903"},"Ṥ":{"ha":615,"x_min":50.61,"x_max":575,"o":"m 315 -9 q 223 -1 268 -9 q 139.5 22 178 7 q 70 60 101 37 q 53.5 80.5 58 69 q 51.5 103.5 49 92 q 61.5 123 54 115 q 80 132 69 131 q 104 125 91 133 q 200 78.5 149 93 q 315 64 251 64 q 448.5 97.5 405 64 q 492 186 492 131 q 460.5 256.5 492 231 q 355 297 429 282 l 251 318 q 110.5 383.5 157 338 q 64 505 64 429 q 83 590.5 64 552 q 136 656.5 102 629 q 217 699 170 684 q 321 714 264 714 q 438.5 696.5 384 714 q 537 644 493 679 q 552 623.5 548 635 q 553 601.5 556 612 q 542.5 584 550 591 q 523.5 576 535 577 q 498 584 512 575 q 415 627.5 458 614 q 320 641 372 641 q 228.5 625 267 641 q 168.5 578.5 190 609 q 147 508 147 548 q 176.5 432 147 460 q 273 391 206 404 l 377 369 q 526.5 305.5 478 348 q 575 190 575 263 q 557 109 575 146 q 505 45.5 539 72 q 423 5 471 19 q 315 -9 375 -9 m 272 936 q 236.5 947 249 936 q 224 977 224 958 q 236.5 1006.5 224 996 q 272 1017 249 1017 q 306 1006.5 294 1017 q 318 977 318 996 q 306 947 318 958 q 272 936 294 936 m 453 893 l 348 768 q 329.5 757.5 340 758 q 311 762.5 319 757 q 300.5 777.5 303 768 q 306 799 298 787 l 396 929 q 417.5 947.5 406 944 q 439.5 947.5 429 951 q 456.5 935.5 450 944 q 463 916 463 927 q 453 893 463 905"},"Š":{"ha":615,"x_min":50.61,"x_max":575,"o":"m 315 -9 q 223 -1 268 -9 q 139.5 22 178 7 q 70 60 101 37 q 53.5 80.5 58 69 q 51.5 103.5 49 92 q 61.5 123 54 115 q 80 132 69 131 q 104 125 91 133 q 200 78.5 149 93 q 315 64 251 64 q 448.5 97.5 405 64 q 492 186 492 131 q 460.5 256.5 492 231 q 355 297 429 282 l 251 318 q 110.5 383.5 157 338 q 64 505 64 429 q 83 590.5 64 552 q 136 656.5 102 629 q 217 699 170 684 q 321 714 264 714 q 438.5 696.5 384 714 q 537 644 493 679 q 552 623.5 548 635 q 553 601.5 556 612 q 542.5 584 550 591 q 523.5 576 535 577 q 498 584 512 575 q 415 627.5 458 614 q 320 641 372 641 q 228.5 625 267 641 q 168.5 578.5 190 609 q 147 508 147 548 q 176.5 432 147 460 q 273 391 206 404 l 377 369 q 526.5 305.5 478 348 q 575 190 575 263 q 557 109 575 146 q 505 45.5 539 72 q 423 5 471 19 q 315 -9 375 -9 m 314 756 q 286 762.5 299 756 q 263 783 273 769 l 175 907 q 170 926.5 168 917 q 180 941 172 936 q 198.5 944.5 188 946 q 218 933 209 943 l 314 818 l 411 933 q 429.5 944.5 419 943 q 448 941 440 946 q 458 926.5 456 936 q 453 907 460 917 l 366 783 q 342.5 762.5 355 769 q 314 756 330 756"},"Ṧ":{"ha":615,"x_min":50.61,"x_max":575,"o":"m 315 -9 q 223 -1 268 -9 q 139.5 22 178 7 q 70 60 101 37 q 53.5 80.5 58 69 q 51.5 103.5 49 92 q 61.5 123 54 115 q 80 132 69 131 q 104 125 91 133 q 200 78.5 149 93 q 315 64 251 64 q 448.5 97.5 405 64 q 492 186 492 131 q 460.5 256.5 492 231 q 355 297 429 282 l 251 318 q 110.5 383.5 157 338 q 64 505 64 429 q 83 590.5 64 552 q 136 656.5 102 629 q 217 699 170 684 q 321 714 264 714 q 438.5 696.5 384 714 q 537 644 493 679 q 552 623.5 548 635 q 553 601.5 556 612 q 542.5 584 550 591 q 523.5 576 535 577 q 498 584 512 575 q 415 627.5 458 614 q 320 641 372 641 q 228.5 625 267 641 q 168.5 578.5 190 609 q 147 508 147 548 q 176.5 432 147 460 q 273 391 206 404 l 377 369 q 526.5 305.5 478 348 q 575 190 575 263 q 557 109 575 146 q 505 45.5 539 72 q 423 5 471 19 q 315 -9 375 -9 m 314 758 q 285.5 763.5 298 758 q 263 784 273 769 l 177 908 q 173.5 925 172 917 q 181.5 938.5 175 933 q 196.5 943 188 944 q 213 934 205 942 l 314 818 l 415 934 q 431.5 943 423 942 q 446.5 938.5 440 944 q 454.5 925 453 933 q 451 908 456 917 l 366 784 q 342.5 763.5 355 769 q 314 758 330 758 m 315 966 q 280.5 976.5 293 966 q 268 1006 268 987 q 280.5 1036.5 268 1026 q 315 1047 293 1047 q 350 1036.5 338 1047 q 362 1006 362 1026 q 350 976.5 362 987 q 315 966 338 966"},"Ş":{"ha":615,"x_min":50.61,"x_max":575,"o":"m 319 -192 q 281.5 -189.5 301 -192 q 246 -180 262 -187 q 231 -167 235 -176 q 230 -149 227 -158 q 241 -135.5 233 -140 q 261 -136 249 -131 q 286.5 -143 273 -141 q 317 -145 300 -145 q 359 -135.5 343 -145 q 375 -108 375 -126 q 366 -87.5 375 -95 q 337 -80 357 -80 q 321.5 -81 329 -80 q 304 -84 314 -82 q 290 -87 295 -87 q 280 -84 285 -87 q 275.5 -74.5 276 -80 q 276 -59 275 -69 l 284 -8 q 223 -1 253 -6 q 139.5 22 178 7 q 70 60 101 37 q 53.5 80.5 58 69 q 51.5 103.5 49 92 q 61.5 123 54 115 q 80 132 69 131 q 104 125 91 133 q 200 78.5 149 93 q 315 64 251 64 q 448.5 97.5 405 64 q 492 186 492 131 q 460.5 256.5 492 231 q 355 297 429 282 l 251 318 q 110.5 383.5 157 338 q 64 505 64 429 q 83 590.5 64 552 q 136 656.5 102 629 q 217 699 170 684 q 321 714 264 714 q 438.5 696.5 384 714 q 537 644 493 679 q 552 623.5 548 635 q 553 601.5 556 612 q 542.5 584 550 591 q 523.5 576 535 577 q 498 584 512 575 q 415 627.5 458 614 q 320 641 372 641 q 228.5 625 267 641 q 168.5 578.5 190 609 q 147 508 147 548 q 176.5 432 147 460 q 273 391 206 404 l 377 369 q 526.5 305.5 478 348 q 575 190 575 263 q 557 109 575 146 q 505 45.5 539 72 q 423 5 471 19 q 334 -9 383 -7 l 328 -44 q 347 -42 338 -42 q 407 -60 383 -42 q 431 -110 431 -78 q 400 -169.5 431 -147 q 319 -192 369 -192"},"Ŝ":{"ha":615,"x_min":50.61,"x_max":575,"o":"m 315 -9 q 223 -1 268 -9 q 139.5 22 178 7 q 70 60 101 37 q 53.5 80.5 58 69 q 51.5 103.5 49 92 q 61.5 123 54 115 q 80 132 69 131 q 104 125 91 133 q 200 78.5 149 93 q 315 64 251 64 q 448.5 97.5 405 64 q 492 186 492 131 q 460.5 256.5 492 231 q 355 297 429 282 l 251 318 q 110.5 383.5 157 338 q 64 505 64 429 q 83 590.5 64 552 q 136 656.5 102 629 q 217 699 170 684 q 321 714 264 714 q 438.5 696.5 384 714 q 537 644 493 679 q 552 623.5 548 635 q 553 601.5 556 612 q 542.5 584 550 591 q 523.5 576 535 577 q 498 584 512 575 q 415 627.5 458 614 q 320 641 372 641 q 228.5 625 267 641 q 168.5 578.5 190 609 q 147 508 147 548 q 176.5 432 147 460 q 273 391 206 404 l 377 369 q 526.5 305.5 478 348 q 575 190 575 263 q 557 109 575 146 q 505 45.5 539 72 q 423 5 471 19 q 315 -9 375 -9 m 314 884 l 218 768 q 198.5 758 209 759 q 180 762 188 757 q 170 776 172 767 q 175 795 168 785 l 263 918 q 286 939.5 273 933 q 314 946 299 946 q 342.5 939.5 330 946 q 366 918 355 933 l 453 795 q 459 776 461 785 q 448.5 762 457 767 q 429.5 758 440 757 q 411 768 419 759 l 314 884"},"Ș":{"ha":615,"x_min":50.61,"x_max":575,"o":"m 315 -9 q 223 -1 268 -9 q 139.5 22 178 7 q 70 60 101 37 q 53.5 80.5 58 69 q 51.5 103.5 49 92 q 61.5 123 54 115 q 80 132 69 131 q 104 125 91 133 q 200 78.5 149 93 q 315 64 251 64 q 448.5 97.5 405 64 q 492 186 492 131 q 460.5 256.5 492 231 q 355 297 429 282 l 251 318 q 110.5 383.5 157 338 q 64 505 64 429 q 83 590.5 64 552 q 136 656.5 102 629 q 217 699 170 684 q 321 714 264 714 q 438.5 696.5 384 714 q 537 644 493 679 q 552 623.5 548 635 q 553 601.5 556 612 q 542.5 584 550 591 q 523.5 576 535 577 q 498 584 512 575 q 415 627.5 458 614 q 320 641 372 641 q 228.5 625 267 641 q 168.5 578.5 190 609 q 147 508 147 548 q 176.5 432 147 460 q 273 391 206 404 l 377 369 q 526.5 305.5 478 348 q 575 190 575 263 q 557 109 575 146 q 505 45.5 539 72 q 423 5 471 19 q 315 -9 375 -9 m 330 -250 q 311.5 -262 321 -260 q 294.5 -258.5 302 -264 q 286.5 -244 287 -253 q 294 -222 286 -235 q 311 -189 305 -207 q 315 -171 313 -180 q 279 -158 292 -170 q 264 -123 264 -145 q 277.5 -88 264 -101 q 315 -75 291 -75 q 353.5 -89.5 340 -75 q 367 -133 367 -104 q 363 -173 367 -152 q 351 -214 359 -194 q 330 -250 343 -234"},"Ṡ":{"ha":615,"x_min":50.61,"x_max":575,"o":"m 315 -9 q 223 -1 268 -9 q 139.5 22 178 7 q 70 60 101 37 q 53.5 80.5 58 69 q 51.5 103.5 49 92 q 61.5 123 54 115 q 80 132 69 131 q 104 125 91 133 q 200 78.5 149 93 q 315 64 251 64 q 448.5 97.5 405 64 q 492 186 492 131 q 460.5 256.5 492 231 q 355 297 429 282 l 251 318 q 110.5 383.5 157 338 q 64 505 64 429 q 83 590.5 64 552 q 136 656.5 102 629 q 217 699 170 684 q 321 714 264 714 q 438.5 696.5 384 714 q 537 644 493 679 q 552 623.5 548 635 q 553 601.5 556 612 q 542.5 584 550 591 q 523.5 576 535 577 q 498 584 512 575 q 415 627.5 458 614 q 320 641 372 641 q 228.5 625 267 641 q 168.5 578.5 190 609 q 147 508 147 548 q 176.5 432 147 460 q 273 391 206 404 l 377 369 q 526.5 305.5 478 348 q 575 190 575 263 q 557 109 575 146 q 505 45.5 539 72 q 423 5 471 19 q 315 -9 375 -9 m 314 803 q 278 815.5 291 803 q 265 851 265 828 q 278 886 265 874 q 314 898 291 898 q 350.5 886 338 898 q 363 851 363 874 q 350.5 815.5 363 828 q 314 803 338 803"},"Ṣ":{"ha":615,"x_min":50.61,"x_max":575,"o":"m 315 -9 q 223 -1 268 -9 q 139.5 22 178 7 q 70 60 101 37 q 53.5 80.5 58 69 q 51.5 103.5 49 92 q 61.5 123 54 115 q 80 132 69 131 q 104 125 91 133 q 200 78.5 149 93 q 315 64 251 64 q 448.5 97.5 405 64 q 492 186 492 131 q 460.5 256.5 492 231 q 355 297 429 282 l 251 318 q 110.5 383.5 157 338 q 64 505 64 429 q 83 590.5 64 552 q 136 656.5 102 629 q 217 699 170 684 q 321 714 264 714 q 438.5 696.5 384 714 q 537 644 493 679 q 552 623.5 548 635 q 553 601.5 556 612 q 542.5 584 550 591 q 523.5 576 535 577 q 498 584 512 575 q 415 627.5 458 614 q 320 641 372 641 q 228.5 625 267 641 q 168.5 578.5 190 609 q 147 508 147 548 q 176.5 432 147 460 q 273 391 206 404 l 377 369 q 526.5 305.5 478 348 q 575 190 575 263 q 557 109 575 146 q 505 45.5 539 72 q 423 5 471 19 q 315 -9 375 -9 m 316 -191 q 280 -178 293 -191 q 267 -143 267 -165 q 280 -108 267 -120 q 316 -96 293 -96 q 353 -108 340 -96 q 366 -143 366 -120 q 353 -178 366 -165 q 316 -191 340 -191"},"Ṩ":{"ha":615,"x_min":50.61,"x_max":575,"o":"m 315 -9 q 223 -1 268 -9 q 139.5 22 178 7 q 70 60 101 37 q 53.5 80.5 58 69 q 51.5 103.5 49 92 q 61.5 123 54 115 q 80 132 69 131 q 104 125 91 133 q 200 78.5 149 93 q 315 64 251 64 q 448.5 97.5 405 64 q 492 186 492 131 q 460.5 256.5 492 231 q 355 297 429 282 l 251 318 q 110.5 383.5 157 338 q 64 505 64 429 q 83 590.5 64 552 q 136 656.5 102 629 q 217 699 170 684 q 321 714 264 714 q 438.5 696.5 384 714 q 537 644 493 679 q 552 623.5 548 635 q 553 601.5 556 612 q 542.5 584 550 591 q 523.5 576 535 577 q 498 584 512 575 q 415 627.5 458 614 q 320 641 372 641 q 228.5 625 267 641 q 168.5 578.5 190 609 q 147 508 147 548 q 176.5 432 147 460 q 273 391 206 404 l 377 369 q 526.5 305.5 478 348 q 575 190 575 263 q 557 109 575 146 q 505 45.5 539 72 q 423 5 471 19 q 315 -9 375 -9 m 316 -191 q 280 -178 293 -191 q 267 -143 267 -165 q 280 -108 267 -120 q 316 -96 293 -96 q 353 -108 340 -96 q 366 -143 366 -120 q 353 -178 366 -165 q 316 -191 340 -191 m 314 803 q 278 815.5 291 803 q 265 851 265 828 q 278 886 265 874 q 314 898 291 898 q 350.5 886 338 898 q 363 851 363 874 q 350.5 815.5 363 828 q 314 803 338 803"},"ẞ":{"ha":713,"x_min":87,"x_max":650,"o":"m 431 -9 q 333.5 4 379 -9 q 254 41 288 17 q 239.5 59.5 243 49 q 238.5 80.5 236 70 q 248 98.5 241 91 q 265 107.5 255 106 q 286 102 275 109 q 352.5 70 318 79 q 425 61 387 61 q 532.5 96 496 61 q 569 192 569 131 q 529.5 287 569 254 q 409 320 490 320 l 306 320 q 280 329 290 320 q 270 355 270 338 q 279.5 379.5 270 371 q 303 388 289 388 l 386 388 q 491.5 421 452 388 q 531 516 531 454 q 489 611.5 531 579 q 368 644 447 644 q 219.5 598 270 644 q 169 459 169 552 l 169 36 q 158.5 4.5 169 16 q 128 -7 148 -7 q 97.5 4.5 108 -7 q 87 36 87 16 l 87 461 q 120.5 600.5 87 544 q 217.5 685.5 154 657 q 370 714 281 714 q 498.5 691 444 714 q 583 626.5 553 668 q 613 527 613 585 q 579 415 613 462 q 515 363 553 381 q 572 340 547 356 q 629.5 278 609 316 q 650 188 650 240 q 624 81 650 125 q 549 14 598 37 q 431 -9 500 -9"},"T":{"ha":602,"x_min":-3,"x_max":606,"o":"m 301 -7 q 271 4.5 282 -7 q 260 36 260 16 l 260 634 l 35 634 q 7 644 17 634 q -3 670 -3 654 q 7 696 -3 687 q 35 705 17 705 l 568 705 q 596 696 586 705 q 606 670 606 687 q 596 643.5 606 653 q 568 634 586 634 l 343 634 l 343 36 q 332.5 4.5 343 16 q 301 -7 322 -7"},"Ŧ":{"ha":602,"x_min":-3,"x_max":606,"o":"m 301 -7 q 271 4.5 282 -7 q 260 36 260 16 l 260 326 l 143 326 q 118.5 334.5 127 326 q 110 358 110 343 q 118.5 381.5 110 373 q 143 390 127 390 l 260 390 l 260 634 l 35 634 q 7 644 17 634 q -3 670 -3 654 q 7 696 -3 687 q 35 705 17 705 l 568 705 q 596 696 586 705 q 606 670 606 687 q 596 643.5 606 653 q 568 634 586 634 l 343 634 l 343 390 l 458 390 q 482.5 382 474 390 q 491 358 491 374 q 482.5 334.5 491 343 q 458 326 474 326 l 343 326 l 343 36 q 332.5 4.5 343 16 q 301 -7 322 -7"},"Ť":{"ha":602,"x_min":-3,"x_max":606,"o":"m 301 -7 q 271 4.5 282 -7 q 260 36 260 16 l 260 634 l 35 634 q 7 644 17 634 q -3 670 -3 654 q 7 696 -3 687 q 35 705 17 705 l 568 705 q 596 696 586 705 q 606 670 606 687 q 596 643.5 606 653 q 568 634 586 634 l 343 634 l 343 36 q 332.5 4.5 343 16 q 301 -7 322 -7 m 301 756 q 273 762.5 286 756 q 250 783 260 769 l 162 907 q 157 926.5 155 917 q 167 941 159 936 q 185.5 944.5 175 946 q 205 933 196 943 l 301 818 l 398 933 q 416.5 944.5 406 943 q 435 941 427 946 q 445 926.5 443 936 q 440 907 447 917 l 353 783 q 329.5 762.5 342 769 q 301 756 317 756"},"Ţ":{"ha":602,"x_min":-3,"x_max":606,"o":"m 304 -192 q 266.5 -189.5 286 -192 q 231 -180 247 -187 q 216 -167 220 -176 q 215 -149 212 -158 q 226 -135.5 218 -140 q 246 -136 234 -131 q 271.5 -143 258 -141 q 302 -145 285 -145 q 344 -135.5 328 -145 q 360 -108 360 -126 q 351 -87.5 360 -95 q 322 -80 342 -80 q 306.5 -81 314 -80 q 289 -84 299 -82 q 275 -87 280 -87 q 265 -84 270 -87 q 260.5 -74.5 261 -80 q 261 -59 260 -69 l 271 5 q 260 36 260 16 l 260 634 l 35 634 q 7 644 17 634 q -3 670 -3 654 q 7 696 -3 687 q 35 705 17 705 l 568 705 q 596 696 586 705 q 606 670 606 687 q 596 643.5 606 653 q 568 634 586 634 l 343 634 l 343 36 q 333 5 343 16 q 320 -4 327 -1 l 313 -44 q 332 -42 323 -42 q 392 -60 368 -42 q 416 -110 416 -78 q 385 -169.5 416 -147 q 304 -192 354 -192"},"Ț":{"ha":602,"x_min":-3,"x_max":606,"o":"m 301 -7 q 271 4.5 282 -7 q 260 36 260 16 l 260 634 l 35 634 q 7 644 17 634 q -3 670 -3 654 q 7 696 -3 687 q 35 705 17 705 l 568 705 q 596 696 586 705 q 606 670 606 687 q 596 643.5 606 653 q 568 634 586 634 l 343 634 l 343 36 q 332.5 4.5 343 16 q 301 -7 322 -7 m 315 -250 q 296.5 -262 306 -260 q 279.5 -258.5 287 -264 q 271.5 -244 272 -253 q 279 -222 271 -235 q 296 -189 290 -207 q 300 -171 298 -180 q 264 -158 277 -170 q 249 -123 249 -145 q 262.5 -88 249 -101 q 300 -75 276 -75 q 338.5 -89.5 325 -75 q 352 -133 352 -104 q 348 -173 352 -152 q 336 -214 344 -194 q 315 -250 328 -234"},"Ṭ":{"ha":602,"x_min":-3,"x_max":606,"o":"m 301 -7 q 271 4.5 282 -7 q 260 36 260 16 l 260 634 l 35 634 q 7 644 17 634 q -3 670 -3 654 q 7 696 -3 687 q 35 705 17 705 l 568 705 q 596 696 586 705 q 606 670 606 687 q 596 643.5 606 653 q 568 634 586 634 l 343 634 l 343 36 q 332.5 4.5 343 16 q 301 -7 322 -7 m 301 -191 q 265 -178 278 -191 q 252 -143 252 -165 q 265 -108 252 -120 q 301 -96 278 -96 q 338 -108 325 -96 q 351 -143 351 -120 q 338 -178 351 -165 q 301 -191 325 -191"},"Ṯ":{"ha":602,"x_min":-3,"x_max":606,"o":"m 301 -7 q 271 4.5 282 -7 q 260 36 260 16 l 260 634 l 35 634 q 7 644 17 634 q -3 670 -3 654 q 7 696 -3 687 q 35 705 17 705 l 568 705 q 596 696 586 705 q 606 670 606 687 q 596 643.5 606 653 q 568 634 586 634 l 343 634 l 343 36 q 332.5 4.5 343 16 q 301 -7 322 -7 m 422 -156 l 180 -156 q 151 -129 151 -156 q 158.5 -108 151 -115 q 180 -101 166 -101 l 422 -101 q 452 -129 452 -101 q 444.5 -148.5 452 -141 q 422 -156 437 -156"},"U":{"ha":728,"x_min":82,"x_max":646,"o":"m 365 -9 q 242.5 9.5 295 -9 q 154 64.5 190 28 q 100 155 118 101 q 82 279 82 209 l 82 670 q 92.5 701.5 82 691 q 123 712 103 712 q 153.5 701.5 143 712 q 164 670 164 691 l 164 283 q 215 118.5 164 173 q 365 64 266 64 q 514 118.5 464 64 q 564 283 564 173 l 564 670 q 575 701.5 564 691 q 606 712 586 712 q 635.5 701.5 625 712 q 646 670 646 691 l 646 279 q 614.5 121 646 186 q 520 23.5 583 56 q 365 -9 457 -9"},"Ú":{"ha":728,"x_min":82,"x_max":646,"o":"m 365 -9 q 242.5 9.5 295 -9 q 154 64.5 190 28 q 100 155 118 101 q 82 279 82 209 l 82 670 q 92.5 701.5 82 691 q 123 712 103 712 q 153.5 701.5 143 712 q 164 670 164 691 l 164 283 q 215 118.5 164 173 q 365 64 266 64 q 514 118.5 464 64 q 564 283 564 173 l 564 670 q 575 701.5 564 691 q 606 712 586 712 q 635.5 701.5 625 712 q 646 670 646 691 l 646 279 q 614.5 121 646 186 q 520 23.5 583 56 q 365 -9 457 -9 m 504 892 l 400 769 q 381.5 759.5 392 760 q 363 764.5 371 759 q 352.5 779 355 770 q 357 799 350 788 l 446 928 q 466 944 455 941 q 488 943.5 477 947 q 505.5 932 499 940 q 512.5 913.5 512 924 q 504 892 513 903"},"Ŭ":{"ha":728,"x_min":82,"x_max":646,"o":"m 365 -9 q 242.5 9.5 295 -9 q 154 64.5 190 28 q 100 155 118 101 q 82 279 82 209 l 82 670 q 92.5 701.5 82 691 q 123 712 103 712 q 153.5 701.5 143 712 q 164 670 164 691 l 164 283 q 215 118.5 164 173 q 365 64 266 64 q 514 118.5 464 64 q 564 283 564 173 l 564 670 q 575 701.5 564 691 q 606 712 586 712 q 635.5 701.5 625 712 q 646 670 646 691 l 646 279 q 614.5 121 646 186 q 520 23.5 583 56 q 365 -9 457 -9 m 365 760 q 260.5 795.5 306 760 q 199 904 215 831 q 203 927 196 918 q 221 936 210 936 q 235.5 934 229 937 q 245.5 926 242 931 q 250 914 249 921 q 294 836.5 261 859 q 365 814 327 814 q 437 836.5 404 814 q 480 914 470 859 q 484.5 926 481 921 q 494.5 934 488 931 q 509 936 501 937 q 527 927 520 936 q 531 904 534 918 q 470 795.5 516 831 q 365 760 424 760"},"Û":{"ha":728,"x_min":82,"x_max":646,"o":"m 365 -9 q 242.5 9.5 295 -9 q 154 64.5 190 28 q 100 155 118 101 q 82 279 82 209 l 82 670 q 92.5 701.5 82 691 q 123 712 103 712 q 153.5 701.5 143 712 q 164 670 164 691 l 164 283 q 215 118.5 164 173 q 365 64 266 64 q 514 118.5 464 64 q 564 283 564 173 l 564 670 q 575 701.5 564 691 q 606 712 586 712 q 635.5 701.5 625 712 q 646 670 646 691 l 646 279 q 614.5 121 646 186 q 520 23.5 583 56 q 365 -9 457 -9 m 365 884 l 269 768 q 249.5 758 260 759 q 231 762 239 757 q 221 776 223 767 q 226 795 219 785 l 314 918 q 337 939.5 324 933 q 365 946 350 946 q 393.5 939.5 381 946 q 417 918 406 933 l 504 795 q 510 776 512 785 q 499.5 762 508 767 q 480.5 758 491 757 q 462 768 470 759 l 365 884"},"Ȕ":{"ha":728,"x_min":82,"x_max":646,"o":"m 365 -9 q 242.5 9.5 295 -9 q 154 64.5 190 28 q 100 155 118 101 q 82 279 82 209 l 82 670 q 92.5 701.5 82 691 q 123 712 103 712 q 153.5 701.5 143 712 q 164 670 164 691 l 164 283 q 215 118.5 164 173 q 365 64 266 64 q 514 118.5 464 64 q 564 283 564 173 l 564 670 q 575 701.5 564 691 q 606 712 586 712 q 635.5 701.5 625 712 q 646 670 646 691 l 646 279 q 614.5 121 646 186 q 520 23.5 583 56 q 365 -9 457 -9 m 401 769 l 316 895 q 308.5 917.5 307 907 q 317 935 310 928 q 334.5 944.5 324 942 q 355.5 942.5 345 947 q 372 925 366 938 l 441 789 q 443 771 446 779 q 432.5 759.5 440 763 q 416.5 758 425 756 q 401 769 408 760 m 276 768 l 187 895 q 179 917.5 178 907 q 187 935 180 928 q 204.5 944.5 194 942 q 225 943 215 947 q 242 925 235 939 l 312 790 q 315 772.5 317 781 q 306 760 313 764 q 291 757.5 299 756 q 276 768 283 759"},"Ü":{"ha":728,"x_min":82,"x_max":646,"o":"m 365 -9 q 242.5 9.5 295 -9 q 154 64.5 190 28 q 100 155 118 101 q 82 279 82 209 l 82 670 q 92.5 701.5 82 691 q 123 712 103 712 q 153.5 701.5 143 712 q 164 670 164 691 l 164 283 q 215 118.5 164 173 q 365 64 266 64 q 514 118.5 464 64 q 564 283 564 173 l 564 670 q 575 701.5 564 691 q 606 712 586 712 q 635.5 701.5 625 712 q 646 670 646 691 l 646 279 q 614.5 121 646 186 q 520 23.5 583 56 q 365 -9 457 -9 m 453 802 q 417.5 814 430 802 q 405 849 405 826 q 417.5 883 405 871 q 453 895 430 895 q 487 883 475 895 q 499 849 499 871 q 487 814 499 826 q 453 802 475 802 m 278 802 q 243.5 814 256 802 q 231 849 231 826 q 243.5 883 231 871 q 278 895 256 895 q 313 883 301 895 q 325 849 325 871 q 313 814 325 826 q 278 802 301 802"},"Ụ":{"ha":728,"x_min":82,"x_max":646,"o":"m 365 -9 q 242.5 9.5 295 -9 q 154 64.5 190 28 q 100 155 118 101 q 82 279 82 209 l 82 670 q 92.5 701.5 82 691 q 123 712 103 712 q 153.5 701.5 143 712 q 164 670 164 691 l 164 283 q 215 118.5 164 173 q 365 64 266 64 q 514 118.5 464 64 q 564 283 564 173 l 564 670 q 575 701.5 564 691 q 606 712 586 712 q 635.5 701.5 625 712 q 646 670 646 691 l 646 279 q 614.5 121 646 186 q 520 23.5 583 56 q 365 -9 457 -9 m 365 -191 q 329 -178 342 -191 q 316 -143 316 -165 q 329 -108 316 -120 q 365 -96 342 -96 q 402 -108 389 -96 q 415 -143 415 -120 q 402 -178 415 -165 q 365 -191 389 -191"},"Ù":{"ha":728,"x_min":82,"x_max":646,"o":"m 365 -9 q 242.5 9.5 295 -9 q 154 64.5 190 28 q 100 155 118 101 q 82 279 82 209 l 82 670 q 92.5 701.5 82 691 q 123 712 103 712 q 153.5 701.5 143 712 q 164 670 164 691 l 164 283 q 215 118.5 164 173 q 365 64 266 64 q 514 118.5 464 64 q 564 283 564 173 l 564 670 q 575 701.5 564 691 q 606 712 586 712 q 635.5 701.5 625 712 q 646 670 646 691 l 646 279 q 614.5 121 646 186 q 520 23.5 583 56 q 365 -9 457 -9 m 330 769 l 226 892 q 217.5 913.5 217 903 q 225 932 218 924 q 242.5 943.5 232 940 q 264.5 944 253 947 q 284 928 276 941 l 373 799 q 377.5 779 380 788 q 367 764.5 375 770 q 349 759.5 359 759 q 330 769 339 760"},"Ủ":{"ha":728,"x_min":82,"x_max":646,"o":"m 365 -9 q 242.5 9.5 295 -9 q 154 64.5 190 28 q 100 155 118 101 q 82 279 82 209 l 82 670 q 92.5 701.5 82 691 q 123 712 103 712 q 153.5 701.5 143 712 q 164 670 164 691 l 164 283 q 215 118.5 164 173 q 365 64 266 64 q 514 118.5 464 64 q 564 283 564 173 l 564 670 q 575 701.5 564 691 q 606 712 586 712 q 635.5 701.5 625 712 q 646 670 646 691 l 646 279 q 614.5 121 646 186 q 520 23.5 583 56 q 365 -9 457 -9 m 365 758 q 344.5 763.5 352 758 q 337 781 337 769 q 346.5 813.5 337 801 q 368.5 835 356 826 q 390.5 852 381 844 q 400 872 400 860 q 388.5 889 400 883 q 354 895 377 895 q 334 894 345 895 q 313 889 323 893 q 289.5 887 298 885 q 278 900 281 889 q 279 918 275 910 q 295 931 283 926 q 330.5 940 311 937 q 370 943 350 943 q 440.5 926 415 943 q 466 881 466 909 q 455 847 466 860 q 429.5 825.5 444 834 q 404 806 415 817 q 393 776 393 795 q 386 763 393 768 q 365 758 379 758"},"Ư":{"ha":728,"x_min":82,"x_max":763,"o":"m 365 -9 q 242.5 9.5 295 -9 q 154 64.5 190 28 q 100 155 118 101 q 82 279 82 209 l 82 670 q 92.5 701.5 82 691 q 123 712 103 712 q 153.5 701.5 143 712 q 164 670 164 691 l 164 283 q 215 118.5 164 173 q 365 64 266 64 q 514 118.5 464 64 q 564 283 564 173 l 564 670 q 575 701.5 564 691 q 606 712 586 712 q 623 709 616 712 q 647 717 637 712 q 680.5 751.5 671 728 q 690 810 690 775 q 699.5 834 690 826 q 727 842 709 842 q 753.5 834.5 744 842 q 763 810 763 827 q 746.5 729.5 763 763 q 699 677 730 696 q 646 658 676 663 l 646 279 q 614.5 121 646 186 q 520 23.5 583 56 q 365 -9 457 -9"},"Ứ":{"ha":728,"x_min":82,"x_max":763,"o":"m 365 -9 q 242.5 9.5 295 -9 q 154 64.5 190 28 q 100 155 118 101 q 82 279 82 209 l 82 670 q 92.5 701.5 82 691 q 123 712 103 712 q 153.5 701.5 143 712 q 164 670 164 691 l 164 283 q 215 118.5 164 173 q 365 64 266 64 q 514 118.5 464 64 q 564 283 564 173 l 564 670 q 575 701.5 564 691 q 606 712 586 712 q 623 709 616 712 q 647 717 637 712 q 680.5 751.5 671 728 q 690 810 690 775 q 699.5 834 690 826 q 727 842 709 842 q 753.5 834.5 744 842 q 763 810 763 827 q 746.5 729.5 763 763 q 699 677 730 696 q 646 658 676 663 l 646 279 q 614.5 121 646 186 q 520 23.5 583 56 q 365 -9 457 -9 m 504 892 l 400 769 q 381.5 759.5 392 760 q 363 764.5 371 759 q 352.5 779 355 770 q 357 799 350 788 l 446 928 q 466 944 455 941 q 488 943.5 477 947 q 505.5 932 499 940 q 512.5 913.5 512 924 q 504 892 513 903"},"Ự":{"ha":728,"x_min":82,"x_max":763,"o":"m 365 -9 q 242.5 9.5 295 -9 q 154 64.5 190 28 q 100 155 118 101 q 82 279 82 209 l 82 670 q 92.5 701.5 82 691 q 123 712 103 712 q 153.5 701.5 143 712 q 164 670 164 691 l 164 283 q 215 118.5 164 173 q 365 64 266 64 q 514 118.5 464 64 q 564 283 564 173 l 564 670 q 575 701.5 564 691 q 606 712 586 712 q 623 709 616 712 q 647 717 637 712 q 680.5 751.5 671 728 q 690 810 690 775 q 699.5 834 690 826 q 727 842 709 842 q 753.5 834.5 744 842 q 763 810 763 827 q 746.5 729.5 763 763 q 699 677 730 696 q 646 658 676 663 l 646 279 q 614.5 121 646 186 q 520 23.5 583 56 q 365 -9 457 -9 m 365 -191 q 329 -178 342 -191 q 316 -143 316 -165 q 329 -108 316 -120 q 365 -96 342 -96 q 402 -108 389 -96 q 415 -143 415 -120 q 402 -178 415 -165 q 365 -191 389 -191"},"Ừ":{"ha":728,"x_min":82,"x_max":763,"o":"m 365 -9 q 242.5 9.5 295 -9 q 154 64.5 190 28 q 100 155 118 101 q 82 279 82 209 l 82 670 q 92.5 701.5 82 691 q 123 712 103 712 q 153.5 701.5 143 712 q 164 670 164 691 l 164 283 q 215 118.5 164 173 q 365 64 266 64 q 514 118.5 464 64 q 564 283 564 173 l 564 670 q 575 701.5 564 691 q 606 712 586 712 q 623 709 616 712 q 647 717 637 712 q 680.5 751.5 671 728 q 690 810 690 775 q 699.5 834 690 826 q 727 842 709 842 q 753.5 834.5 744 842 q 763 810 763 827 q 746.5 729.5 763 763 q 699 677 730 696 q 646 658 676 663 l 646 279 q 614.5 121 646 186 q 520 23.5 583 56 q 365 -9 457 -9 m 330 769 l 226 892 q 217.5 913.5 217 903 q 225 932 218 924 q 242.5 943.5 232 940 q 264.5 944 253 947 q 284 928 276 941 l 373 799 q 377.5 779 380 788 q 367 764.5 375 770 q 349 759.5 359 759 q 330 769 339 760"},"Ử":{"ha":728,"x_min":82,"x_max":763,"o":"m 365 -9 q 242.5 9.5 295 -9 q 154 64.5 190 28 q 100 155 118 101 q 82 279 82 209 l 82 670 q 92.5 701.5 82 691 q 123 712 103 712 q 153.5 701.5 143 712 q 164 670 164 691 l 164 283 q 215 118.5 164 173 q 365 64 266 64 q 514 118.5 464 64 q 564 283 564 173 l 564 670 q 575 701.5 564 691 q 606 712 586 712 q 623 709 616 712 q 647 717 637 712 q 680.5 751.5 671 728 q 690 810 690 775 q 699.5 834 690 826 q 727 842 709 842 q 753.5 834.5 744 842 q 763 810 763 827 q 746.5 729.5 763 763 q 699 677 730 696 q 646 658 676 663 l 646 279 q 614.5 121 646 186 q 520 23.5 583 56 q 365 -9 457 -9 m 365 758 q 344.5 763.5 352 758 q 337 781 337 769 q 346.5 813.5 337 801 q 368.5 835 356 826 q 390.5 852 381 844 q 400 872 400 860 q 388.5 889 400 883 q 354 895 377 895 q 334 894 345 895 q 313 889 323 893 q 289.5 887 298 885 q 278 900 281 889 q 279 918 275 910 q 295 931 283 926 q 330.5 940 311 937 q 370 943 350 943 q 440.5 926 415 943 q 466 881 466 909 q 455 847 466 860 q 429.5 825.5 444 834 q 404 806 415 817 q 393 776 393 795 q 386 763 393 768 q 365 758 379 758"},"Ữ":{"ha":728,"x_min":82,"x_max":763,"o":"m 365 -9 q 242.5 9.5 295 -9 q 154 64.5 190 28 q 100 155 118 101 q 82 279 82 209 l 82 670 q 92.5 701.5 82 691 q 123 712 103 712 q 153.5 701.5 143 712 q 164 670 164 691 l 164 283 q 215 118.5 164 173 q 365 64 266 64 q 514 118.5 464 64 q 564 283 564 173 l 564 670 q 575 701.5 564 691 q 606 712 586 712 q 623 709 616 712 q 647 717 637 712 q 680.5 751.5 671 728 q 690 810 690 775 q 699.5 834 690 826 q 727 842 709 842 q 753.5 834.5 744 842 q 763 810 763 827 q 746.5 729.5 763 763 q 699 677 730 696 q 646 658 676 663 l 646 279 q 614.5 121 646 186 q 520 23.5 583 56 q 365 -9 457 -9 m 190 780 q 173.5 787 180 780 q 169 808 167 794 q 208.5 889.5 178 860 q 282 919 239 919 q 328.5 907.5 308 919 q 367 881 349 896 q 403 854.5 385 866 q 440 843 421 843 q 482 860 465 843 q 505 905 499 877 q 514.5 920.5 508 915 q 531 925 521 926 q 547.5 917.5 541 925 q 552 897 554 910 q 513 815.5 543 845 q 439 786 483 786 q 393 797.5 414 786 q 353.5 823.5 372 809 q 317.5 850 335 838 q 281 862 300 862 q 239 845 256 862 q 216 800 222 828 q 207 784.5 214 790 q 190 780 200 779"},"Ű":{"ha":728,"x_min":82,"x_max":646,"o":"m 365 -9 q 242.5 9.5 295 -9 q 154 64.5 190 28 q 100 155 118 101 q 82 279 82 209 l 82 670 q 92.5 701.5 82 691 q 123 712 103 712 q 153.5 701.5 143 712 q 164 670 164 691 l 164 283 q 215 118.5 164 173 q 365 64 266 64 q 514 118.5 464 64 q 564 283 564 173 l 564 670 q 575 701.5 564 691 q 606 712 586 712 q 635.5 701.5 625 712 q 646 670 646 691 l 646 279 q 614.5 121 646 186 q 520 23.5 583 56 q 365 -9 457 -9 m 414 895 l 329 769 q 313.5 758 322 760 q 297.5 759.5 305 756 q 287.5 771 290 763 q 290 789 285 779 l 358 925 q 374.5 942.5 364 938 q 395.5 944.5 385 947 q 413 935 406 942 q 421.5 917.5 420 928 q 414 895 423 907 m 543 895 l 454 768 q 439 757.5 447 759 q 424 760 431 756 q 415 772 417 764 q 418 790 413 780 l 488 925 q 505.5 943 495 939 q 526 944.5 516 947 q 543 935 536 942 q 551 917.5 550 928 q 543 895 552 907"},"Ȗ":{"ha":728,"x_min":82,"x_max":646,"o":"m 365 -9 q 242.5 9.5 295 -9 q 154 64.5 190 28 q 100 155 118 101 q 82 279 82 209 l 82 670 q 92.5 701.5 82 691 q 123 712 103 712 q 153.5 701.5 143 712 q 164 670 164 691 l 164 283 q 215 118.5 164 173 q 365 64 266 64 q 514 118.5 464 64 q 564 283 564 173 l 564 670 q 575 701.5 564 691 q 606 712 586 712 q 635.5 701.5 625 712 q 646 670 646 691 l 646 279 q 614.5 121 646 186 q 520 23.5 583 56 q 365 -9 457 -9 m 221 759 q 203 768.5 210 760 q 199 792 196 777 q 260.5 900 215 865 q 365 935 306 935 q 470 900 424 935 q 531 792 516 865 q 527 768.5 534 777 q 509 759 520 760 q 494.5 761 501 758 q 484.5 769.5 488 764 q 480 782 481 775 q 436 858.5 468 836 q 365 881 404 881 q 294.5 858.5 327 881 q 250 782 262 836 q 245.5 769.5 249 775 q 235.5 761 242 764 q 221 759 229 758"},"Ū":{"ha":728,"x_min":82,"x_max":646,"o":"m 365 -9 q 242.5 9.5 295 -9 q 154 64.5 190 28 q 100 155 118 101 q 82 279 82 209 l 82 670 q 92.5 701.5 82 691 q 123 712 103 712 q 153.5 701.5 143 712 q 164 670 164 691 l 164 283 q 215 118.5 164 173 q 365 64 266 64 q 514 118.5 464 64 q 564 283 564 173 l 564 670 q 575 701.5 564 691 q 606 712 586 712 q 635.5 701.5 625 712 q 646 670 646 691 l 646 279 q 614.5 121 646 186 q 520 23.5 583 56 q 365 -9 457 -9 m 501 814 l 229 814 q 200 842 200 814 q 207.5 862 200 855 q 229 869 215 869 l 501 869 q 531 842 531 869 q 523.5 821.5 531 829 q 501 814 516 814"},"Ṻ":{"ha":728,"x_min":82,"x_max":646,"o":"m 365 -9 q 242.5 9.5 295 -9 q 154 64.5 190 28 q 100 155 118 101 q 82 279 82 209 l 82 670 q 92.5 701.5 82 691 q 123 712 103 712 q 153.5 701.5 143 712 q 164 670 164 691 l 164 283 q 215 118.5 164 173 q 365 64 266 64 q 514 118.5 464 64 q 564 283 564 173 l 564 670 q 575 701.5 564 691 q 606 712 586 712 q 635.5 701.5 625 712 q 646 670 646 691 l 646 279 q 614.5 121 646 186 q 520 23.5 583 56 q 365 -9 457 -9 m 486 798 l 244 798 q 221.5 805 230 798 q 213 825 213 812 q 221.5 845 213 838 q 244 852 230 852 l 486 852 q 509 845 501 852 q 517 825 517 838 q 509 805 517 812 q 486 798 501 798 m 278 904 q 243.5 914.5 256 904 q 231 944 231 925 q 243.5 973.5 231 963 q 278 984 256 984 q 313 973.5 301 984 q 325 944 325 963 q 313 914.5 325 925 q 278 904 301 904 m 453 904 q 417.5 914.5 430 904 q 405 944 405 925 q 417.5 973.5 405 963 q 453 984 430 984 q 487 973.5 475 984 q 499 944 499 963 q 487 914.5 499 925 q 453 904 475 904"},"Ų":{"ha":728,"x_min":82,"x_max":646,"o":"m 403 -192 q 327 -166 356 -192 q 298 -95 298 -140 q 324 -19 298 -55 q 333 -8 328 -14 q 243 10 282 -5 q 154 64.5 190 28 q 100 155 118 101 q 82 279 82 209 l 82 670 q 92.5 701.5 82 691 q 123 712 103 712 q 153.5 701.5 143 712 q 164 670 164 691 l 164 283 q 215 118.5 164 173 q 365 64 266 64 q 514 118.5 464 64 q 564 283 564 173 l 564 670 q 575 701.5 564 691 q 606 712 586 712 q 635.5 701.5 625 712 q 646 670 646 691 l 646 279 q 614.5 121 646 186 q 520 24 583 56 q 408 -7 472 -1 q 392 -18 400 -12 q 366 -48 376 -31 q 356 -86 356 -65 q 372.5 -128 356 -114 q 414 -142 389 -142 q 431.5 -140.5 423 -142 q 449 -136 440 -139 q 470 -137 462 -132 q 479.5 -151.5 478 -142 q 477 -170 481 -161 q 462 -183 473 -179 q 432 -190.5 447 -189 q 403 -192 417 -192"},"Ů":{"ha":728,"x_min":82,"x_max":646,"o":"m 365 -9 q 242.5 9.5 295 -9 q 154 64.5 190 28 q 100 155 118 101 q 82 279 82 209 l 82 670 q 92.5 701.5 82 691 q 123 712 103 712 q 153.5 701.5 143 712 q 164 670 164 691 l 164 283 q 215 118.5 164 173 q 365 64 266 64 q 514 118.5 464 64 q 564 283 564 173 l 564 670 q 575 701.5 564 691 q 606 712 586 712 q 635.5 701.5 625 712 q 646 670 646 691 l 646 279 q 614.5 121 646 186 q 520 23.5 583 56 q 365 -9 457 -9 m 365 758 q 305 773.5 332 758 q 262 815.5 278 789 q 246 874 246 842 q 262 932.5 246 907 q 305 973.5 278 958 q 365 989 332 989 q 425.5 973.5 399 989 q 468 932.5 452 958 q 484 874 484 907 q 468 815.5 484 842 q 425.5 773.5 452 789 q 365 758 399 758 m 365 801 q 417 822 397 801 q 437 874 437 843 q 417 925 437 904 q 365 946 397 946 q 313.5 925 334 946 q 293 874 293 904 q 313.5 822 293 843 q 365 801 334 801"},"Ũ":{"ha":728,"x_min":82,"x_max":646,"o":"m 365 -9 q 242.5 9.5 295 -9 q 154 64.5 190 28 q 100 155 118 101 q 82 279 82 209 l 82 670 q 92.5 701.5 82 691 q 123 712 103 712 q 153.5 701.5 143 712 q 164 670 164 691 l 164 283 q 215 118.5 164 173 q 365 64 266 64 q 514 118.5 464 64 q 564 283 564 173 l 564 670 q 575 701.5 564 691 q 606 712 586 712 q 635.5 701.5 625 712 q 646 670 646 691 l 646 279 q 614.5 121 646 186 q 520 23.5 583 56 q 365 -9 457 -9 m 181 780 q 163.5 787.5 170 780 q 159 808 157 795 q 200.5 890 169 861 q 276 919 232 919 q 327 907.5 303 919 q 373.5 881 351 896 q 416.5 854.5 396 866 q 457 843 437 843 q 501 860 484 843 q 523 905 518 877 q 532.5 921 526 916 q 549 925 539 926 q 567 917.5 560 925 q 571 897 574 910 q 530.5 815 561 844 q 455 786 500 786 q 403.5 797.5 428 786 q 357 823.5 379 809 q 314 850 335 838 q 273 862 293 862 q 229.5 845 247 862 q 207 800 212 828 q 197.5 784.5 204 790 q 181 780 191 779"},"Ṹ":{"ha":728,"x_min":82,"x_max":646,"o":"m 365 -9 q 242.5 9.5 295 -9 q 154 64.5 190 28 q 100 155 118 101 q 82 279 82 209 l 82 670 q 92.5 701.5 82 691 q 123 712 103 712 q 153.5 701.5 143 712 q 164 670 164 691 l 164 283 q 215 118.5 164 173 q 365 64 266 64 q 514 118.5 464 64 q 564 283 564 173 l 564 670 q 575 701.5 564 691 q 606 712 586 712 q 635.5 701.5 625 712 q 646 670 646 691 l 646 279 q 614.5 121 646 186 q 520 23.5 583 56 q 365 -9 457 -9 m 476 984 l 392 880 q 375.5 871 385 872 q 358.5 874.5 366 870 q 348.5 888 351 879 q 352 908 346 897 l 419 1017 q 438 1034 427 1030 q 459.5 1035.5 449 1038 q 477 1025 470 1033 q 484.5 1006 484 1017 q 476 984 485 995 m 230 766 q 214.5 775 220 767 q 212 796 209 783 q 244 851.5 221 833 q 301 870 267 870 q 349 857 328 870 q 389 831 370 844 q 428 818 408 818 q 457 825.5 445 818 q 473 851 469 833 q 483 867.5 476 862 q 501 872 490 873 q 516.5 863 511 871 q 519 841 522 855 q 486.5 786 510 804 q 430 768 463 768 q 381.5 781 403 768 q 341.5 807 360 794 q 302 820 323 820 q 273.5 812.5 285 820 q 257 787 262 805 q 247.5 771 254 777 q 230 766 241 765"},"V":{"ha":689,"x_min":15.1,"x_max":674.16,"o":"m 345 -7 q 314 2 326 -7 q 295 29 302 11 l 20 658 q 16 686.5 13 675 q 29.5 705 19 698 q 54 712 40 712 q 82.5 703.5 73 712 q 98 679 92 695 l 346 103 l 593 680 q 610 703.5 600 695 q 638 712 620 712 q 661.5 705 652 712 q 673.5 686 671 698 q 669 658 676 674 l 394 29 q 375.5 2 387 11 q 345 -7 364 -7"},"W":{"ha":1101,"x_min":42.2,"x_max":1060.56,"o":"m 313 -7 q 284 2.5 295 -7 q 266 31 273 12 l 45 662 q 48.5 697.5 38 683 q 82 712 59 712 q 109 703.5 99 712 q 126 677 119 695 l 316 121 l 509 674 q 526 702.5 516 693 q 553 712 536 712 q 578.5 702.5 569 712 q 595 674 588 693 l 787 115 l 981 677 q 996.5 703 986 694 q 1024 712 1007 712 q 1055 698 1045 712 q 1057 662 1065 684 l 835 31 q 817.5 2.5 828 12 q 788 -7 807 -7 q 759.5 2.5 770 -7 q 741 31 749 12 l 551 578 l 359 31 q 342 2.5 352 12 q 313 -7 332 -7"},"Ẃ":{"ha":1101,"x_min":42.2,"x_max":1060.56,"o":"m 313 -7 q 284 2.5 295 -7 q 266 31 273 12 l 45 662 q 48.5 697.5 38 683 q 82 712 59 712 q 109 703.5 99 712 q 126 677 119 695 l 316 121 l 509 674 q 526 702.5 516 693 q 553 712 536 712 q 578.5 702.5 569 712 q 595 674 588 693 l 787 115 l 981 677 q 996.5 703 986 694 q 1024 712 1007 712 q 1055 698 1045 712 q 1057 662 1065 684 l 835 31 q 817.5 2.5 828 12 q 788 -7 807 -7 q 759.5 2.5 770 -7 q 741 31 749 12 l 551 578 l 359 31 q 342 2.5 352 12 q 313 -7 332 -7 m 690 892 l 586 769 q 567.5 759.5 578 760 q 549 764.5 557 759 q 538.5 779 541 770 q 543 799 536 788 l 632 928 q 652 944 641 941 q 674 943.5 663 947 q 691.5 932 685 940 q 698.5 913.5 698 924 q 690 892 699 903"},"Ŵ":{"ha":1101,"x_min":42.2,"x_max":1060.56,"o":"m 313 -7 q 284 2.5 295 -7 q 266 31 273 12 l 45 662 q 48.5 697.5 38 683 q 82 712 59 712 q 109 703.5 99 712 q 126 677 119 695 l 316 121 l 509 674 q 526 702.5 516 693 q 553 712 536 712 q 578.5 702.5 569 712 q 595 674 588 693 l 787 115 l 981 677 q 996.5 703 986 694 q 1024 712 1007 712 q 1055 698 1045 712 q 1057 662 1065 684 l 835 31 q 817.5 2.5 828 12 q 788 -7 807 -7 q 759.5 2.5 770 -7 q 741 31 749 12 l 551 578 l 359 31 q 342 2.5 352 12 q 313 -7 332 -7 m 551 884 l 455 768 q 435.5 758 446 759 q 417 762 425 757 q 407 776 409 767 q 412 795 405 785 l 500 918 q 523 939.5 510 933 q 551 946 536 946 q 579.5 939.5 567 946 q 603 918 592 933 l 690 795 q 696 776 698 785 q 685.5 762 694 767 q 666.5 758 677 757 q 648 768 656 759 l 551 884"},"Ẅ":{"ha":1101,"x_min":42.2,"x_max":1060.56,"o":"m 313 -7 q 284 2.5 295 -7 q 266 31 273 12 l 45 662 q 48.5 697.5 38 683 q 82 712 59 712 q 109 703.5 99 712 q 126 677 119 695 l 316 121 l 509 674 q 526 702.5 516 693 q 553 712 536 712 q 578.5 702.5 569 712 q 595 674 588 693 l 787 115 l 981 677 q 996.5 703 986 694 q 1024 712 1007 712 q 1055 698 1045 712 q 1057 662 1065 684 l 835 31 q 817.5 2.5 828 12 q 788 -7 807 -7 q 759.5 2.5 770 -7 q 741 31 749 12 l 551 578 l 359 31 q 342 2.5 352 12 q 313 -7 332 -7 m 639 802 q 603.5 814 616 802 q 591 849 591 826 q 603.5 883 591 871 q 639 895 616 895 q 673 883 661 895 q 685 849 685 871 q 673 814 685 826 q 639 802 661 802 m 464 802 q 429.5 814 442 802 q 417 849 417 826 q 429.5 883 417 871 q 464 895 442 895 q 499 883 487 895 q 511 849 511 871 q 499 814 511 826 q 464 802 487 802"},"Ẁ":{"ha":1101,"x_min":42.2,"x_max":1060.56,"o":"m 313 -7 q 284 2.5 295 -7 q 266 31 273 12 l 45 662 q 48.5 697.5 38 683 q 82 712 59 712 q 109 703.5 99 712 q 126 677 119 695 l 316 121 l 509 674 q 526 702.5 516 693 q 553 712 536 712 q 578.5 702.5 569 712 q 595 674 588 693 l 787 115 l 981 677 q 996.5 703 986 694 q 1024 712 1007 712 q 1055 698 1045 712 q 1057 662 1065 684 l 835 31 q 817.5 2.5 828 12 q 788 -7 807 -7 q 759.5 2.5 770 -7 q 741 31 749 12 l 551 578 l 359 31 q 342 2.5 352 12 q 313 -7 332 -7 m 516 769 l 412 892 q 403.5 913.5 403 903 q 411 932 404 924 q 428.5 943.5 418 940 q 450.5 944 439 947 q 470 928 462 941 l 559 799 q 563.5 779 566 788 q 553 764.5 561 770 q 535 759.5 545 759 q 516 769 525 760"},"X":{"ha":650,"x_min":38.32,"x_max":611.7,"o":"m 78 -7 q 50.5 2 61 -7 q 38.5 24 40 11 q 48 50 37 37 l 279 361 l 62 653 q 52 681 51 668 q 63.5 703 53 694 q 89 712 74 712 q 113 706 103 712 q 134 685 123 700 l 326 422 l 517 685 q 537 706 527 700 q 561 712 547 712 q 587.5 703.5 577 712 q 599 681.5 598 695 q 589 653 600 668 l 372 361 l 603 50 q 611.5 24 613 37 q 600 2 610 11 q 573 -7 590 -7 q 549.5 -0.5 560 -7 q 528 20 539 6 l 325 297 l 122 20 q 101 -0.5 112 6 q 78 -7 90 -7"},"Y":{"ha":596,"x_min":15.47,"x_max":581.52,"o":"m 298 -7 q 267.5 4.5 278 -7 q 257 37 257 16 l 257 333 l 24 654 q 15.5 680.5 15 667 q 26 703 16 694 q 52 712 36 712 q 77 705.5 66 712 q 97 685 88 699 l 300 405 l 502 685 q 523 706 513 700 q 547 712 533 712 q 572 703.5 563 712 q 581.5 681.5 581 695 q 572 653 582 668 l 339 331 l 339 37 q 298 -7 339 -7"},"Ý":{"ha":596,"x_min":15.47,"x_max":581.52,"o":"m 298 -7 q 267.5 4.5 278 -7 q 257 37 257 16 l 257 333 l 24 654 q 15.5 680.5 15 667 q 26 703 16 694 q 52 712 36 712 q 77 705.5 66 712 q 97 685 88 699 l 300 405 l 502 685 q 523 706 513 700 q 547 712 533 712 q 572 703.5 563 712 q 581.5 681.5 581 695 q 572 653 582 668 l 339 331 l 339 37 q 298 -7 339 -7 m 437 892 l 333 769 q 314.5 759.5 325 760 q 296 764.5 304 759 q 285.5 779 288 770 q 290 799 283 788 l 379 928 q 399 944 388 941 q 421 943.5 410 947 q 438.5 932 432 940 q 445.5 913.5 445 924 q 437 892 446 903"},"Ŷ":{"ha":596,"x_min":15.47,"x_max":581.52,"o":"m 298 -7 q 267.5 4.5 278 -7 q 257 37 257 16 l 257 333 l 24 654 q 15.5 680.5 15 667 q 26 703 16 694 q 52 712 36 712 q 77 705.5 66 712 q 97 685 88 699 l 300 405 l 502 685 q 523 706 513 700 q 547 712 533 712 q 572 703.5 563 712 q 581.5 681.5 581 695 q 572 653 582 668 l 339 331 l 339 37 q 298 -7 339 -7 m 298 884 l 202 768 q 182.5 758 193 759 q 164 762 172 757 q 154 776 156 767 q 159 795 152 785 l 247 918 q 270 939.5 257 933 q 298 946 283 946 q 326.5 939.5 314 946 q 350 918 339 933 l 437 795 q 443 776 445 785 q 432.5 762 441 767 q 413.5 758 424 757 q 395 768 403 759 l 298 884"},"Ÿ":{"ha":596,"x_min":15.47,"x_max":581.52,"o":"m 298 -7 q 267.5 4.5 278 -7 q 257 37 257 16 l 257 333 l 24 654 q 15.5 680.5 15 667 q 26 703 16 694 q 52 712 36 712 q 77 705.5 66 712 q 97 685 88 699 l 300 405 l 502 685 q 523 706 513 700 q 547 712 533 712 q 572 703.5 563 712 q 581.5 681.5 581 695 q 572 653 582 668 l 339 331 l 339 37 q 298 -7 339 -7 m 386 802 q 350.5 814 363 802 q 338 849 338 826 q 350.5 883 338 871 q 386 895 363 895 q 420 883 408 895 q 432 849 432 871 q 420 814 432 826 q 386 802 408 802 m 211 802 q 176.5 814 189 802 q 164 849 164 826 q 176.5 883 164 871 q 211 895 189 895 q 246 883 234 895 q 258 849 258 871 q 246 814 258 826 q 211 802 234 802"},"Ẏ":{"ha":596,"x_min":15.47,"x_max":581.52,"o":"m 298 -7 q 267.5 4.5 278 -7 q 257 37 257 16 l 257 333 l 24 654 q 15.5 680.5 15 667 q 26 703 16 694 q 52 712 36 712 q 77 705.5 66 712 q 97 685 88 699 l 300 405 l 502 685 q 523 706 513 700 q 547 712 533 712 q 572 703.5 563 712 q 581.5 681.5 581 695 q 572 653 582 668 l 339 331 l 339 37 q 298 -7 339 -7 m 298 803 q 262 815.5 275 803 q 249 851 249 828 q 262 886 249 874 q 298 898 275 898 q 334.5 886 322 898 q 347 851 347 874 q 334.5 815.5 347 828 q 298 803 322 803"},"Ỵ":{"ha":596,"x_min":15.47,"x_max":581.52,"o":"m 298 -7 q 267.5 4.5 278 -7 q 257 37 257 16 l 257 333 l 24 654 q 15.5 680.5 15 667 q 26 703 16 694 q 52 712 36 712 q 77 705.5 66 712 q 97 685 88 699 l 300 405 l 502 685 q 523 706 513 700 q 547 712 533 712 q 572 703.5 563 712 q 581.5 681.5 581 695 q 572 653 582 668 l 339 331 l 339 37 q 298 -7 339 -7 m 298 -191 q 262 -178 275 -191 q 249 -143 249 -165 q 262 -108 249 -120 q 298 -96 275 -96 q 335 -108 322 -96 q 348 -143 348 -120 q 335 -178 348 -165 q 298 -191 322 -191"},"Ỳ":{"ha":596,"x_min":15.47,"x_max":581.52,"o":"m 298 -7 q 267.5 4.5 278 -7 q 257 37 257 16 l 257 333 l 24 654 q 15.5 680.5 15 667 q 26 703 16 694 q 52 712 36 712 q 77 705.5 66 712 q 97 685 88 699 l 300 405 l 502 685 q 523 706 513 700 q 547 712 533 712 q 572 703.5 563 712 q 581.5 681.5 581 695 q 572 653 582 668 l 339 331 l 339 37 q 298 -7 339 -7 m 263 769 l 159 892 q 150.5 913.5 150 903 q 158 932 151 924 q 175.5 943.5 165 940 q 197.5 944 186 947 q 217 928 209 941 l 306 799 q 310.5 779 313 788 q 300 764.5 308 770 q 282 759.5 292 759 q 263 769 272 760"},"Ƴ":{"ha":613,"x_min":15.9,"x_max":672,"o":"m 298 -7 q 267.5 4.5 278 -7 q 257 38 257 16 l 257 333 l 24 654 q 16 680.5 15 667 q 26.5 703 17 694 q 52 712 36 712 q 71.5 709.5 64 712 q 85 700.5 79 707 q 100 682 91 694 l 300 405 l 459 633 q 500.5 678 478 660 q 549.5 704.5 523 696 q 606 713 576 713 q 654.5 706 637 713 q 672 676 672 699 q 668.5 660.5 672 667 q 659 651 665 654 q 645 648 653 648 q 631.5 649.5 640 649 q 618 650 623 650 q 570 638.5 594 650 q 526 600 546 627 l 339 332 l 339 38 q 298 -7 339 -7"},"Ỷ":{"ha":596,"x_min":15.47,"x_max":581.52,"o":"m 298 -7 q 267.5 4.5 278 -7 q 257 37 257 16 l 257 333 l 24 654 q 15.5 680.5 15 667 q 26 703 16 694 q 52 712 36 712 q 77 705.5 66 712 q 97 685 88 699 l 300 405 l 502 685 q 523 706 513 700 q 547 712 533 712 q 572 703.5 563 712 q 581.5 681.5 581 695 q 572 653 582 668 l 339 331 l 339 37 q 298 -7 339 -7 m 298 758 q 277.5 763.5 285 758 q 270 781 270 769 q 279.5 813.5 270 801 q 301.5 835 289 826 q 323.5 852 314 844 q 333 872 333 860 q 321.5 889 333 883 q 287 895 310 895 q 267 894 278 895 q 246 889 256 893 q 222.5 887 231 885 q 211 900 214 889 q 212 918 208 910 q 228 931 216 926 q 263.5 940 244 937 q 303 943 283 943 q 373.5 926 348 943 q 399 881 399 909 q 388 847 399 860 q 362.5 825.5 377 834 q 337 806 348 817 q 326 776 326 795 q 319 763 326 768 q 298 758 312 758"},"Ȳ":{"ha":596,"x_min":15.47,"x_max":581.52,"o":"m 298 -7 q 267.5 4.5 278 -7 q 257 37 257 16 l 257 333 l 24 654 q 15.5 680.5 15 667 q 26 703 16 694 q 52 712 36 712 q 77 705.5 66 712 q 97 685 88 699 l 300 405 l 502 685 q 523 706 513 700 q 547 712 533 712 q 572 703.5 563 712 q 581.5 681.5 581 695 q 572 653 582 668 l 339 331 l 339 37 q 298 -7 339 -7 m 434 814 l 162 814 q 133 842 133 814 q 140.5 862 133 855 q 162 869 148 869 l 434 869 q 464 842 464 869 q 456.5 821.5 464 829 q 434 814 449 814"},"Ỹ":{"ha":596,"x_min":15.47,"x_max":581.52,"o":"m 298 -7 q 267.5 4.5 278 -7 q 257 37 257 16 l 257 333 l 24 654 q 15.5 680.5 15 667 q 26 703 16 694 q 52 712 36 712 q 77 705.5 66 712 q 97 685 88 699 l 300 405 l 502 685 q 523 706 513 700 q 547 712 533 712 q 572 703.5 563 712 q 581.5 681.5 581 695 q 572 653 582 668 l 339 331 l 339 37 q 298 -7 339 -7 m 114 780 q 96.5 787.5 103 780 q 92 808 90 795 q 133.5 890 102 861 q 209 919 165 919 q 260 907.5 236 919 q 306.5 881 284 896 q 349.5 854.5 329 866 q 390 843 370 843 q 434 860 417 843 q 456 905 451 877 q 465.5 921 459 916 q 482 925 472 926 q 500 917.5 493 925 q 504 897 507 910 q 463.5 815 494 844 q 388 786 433 786 q 336.5 797.5 361 786 q 290 823.5 312 809 q 247 850 268 838 q 206 862 226 862 q 162.5 845 180 862 q 140 800 145 828 q 130.5 784.5 137 790 q 114 780 124 779"},"Z":{"ha":589,"x_min":41,"x_max":574,"o":"m 535 0 l 86 0 q 60 6.5 70 0 q 46 24.5 50 13 q 45.5 50.5 42 36 q 61 80 49 65 l 454 634 l 80 634 q 51 643.5 61 634 q 41 670 41 653 q 51 696 41 687 q 80 705 61 705 l 514 705 q 540.5 698.5 530 705 q 554.5 681 551 692 q 554.5 655 558 670 q 540 625 551 640 l 146 71 l 535 71 q 564 62 554 71 q 574 36 574 53 q 564 9 574 18 q 535 0 554 0"},"Ź":{"ha":589,"x_min":41,"x_max":574,"o":"m 535 0 l 86 0 q 60 6.5 70 0 q 46 24.5 50 13 q 45.5 50.5 42 36 q 61 80 49 65 l 454 634 l 80 634 q 51 643.5 61 634 q 41 670 41 653 q 51 696 41 687 q 80 705 61 705 l 514 705 q 540.5 698.5 530 705 q 554.5 681 551 692 q 554.5 655 558 670 q 540 625 551 640 l 146 71 l 535 71 q 564 62 554 71 q 574 36 574 53 q 564 9 574 18 q 535 0 554 0 m 445 892 l 341 769 q 322.5 759.5 333 760 q 304 764.5 312 759 q 293.5 779 296 770 q 298 799 291 788 l 387 928 q 407 944 396 941 q 429 943.5 418 947 q 446.5 932 440 940 q 453.5 913.5 453 924 q 445 892 454 903"},"Ž":{"ha":589,"x_min":41,"x_max":574,"o":"m 535 0 l 86 0 q 60 6.5 70 0 q 46 24.5 50 13 q 45.5 50.5 42 36 q 61 80 49 65 l 454 634 l 80 634 q 51 643.5 61 634 q 41 670 41 653 q 51 696 41 687 q 80 705 61 705 l 514 705 q 540.5 698.5 530 705 q 554.5 681 551 692 q 554.5 655 558 670 q 540 625 551 640 l 146 71 l 535 71 q 564 62 554 71 q 574 36 574 53 q 564 9 574 18 q 535 0 554 0 m 306 756 q 278 762.5 291 756 q 255 783 265 769 l 167 907 q 162 926.5 160 917 q 172 941 164 936 q 190.5 944.5 180 946 q 210 933 201 943 l 306 818 l 403 933 q 421.5 944.5 411 943 q 440 941 432 946 q 450 926.5 448 936 q 445 907 452 917 l 358 783 q 334.5 762.5 347 769 q 306 756 322 756"},"Ż":{"ha":589,"x_min":41,"x_max":574,"o":"m 535 0 l 86 0 q 60 6.5 70 0 q 46 24.5 50 13 q 45.5 50.5 42 36 q 61 80 49 65 l 454 634 l 80 634 q 51 643.5 61 634 q 41 670 41 653 q 51 696 41 687 q 80 705 61 705 l 514 705 q 540.5 698.5 530 705 q 554.5 681 551 692 q 554.5 655 558 670 q 540 625 551 640 l 146 71 l 535 71 q 564 62 554 71 q 574 36 574 53 q 564 9 574 18 q 535 0 554 0 m 306 803 q 270 815.5 283 803 q 257 851 257 828 q 270 886 257 874 q 306 898 283 898 q 342.5 886 330 898 q 355 851 355 874 q 342.5 815.5 355 828 q 306 803 330 803"},"Ẓ":{"ha":589,"x_min":41,"x_max":574,"o":"m 535 0 l 86 0 q 60 6.5 70 0 q 46 24.5 50 13 q 45.5 50.5 42 36 q 61 80 49 65 l 454 634 l 80 634 q 51 643.5 61 634 q 41 670 41 653 q 51 696 41 687 q 80 705 61 705 l 514 705 q 540.5 698.5 530 705 q 554.5 681 551 692 q 554.5 655 558 670 q 540 625 551 640 l 146 71 l 535 71 q 564 62 554 71 q 574 36 574 53 q 564 9 574 18 q 535 0 554 0 m 307 -191 q 271 -178 284 -191 q 258 -143 258 -165 q 271 -108 258 -120 q 307 -96 284 -96 q 344 -108 331 -96 q 357 -143 357 -120 q 344 -178 357 -165 q 307 -191 331 -191"},"a":{"ha":530,"x_min":54,"x_max":456,"o":"m 229 -9 q 139.5 10.5 179 -9 q 77 64 100 30 q 54 140 54 98 q 81.5 225 54 194 q 172.5 269 109 256 q 346 282 236 282 l 378 282 l 378 313 q 353 402.5 378 375 q 271 430 328 430 q 201 421 236 430 q 127 392 166 412 q 103 387.5 113 385 q 87 398 93 390 q 80 416.5 81 406 q 84.5 437 79 427 q 102 453 90 447 q 189 485 146 475 q 271 495 232 495 q 375 474.5 334 495 q 436 412.5 416 454 q 456 306 456 371 l 456 35 q 446.5 4 456 15 q 419 -7 437 -7 q 390 4 400 -7 q 380 35 380 15 l 380 84 q 359 48 372 64 q 303 6 336 21 q 229 -9 270 -9 m 378 199 l 378 229 l 347 229 q 219.5 221.5 266 229 q 154.5 196 173 214 q 136 145 136 178 q 164.5 78 136 104 q 242 52 193 52 q 312.5 71 282 52 q 360.5 123 343 90 q 378 199 378 156"},"á":{"ha":530,"x_min":54,"x_max":456,"o":"m 229 -9 q 139.5 10.5 179 -9 q 77 64 100 30 q 54 140 54 98 q 81.5 225 54 194 q 172.5 269 109 256 q 346 282 236 282 l 378 282 l 378 313 q 353 402.5 378 375 q 271 430 328 430 q 201 421 236 430 q 127 392 166 412 q 103 387.5 113 385 q 87 398 93 390 q 80 416.5 81 406 q 84.5 437 79 427 q 102 453 90 447 q 189 485 146 475 q 271 495 232 495 q 375 474.5 334 495 q 436 412.5 416 454 q 456 306 456 371 l 456 35 q 446.5 4 456 15 q 419 -7 437 -7 q 390 4 400 -7 q 380 35 380 15 l 380 84 q 359 48 372 64 q 303 6 336 21 q 229 -9 270 -9 m 378 199 l 378 229 l 347 229 q 219.5 221.5 266 229 q 154.5 196 173 214 q 136 145 136 178 q 164.5 78 136 104 q 242 52 193 52 q 312.5 71 282 52 q 360.5 123 343 90 q 378 199 378 156 m 405 712 l 305 556 q 288 544.5 298 546 q 269 547.5 278 543 q 256 561 260 552 q 258 582 252 570 l 342 745 q 360 763 349 759 q 382.5 764.5 371 767 q 402 754 394 762 q 411.5 735 410 746 q 405 712 413 724"},"ă":{"ha":530,"x_min":54,"x_max":456,"o":"m 229 -9 q 139.5 10.5 179 -9 q 77 64 100 30 q 54 140 54 98 q 81.5 225 54 194 q 172.5 269 109 256 q 346 282 236 282 l 378 282 l 378 313 q 353 402.5 378 375 q 271 430 328 430 q 201 421 236 430 q 127 392 166 412 q 103 387.5 113 385 q 87 398 93 390 q 80 416.5 81 406 q 84.5 437 79 427 q 102 453 90 447 q 189 485 146 475 q 271 495 232 495 q 375 474.5 334 495 q 436 412.5 416 454 q 456 306 456 371 l 456 35 q 446.5 4 456 15 q 419 -7 437 -7 q 390 4 400 -7 q 380 35 380 15 l 380 84 q 359 48 372 64 q 303 6 336 21 q 229 -9 270 -9 m 378 199 l 378 229 l 347 229 q 219.5 221.5 266 229 q 154.5 196 173 214 q 136 145 136 178 q 164.5 78 136 104 q 242 52 193 52 q 312.5 71 282 52 q 360.5 123 343 90 q 378 199 378 156 m 272 549 q 197 569 229 549 q 145.5 626.5 165 589 q 120 714 126 664 q 125 737 118 728 q 144 746 132 746 q 162 740 155 747 q 171 720 169 733 q 205.5 633 179 662 q 272 604 232 604 q 339.5 633 312 604 q 373 720 367 662 q 382.5 740 375 733 q 400 746 390 747 q 419 737 412 746 q 424 714 426 728 q 399 626.5 419 664 q 347 569 379 589 q 272 549 315 549"},"ắ":{"ha":530,"x_min":54,"x_max":456,"o":"m 229 -9 q 139.5 10.5 179 -9 q 77 64 100 30 q 54 140 54 98 q 81.5 225 54 194 q 172.5 269 109 256 q 346 282 236 282 l 378 282 l 378 313 q 353 402.5 378 375 q 271 430 328 430 q 201 421 236 430 q 127 392 166 412 q 103 387.5 113 385 q 87 398 93 390 q 80 416.5 81 406 q 84.5 437 79 427 q 102 453 90 447 q 189 485 146 475 q 271 495 232 495 q 375 474.5 334 495 q 436 412.5 416 454 q 456 306 456 371 l 456 35 q 446.5 4 456 15 q 419 -7 437 -7 q 390 4 400 -7 q 380 35 380 15 l 380 84 q 359 48 372 64 q 303 6 336 21 q 229 -9 270 -9 m 378 199 l 378 229 l 347 229 q 219.5 221.5 266 229 q 154.5 196 173 214 q 136 145 136 178 q 164.5 78 136 104 q 242 52 193 52 q 312.5 71 282 52 q 360.5 123 343 90 q 378 199 378 156 m 272 549 q 170.5 583 211 549 q 119 675 130 617 q 122.5 698.5 117 690 q 138 708 128 707 q 155.5 704 149 709 q 165 685 162 699 q 200.5 623.5 173 646 q 272 601 228 601 q 343.5 623.5 316 601 q 379 685 371 646 q 389 704 382 699 q 407 708 396 709 q 422.5 698 417 707 q 425 674 428 689 q 397.5 607.5 418 636 q 345 564 377 579 q 272 549 313 549 m 377 766 l 293 662 q 276.5 652 286 653 q 259 656 267 651 q 248.5 669.5 251 661 q 253 689 246 678 l 321 799 q 339 816 328 812 q 360.5 817 350 820 q 378 806 371 814 q 385.5 787.5 385 798 q 377 766 386 777"},"ặ":{"ha":530,"x_min":54,"x_max":456,"o":"m 229 -9 q 139.5 10.5 179 -9 q 77 64 100 30 q 54 140 54 98 q 81.5 225 54 194 q 172.5 269 109 256 q 346 282 236 282 l 378 282 l 378 313 q 353 402.5 378 375 q 271 430 328 430 q 201 421 236 430 q 127 392 166 412 q 103 387.5 113 385 q 87 398 93 390 q 80 416.5 81 406 q 84.5 437 79 427 q 102 453 90 447 q 189 485 146 475 q 271 495 232 495 q 375 474.5 334 495 q 436 412.5 416 454 q 456 306 456 371 l 456 35 q 446.5 4 456 15 q 419 -7 437 -7 q 390 4 400 -7 q 380 35 380 15 l 380 84 q 359 48 372 64 q 303 6 336 21 q 229 -9 270 -9 m 378 199 l 378 229 l 347 229 q 219.5 221.5 266 229 q 154.5 196 173 214 q 136 145 136 178 q 164.5 78 136 104 q 242 52 193 52 q 312.5 71 282 52 q 360.5 123 343 90 q 378 199 378 156 m 268 -191 q 232 -178 245 -191 q 219 -143 219 -165 q 232 -108 219 -120 q 268 -96 245 -96 q 305 -108 292 -96 q 318 -143 318 -120 q 305 -178 318 -165 q 268 -191 292 -191 m 272 549 q 197 569 229 549 q 145.5 626.5 165 589 q 120 714 126 664 q 125 737 118 728 q 144 746 132 746 q 162 740 155 747 q 171 720 169 733 q 205.5 633 179 662 q 272 604 232 604 q 339.5 633 312 604 q 373 720 367 662 q 382.5 740 375 733 q 400 746 390 747 q 419 737 412 746 q 424 714 426 728 q 399 626.5 419 664 q 347 569 379 589 q 272 549 315 549"},"ằ":{"ha":530,"x_min":54,"x_max":456,"o":"m 229 -9 q 139.5 10.5 179 -9 q 77 64 100 30 q 54 140 54 98 q 81.5 225 54 194 q 172.5 269 109 256 q 346 282 236 282 l 378 282 l 378 313 q 353 402.5 378 375 q 271 430 328 430 q 201 421 236 430 q 127 392 166 412 q 103 387.5 113 385 q 87 398 93 390 q 80 416.5 81 406 q 84.5 437 79 427 q 102 453 90 447 q 189 485 146 475 q 271 495 232 495 q 375 474.5 334 495 q 436 412.5 416 454 q 456 306 456 371 l 456 35 q 446.5 4 456 15 q 419 -7 437 -7 q 390 4 400 -7 q 380 35 380 15 l 380 84 q 359 48 372 64 q 303 6 336 21 q 229 -9 270 -9 m 378 199 l 378 229 l 347 229 q 219.5 221.5 266 229 q 154.5 196 173 214 q 136 145 136 178 q 164.5 78 136 104 q 242 52 193 52 q 312.5 71 282 52 q 360.5 123 343 90 q 378 199 378 156 m 272 549 q 170.5 582.5 211 549 q 119 674 130 616 q 122 698 117 689 q 137 708 127 707 q 155 704 148 709 q 165 685 162 699 q 200.5 623.5 173 646 q 272 601 228 601 q 343.5 623.5 316 601 q 379 685 371 646 q 389 704 382 699 q 406 708 396 709 q 422.5 698.5 417 707 q 425 675 428 690 q 397.5 608 418 637 q 345 564 377 579 q 272 549 313 549 m 251 662 l 167 766 q 158.5 787.5 158 777 q 166 806 159 798 q 183.5 817 173 814 q 205 816 194 820 q 223 799 216 812 l 291 689 q 295.5 669.5 298 678 q 285 656 293 661 q 267.5 652 277 651 q 251 662 258 653"},"ẳ":{"ha":530,"x_min":54,"x_max":456,"o":"m 229 -9 q 139.5 10.5 179 -9 q 77 64 100 30 q 54 140 54 98 q 81.5 225 54 194 q 172.5 269 109 256 q 346 282 236 282 l 378 282 l 378 313 q 353 402.5 378 375 q 271 430 328 430 q 201 421 236 430 q 127 392 166 412 q 103 387.5 113 385 q 87 398 93 390 q 80 416.5 81 406 q 84.5 437 79 427 q 102 453 90 447 q 189 485 146 475 q 271 495 232 495 q 375 474.5 334 495 q 436 412.5 416 454 q 456 306 456 371 l 456 35 q 446.5 4 456 15 q 419 -7 437 -7 q 390 4 400 -7 q 380 35 380 15 l 380 84 q 359 48 372 64 q 303 6 336 21 q 229 -9 270 -9 m 378 199 l 378 229 l 347 229 q 219.5 221.5 266 229 q 154.5 196 173 214 q 136 145 136 178 q 164.5 78 136 104 q 242 52 193 52 q 312.5 71 282 52 q 360.5 123 343 90 q 378 199 378 156 m 272 549 q 170.5 582.5 211 549 q 119 674 130 616 q 122 698 117 689 q 137 708 127 707 q 155 704 148 709 q 165 685 162 699 q 200.5 623.5 173 646 q 272 601 228 601 q 343.5 623.5 316 601 q 379 685 371 646 q 389 704 382 699 q 406 708 396 709 q 422.5 698.5 417 707 q 425 675 428 690 q 397.5 608 418 637 q 345 564 377 579 q 272 549 313 549 m 289 659 q 271 655 280 654 q 257 661 262 656 q 252.5 672.5 252 666 q 262 685 253 679 q 295.5 713 285 700 q 306 742 306 726 q 295.5 763.5 306 757 q 262 770 285 770 q 243 769 253 770 q 222 765 233 768 q 202.5 764.5 210 762 q 192 776 195 767 q 193 792.5 189 786 q 209 803 197 799 q 242 811 225 809 q 276 813 259 813 q 342.5 798.5 319 813 q 366 755 366 784 q 355 716.5 366 734 q 326.5 684.5 344 699 q 289 659 309 670"},"ẵ":{"ha":530,"x_min":54,"x_max":456,"o":"m 229 -9 q 139.5 10.5 179 -9 q 77 64 100 30 q 54 140 54 98 q 81.5 225 54 194 q 172.5 269 109 256 q 346 282 236 282 l 378 282 l 378 313 q 353 402.5 378 375 q 271 430 328 430 q 201 421 236 430 q 127 392 166 412 q 103 387.5 113 385 q 87 398 93 390 q 80 416.5 81 406 q 84.5 437 79 427 q 102 453 90 447 q 189 485 146 475 q 271 495 232 495 q 375 474.5 334 495 q 436 412.5 416 454 q 456 306 456 371 l 456 35 q 446.5 4 456 15 q 419 -7 437 -7 q 390 4 400 -7 q 380 35 380 15 l 380 84 q 359 48 372 64 q 303 6 336 21 q 229 -9 270 -9 m 378 199 l 378 229 l 347 229 q 219.5 221.5 266 229 q 154.5 196 173 214 q 136 145 136 178 q 164.5 78 136 104 q 242 52 193 52 q 312.5 71 282 52 q 360.5 123 343 90 q 378 199 378 156 m 272 549 q 180 572.5 219 549 q 125 634 141 596 q 123 656.5 119 648 q 137 667 127 665 q 156 666.5 149 670 q 169 652 163 663 q 208.5 615 182 629 q 272 601 235 601 q 336 615 310 601 q 375 652 362 629 q 388 666.5 381 663 q 407 667 395 670 q 421.5 656.5 417 665 q 419 634 426 648 q 364.5 572.5 403 596 q 272 549 326 549 m 137 708 q 121.5 717 127 709 q 119 738 116 725 q 151 793.5 128 775 q 208 812 174 812 q 256 799 235 812 q 296 772.5 277 786 q 335 759 315 759 q 364 767 352 759 q 380 792 376 775 q 390 808.5 383 803 q 408 813 397 814 q 423.5 804.5 418 812 q 426 783 429 797 q 393.5 727.5 417 746 q 337 709 370 709 q 288.5 722.5 310 709 q 248.5 749 267 736 q 209 762 230 762 q 180.5 754.5 192 762 q 164 729 169 747 q 154.5 712.5 161 718 q 137 708 148 707"},"ǎ":{"ha":530,"x_min":54,"x_max":456,"o":"m 229 -9 q 139.5 10.5 179 -9 q 77 64 100 30 q 54 140 54 98 q 81.5 225 54 194 q 172.5 269 109 256 q 346 282 236 282 l 378 282 l 378 313 q 353 402.5 378 375 q 271 430 328 430 q 201 421 236 430 q 127 392 166 412 q 103 387.5 113 385 q 87 398 93 390 q 80 416.5 81 406 q 84.5 437 79 427 q 102 453 90 447 q 189 485 146 475 q 271 495 232 495 q 375 474.5 334 495 q 436 412.5 416 454 q 456 306 456 371 l 456 35 q 446.5 4 456 15 q 419 -7 437 -7 q 390 4 400 -7 q 380 35 380 15 l 380 84 q 359 48 372 64 q 303 6 336 21 q 229 -9 270 -9 m 378 199 l 378 229 l 347 229 q 219.5 221.5 266 229 q 154.5 196 173 214 q 136 145 136 178 q 164.5 78 136 104 q 242 52 193 52 q 312.5 71 282 52 q 360.5 123 343 90 q 378 199 378 156 m 272 538 q 244 546.5 256 538 q 223 571 232 555 l 140 722 q 137.5 743.5 134 734 q 149.5 757.5 141 753 q 167.5 760 158 762 q 183 748 177 758 l 272 605 l 361 748 q 376.5 760 367 758 q 394.5 757.5 386 762 q 406.5 743.5 403 753 q 404 722 410 734 l 321 571 q 300 546.5 312 555 q 272 538 288 538"},"â":{"ha":530,"x_min":54,"x_max":456,"o":"m 229 -9 q 139.5 10.5 179 -9 q 77 64 100 30 q 54 140 54 98 q 81.5 225 54 194 q 172.5 269 109 256 q 346 282 236 282 l 378 282 l 378 313 q 353 402.5 378 375 q 271 430 328 430 q 201 421 236 430 q 127 392 166 412 q 103 387.5 113 385 q 87 398 93 390 q 80 416.5 81 406 q 84.5 437 79 427 q 102 453 90 447 q 189 485 146 475 q 271 495 232 495 q 375 474.5 334 495 q 436 412.5 416 454 q 456 306 456 371 l 456 35 q 446.5 4 456 15 q 419 -7 437 -7 q 390 4 400 -7 q 380 35 380 15 l 380 84 q 359 48 372 64 q 303 6 336 21 q 229 -9 270 -9 m 378 199 l 378 229 l 347 229 q 219.5 221.5 266 229 q 154.5 196 173 214 q 136 145 136 178 q 164.5 78 136 104 q 242 52 193 52 q 312.5 71 282 52 q 360.5 123 343 90 q 378 199 378 156 m 321 734 l 404 582 q 406.5 560.5 410 570 q 394.5 547 403 551 q 376.5 544.5 386 543 q 361 556 367 546 l 272 699 l 183 556 q 167.5 544.5 177 546 q 149.5 547 158 543 q 137.5 560.5 141 551 q 140 582 134 570 l 223 734 q 244 758 232 750 q 272 766 256 766 q 300 758 288 766 q 321 734 312 750"},"ấ":{"ha":530,"x_min":54,"x_max":507.53,"o":"m 229 -9 q 139.5 10.5 179 -9 q 77 64 100 30 q 54 140 54 98 q 81.5 225 54 194 q 172.5 269 109 256 q 346 282 236 282 l 378 282 l 378 313 q 353 402.5 378 375 q 271 430 328 430 q 201 421 236 430 q 127 392 166 412 q 103 387.5 113 385 q 87 398 93 390 q 80 416.5 81 406 q 84.5 437 79 427 q 102 453 90 447 q 189 485 146 475 q 271 495 232 495 q 375 474.5 334 495 q 436 412.5 416 454 q 456 306 456 371 l 456 35 q 446.5 4 456 15 q 419 -7 437 -7 q 390 4 400 -7 q 380 35 380 15 l 380 84 q 359 48 372 64 q 303 6 336 21 q 229 -9 270 -9 m 378 199 l 378 229 l 347 229 q 219.5 221.5 266 229 q 154.5 196 173 214 q 136 145 136 178 q 164.5 78 136 104 q 242 52 193 52 q 312.5 71 282 52 q 360.5 123 343 90 q 378 199 378 156 m 272 661 l 183 555 q 164.5 543.5 174 545 q 148 547 155 542 q 139 561 141 552 q 144 581 137 570 l 222 696 q 244.5 717 232 711 q 272 723 257 723 q 291 720.5 282 723 q 308 712 300 718 q 322 696 316 706 l 400 581 q 405.5 561 407 570 q 397 547 404 552 q 380 543.5 390 542 q 361 555 370 545 l 272 661 m 500 766 l 415 650 q 399.5 641 408 642 q 384 644.5 391 640 q 375 657.5 377 649 q 379 677 373 666 l 448 796 q 465 813 455 809 q 484.5 814.5 475 817 q 500.5 804.5 494 812 q 507.5 787 507 797 q 500 766 508 777"},"ậ":{"ha":530,"x_min":54,"x_max":456,"o":"m 229 -9 q 139.5 10.5 179 -9 q 77 64 100 30 q 54 140 54 98 q 81.5 225 54 194 q 172.5 269 109 256 q 346 282 236 282 l 378 282 l 378 313 q 353 402.5 378 375 q 271 430 328 430 q 201 421 236 430 q 127 392 166 412 q 103 387.5 113 385 q 87 398 93 390 q 80 416.5 81 406 q 84.5 437 79 427 q 102 453 90 447 q 189 485 146 475 q 271 495 232 495 q 375 474.5 334 495 q 436 412.5 416 454 q 456 306 456 371 l 456 35 q 446.5 4 456 15 q 419 -7 437 -7 q 390 4 400 -7 q 380 35 380 15 l 380 84 q 359 48 372 64 q 303 6 336 21 q 229 -9 270 -9 m 378 199 l 378 229 l 347 229 q 219.5 221.5 266 229 q 154.5 196 173 214 q 136 145 136 178 q 164.5 78 136 104 q 242 52 193 52 q 312.5 71 282 52 q 360.5 123 343 90 q 378 199 378 156 m 268 -191 q 232 -178 245 -191 q 219 -143 219 -165 q 232 -108 219 -120 q 268 -96 245 -96 q 305 -108 292 -96 q 318 -143 318 -120 q 305 -178 318 -165 q 268 -191 292 -191 m 321 734 l 404 582 q 406.5 560.5 410 570 q 394.5 547 403 551 q 376.5 544.5 386 543 q 361 556 367 546 l 272 699 l 183 556 q 167.5 544.5 177 546 q 149.5 547 158 543 q 137.5 560.5 141 551 q 140 582 134 570 l 223 734 q 244 758 232 750 q 272 766 256 766 q 300 758 288 766 q 321 734 312 750"}}}
